<?xml version="1.0" encoding="UTF-8"?>
<svg width="24px" height="24px" viewBox="0 0 24 24" version="1.1" xmlns="http://www.w3.org/2000/svg" xmlns:xlink="http://www.w3.org/1999/xlink">
    <title>publish-date</title>
    <g id="Page-1" stroke="none" stroke-width="1" fill="none" fill-rule="evenodd">
        <g id="Home" transform="translate(-459.000000, -580.000000)">
            <g id="publish-date" transform="translate(459.000000, 580.000000)">
                <rect id="Rectangle" x="0" y="0" width="24" height="24"></rect>
                <line x1="7.5" y1="6" x2="7.5" y2="3" id="Path" stroke="#111A1E" stroke-width="1.5" stroke-linecap="round" stroke-linejoin="round"></line>
                <line x1="16.5" y1="6" x2="16.5" y2="3" id="Path" stroke="#111A1E" stroke-width="1.5" stroke-linecap="round" stroke-linejoin="round"></line>
                <path d="M21,7.5 L21,15.75736 C21,16.5530094 20.6839292,17.316071 20.12132,17.87868 L17.87868,20.12132 C17.316071,20.6839292 16.5530094,21 15.75736,21 L6,21 C4.34314575,21 3,19.6568542 3,18 L3,7.5 C3,5.84314575 4.34314575,4.5 6,4.5 L18,4.5 C19.6568542,4.5 21,5.84314575 21,7.5 Z" id="Path" stroke="#111A1E" stroke-width="1.5" stroke-linecap="round" stroke-linejoin="round"></path>
                <path d="M21,15.5 L17.5,15.5 C16.3954305,15.5 15.5,16.3954305 15.5,17.5 L15.5,21" id="Path" stroke="#111A1E" stroke-width="1.5" stroke-linecap="round" stroke-linejoin="round"></path>
            </g>
        </g>
    </g>
</svg>