<?xml version="1.0" encoding="UTF-8"?>
<svg width="290px" height="429px" viewBox="0 0 290 429" version="1.1" xmlns="http://www.w3.org/2000/svg" xmlns:xlink="http://www.w3.org/1999/xlink">
    <title>political-division-1994</title>
    <g id="political-division-1994" stroke="none" stroke-width="1" fill="none" fill-rule="evenodd">
        <g id="1994" transform="translate(115.310000, 26.532000)" fill="#03161F" fill-rule="nonzero">
            <path d="M1.456,17.878 L5.558,17.878 L5.558,6.076 C5.558,5.61866667 5.572,5.138 5.6,4.634 L2.688,7.07 C2.56666667,7.17266667 2.443,7.24266667 2.317,7.28 C2.191,7.31733333 2.06733333,7.336 1.946,7.336 C1.75933333,7.336 1.589,7.29633333 1.435,7.217 C1.281,7.13766667 1.16666667,7.04666667 1.092,6.944 L0,5.446 L6.174,0.196 L9.016,0.196 L9.016,17.878 L12.656,17.878 L12.656,20.468 L1.456,20.468 L1.456,17.878 Z" id="1"></path>
            <path d="M21.35,12.39 C20.65,12.39 19.964,12.2686667 19.292,12.026 C18.62,11.7833333 18.0203333,11.417 17.493,10.927 C16.9656667,10.437 16.5433333,9.83033333 16.226,9.107 C15.9086667,8.38366667 15.75,7.53666667 15.75,6.566 C15.75,5.66066667 15.918,4.81133333 16.254,4.018 C16.59,3.22466667 17.0613333,2.52933333 17.668,1.932 C18.2746667,1.33466667 19.0026667,0.863333333 19.852,0.518 C20.7013333,0.172666667 21.6393333,0 22.666,0 C23.702,0 24.633,0.163333333 25.459,0.49 C26.285,0.816666667 26.9896667,1.274 27.573,1.862 C28.1563333,2.45 28.6043333,3.15466667 28.917,3.976 C29.2296667,4.79733333 29.386,5.698 29.386,6.678 C29.386,7.30333333 29.3323333,7.896 29.225,8.456 C29.1176667,9.016 28.9636667,9.555 28.763,10.073 C28.5623333,10.591 28.322,11.095 28.042,11.585 C27.762,12.075 27.4493333,12.5673333 27.104,13.062 L22.47,19.67 C22.3113333,19.894 22.0756667,20.083 21.763,20.237 C21.4503333,20.391 21.0933333,20.468 20.692,20.468 L17.514,20.468 L23.8,12.614 C23.9586667,12.418 24.108,12.2266667 24.248,12.04 C24.388,11.8533333 24.5233333,11.6666667 24.654,11.48 C24.1873333,11.7786667 23.674,12.005 23.114,12.159 C22.554,12.313 21.966,12.39 21.35,12.39 Z M26.068,6.328 C26.068,5.77733333 25.984,5.285 25.816,4.851 C25.648,4.417 25.41,4.05066667 25.102,3.752 C24.794,3.45333333 24.4276667,3.22466667 24.003,3.066 C23.5783333,2.90733333 23.114,2.828 22.61,2.828 C22.0873333,2.828 21.616,2.91433333 21.196,3.087 C20.776,3.25966667 20.419,3.5 20.125,3.808 C19.831,4.116 19.6046667,4.48233333 19.446,4.907 C19.2873333,5.33166667 19.208,5.796 19.208,6.3 C19.208,7.42933333 19.4996667,8.29033333 20.083,8.883 C20.6663333,9.47566667 21.4946667,9.772 22.568,9.772 C23.128,9.772 23.625,9.68333333 24.059,9.506 C24.493,9.32866667 24.8593333,9.086 25.158,8.778 C25.4566667,8.47 25.683,8.106 25.837,7.686 C25.991,7.266 26.068,6.81333333 26.068,6.328 Z" id="9"></path>
            <path d="M37.59,12.39 C36.89,12.39 36.204,12.2686667 35.532,12.026 C34.86,11.7833333 34.2603333,11.417 33.733,10.927 C33.2056667,10.437 32.7833333,9.83033333 32.466,9.107 C32.1486667,8.38366667 31.99,7.53666667 31.99,6.566 C31.99,5.66066667 32.158,4.81133333 32.494,4.018 C32.83,3.22466667 33.3013333,2.52933333 33.908,1.932 C34.5146667,1.33466667 35.2426667,0.863333333 36.092,0.518 C36.9413333,0.172666667 37.8793333,0 38.906,0 C39.942,0 40.873,0.163333333 41.699,0.49 C42.525,0.816666667 43.2296667,1.274 43.813,1.862 C44.3963333,2.45 44.8443333,3.15466667 45.157,3.976 C45.4696667,4.79733333 45.626,5.698 45.626,6.678 C45.626,7.30333333 45.5723333,7.896 45.465,8.456 C45.3576667,9.016 45.2036667,9.555 45.003,10.073 C44.8023333,10.591 44.562,11.095 44.282,11.585 C44.002,12.075 43.6893333,12.5673333 43.344,13.062 L38.71,19.67 C38.5513333,19.894 38.3156667,20.083 38.003,20.237 C37.6903333,20.391 37.3333333,20.468 36.932,20.468 L33.754,20.468 L40.04,12.614 C40.1986667,12.418 40.348,12.2266667 40.488,12.04 C40.628,11.8533333 40.7633333,11.6666667 40.894,11.48 C40.4273333,11.7786667 39.914,12.005 39.354,12.159 C38.794,12.313 38.206,12.39 37.59,12.39 Z M42.308,6.328 C42.308,5.77733333 42.224,5.285 42.056,4.851 C41.888,4.417 41.65,4.05066667 41.342,3.752 C41.034,3.45333333 40.6676667,3.22466667 40.243,3.066 C39.8183333,2.90733333 39.354,2.828 38.85,2.828 C38.3273333,2.828 37.856,2.91433333 37.436,3.087 C37.016,3.25966667 36.659,3.5 36.365,3.808 C36.071,4.116 35.8446667,4.48233333 35.686,4.907 C35.5273333,5.33166667 35.448,5.796 35.448,6.3 C35.448,7.42933333 35.7396667,8.29033333 36.323,8.883 C36.9063333,9.47566667 37.7346667,9.772 38.808,9.772 C39.368,9.772 39.865,9.68333333 40.299,9.506 C40.733,9.32866667 41.0993333,9.086 41.398,8.778 C41.6966667,8.47 41.923,8.106 42.077,7.686 C42.231,7.266 42.308,6.81333333 42.308,6.328 Z" id="9"></path>
            <path d="M59.598,12.838 L62.146,12.838 L62.146,14.84 C62.146,15.0266667 62.0853333,15.1876667 61.964,15.323 C61.8426667,15.4583333 61.6653333,15.526 61.432,15.526 L59.598,15.526 L59.598,20.468 L56.574,20.468 L56.574,15.526 L48.034,15.526 C47.8006667,15.526 47.5953333,15.4536667 47.418,15.309 C47.2406667,15.1643333 47.1286667,14.9846667 47.082,14.77 L46.732,13.02 L56.322,0.21 L59.598,0.21 L59.598,12.838 Z M56.574,6.216 C56.574,5.91733333 56.5833333,5.59533333 56.602,5.25 C56.6206667,4.90466667 56.6533333,4.54533333 56.7,4.172 L50.414,12.838 L56.574,12.838 L56.574,6.216 Z" id="4"></path>
        </g>
        <g id="MEDIAN" transform="translate(99.080000, 78.402000)" fill="#03161F" fill-rule="nonzero">
            <path d="M4.23,5.49 C4.286,5.586 4.335,5.687 4.377,5.793 C4.419,5.899 4.46,6.006 4.5,6.114 C4.54,6.002 4.582,5.895 4.626,5.793 C4.67,5.691 4.72,5.588 4.776,5.484 L7.686,0.198 C7.738,0.106 7.792,0.05 7.848,0.03 C7.904,0.01 7.984,0 8.088,0 L8.946,0 L8.946,8.598 L7.926,8.598 L7.926,2.28 C7.926,2.196 7.928,2.106 7.932,2.01 C7.936,1.914 7.942,1.816 7.95,1.716 L5.004,7.092 C4.904,7.272 4.764,7.362 4.584,7.362 L4.416,7.362 C4.236,7.362 4.096,7.272 3.996,7.092 L0.984,1.698 C0.996,1.802 1.005,1.904 1.011,2.004 C1.017,2.104 1.02,2.196 1.02,2.28 L1.02,8.598 L0,8.598 L0,0 L0.858,0 C0.962,0 1.042,0.01 1.098,0.03 C1.154,0.05 1.208,0.106 1.26,0.198 L4.23,5.49 Z" id="M"></path>
            <polygon id="E" points="16.338 0 16.338 0.948 12.21 0.948 12.21 3.804 15.552 3.804 15.552 4.716 12.21 4.716 12.21 7.65 16.338 7.65 16.338 8.598 11.04 8.598 11.04 0"></polygon>
            <path d="M25.464,4.302 C25.464,4.946 25.362,5.532 25.158,6.06 C24.954,6.588 24.666,7.04 24.294,7.416 C23.922,7.792 23.476,8.083 22.956,8.289 C22.436,8.495 21.86,8.598 21.228,8.598 L18.012,8.598 L18.012,0 L21.228,0 C21.86,0 22.436,0.103 22.956,0.309 C23.476,0.515 23.922,0.807 24.294,1.185 C24.666,1.563 24.954,2.016 25.158,2.544 C25.362,3.072 25.464,3.658 25.464,4.302 Z M24.27,4.302 C24.27,3.774 24.198,3.302 24.054,2.886 C23.91,2.47 23.706,2.118 23.442,1.83 C23.178,1.542 22.858,1.322 22.482,1.17 C22.106,1.018 21.688,0.942 21.228,0.942 L19.182,0.942 L19.182,7.656 L21.228,7.656 C21.688,7.656 22.106,7.58 22.482,7.428 C22.858,7.276 23.178,7.057 23.442,6.771 C23.706,6.485 23.91,6.134 24.054,5.718 C24.198,5.302 24.27,4.83 24.27,4.302 Z" id="D"></path>
            <polygon id="I" points="28.428 8.598 27.264 8.598 27.264 0 28.428 0"></polygon>
            <path d="M37.806,8.598 L36.906,8.598 C36.802,8.598 36.718,8.572 36.654,8.52 C36.59,8.468 36.542,8.402 36.51,8.322 L35.706,6.246 L31.848,6.246 L31.044,8.322 C31.016,8.394 30.968,8.458 30.9,8.514 C30.832,8.57 30.748,8.598 30.648,8.598 L29.748,8.598 L33.186,0 L34.368,0 L37.806,8.598 Z M32.172,5.406 L35.382,5.406 L34.032,1.908 C33.944,1.692 33.858,1.422 33.774,1.098 C33.73,1.262 33.687,1.413 33.645,1.551 C33.603,1.689 33.562,1.81 33.522,1.914 L32.172,5.406 Z" id="A"></path>
            <path d="M39.492,0 C39.596,0 39.673,0.013 39.723,0.039 C39.773,0.065 39.83,0.118 39.894,0.198 L44.874,6.678 C44.862,6.574 44.854,6.473 44.85,6.375 C44.846,6.277 44.844,6.182 44.844,6.09 L44.844,0 L45.864,0 L45.864,8.598 L45.276,8.598 C45.184,8.598 45.107,8.582 45.045,8.55 C44.983,8.518 44.922,8.464 44.862,8.388 L39.888,1.914 C39.896,2.014 39.902,2.112 39.906,2.208 C39.91,2.304 39.912,2.392 39.912,2.472 L39.912,8.598 L38.892,8.598 L38.892,0 L39.492,0 Z" id="N"></path>
        </g>
        <g id="Democrat" transform="translate(66.782000, 93.986000)" fill="#456B84" fill-rule="nonzero">
            <path d="M11.556,6.507 C11.556,7.461 11.397,8.337 11.079,9.135 C10.761,9.933 10.314,10.62 9.738,11.196 C9.162,11.772 8.469,12.219 7.659,12.537 C6.849,12.855 5.952,13.014 4.968,13.014 L0,13.014 L0,0 L4.968,0 C5.952,0 6.849,0.1605 7.659,0.4815 C8.469,0.8025 9.162,1.2495 9.738,1.8225 C10.314,2.3955 10.761,3.081 11.079,3.879 C11.397,4.677 11.556,5.553 11.556,6.507 Z M9.081,6.507 C9.081,5.793 8.985,5.1525 8.793,4.5855 C8.601,4.0185 8.328,3.5385 7.974,3.1455 C7.62,2.7525 7.1895,2.451 6.6825,2.241 C6.1755,2.031 5.604,1.926 4.968,1.926 L2.439,1.926 L2.439,11.088 L4.968,11.088 C5.604,11.088 6.1755,10.983 6.6825,10.773 C7.1895,10.563 7.62,10.2615 7.974,9.8685 C8.328,9.4755 8.601,8.9955 8.793,8.4285 C8.985,7.8615 9.081,7.221 9.081,6.507 Z" id="D"></path>
            <path d="M17.145,3.636 C17.727,3.636 18.2625,3.729 18.7515,3.915 C19.2405,4.101 19.662,4.3725 20.016,4.7295 C20.37,5.0865 20.646,5.5245 20.844,6.0435 C21.042,6.5625 21.141,7.155 21.141,7.821 C21.141,7.989 21.1335,8.1285 21.1185,8.2395 C21.1035,8.3505 21.0765,8.4375 21.0375,8.5005 C20.9985,8.5635 20.946,8.6085 20.88,8.6355 C20.814,8.6625 20.73,8.676 20.628,8.676 L14.922,8.676 C14.988,9.624 15.243,10.32 15.687,10.764 C16.131,11.208 16.719,11.43 17.451,11.43 C17.811,11.43 18.1215,11.388 18.3825,11.304 C18.6435,11.22 18.8715,11.127 19.0665,11.025 C19.2615,10.923 19.4325,10.83 19.5795,10.746 C19.7265,10.662 19.869,10.62 20.007,10.62 C20.097,10.62 20.175,10.638 20.241,10.674 C20.307,10.71 20.364,10.761 20.412,10.827 L21.06,11.637 C20.814,11.925 20.538,12.1665 20.232,12.3615 C19.926,12.5565 19.6065,12.7125 19.2735,12.8295 C18.9405,12.9465 18.6015,13.029 18.2565,13.077 C17.9115,13.125 17.577,13.149 17.253,13.149 C16.611,13.149 16.014,13.0425 15.462,12.8295 C14.91,12.6165 14.43,12.3015 14.022,11.8845 C13.614,11.4675 13.293,10.9515 13.059,10.3365 C12.825,9.7215 12.708,9.009 12.708,8.199 C12.708,7.569 12.81,6.9765 13.014,6.4215 C13.218,5.8665 13.5105,5.3835 13.8915,4.9725 C14.2725,4.5615 14.7375,4.236 15.2865,3.996 C15.8355,3.756 16.455,3.636 17.145,3.636 Z M17.19,5.229 C16.542,5.229 16.035,5.412 15.669,5.778 C15.303,6.144 15.069,6.663 14.967,7.335 L19.143,7.335 C19.143,7.047 19.104,6.7755 19.026,6.5205 C18.948,6.2655 18.828,6.042 18.666,5.85 C18.504,5.658 18.3,5.5065 18.054,5.3955 C17.808,5.2845 17.52,5.229 17.19,5.229 Z" id="e"></path>
            <path d="M22.95,13.014 L22.95,3.78 L24.309,3.78 C24.597,3.78 24.786,3.915 24.876,4.185 L25.02,4.869 C25.182,4.689 25.3515,4.524 25.5285,4.374 C25.7055,4.224 25.8945,4.095 26.0955,3.987 C26.2965,3.879 26.5125,3.7935 26.7435,3.7305 C26.9745,3.6675 27.228,3.636 27.504,3.636 C28.086,3.636 28.5645,3.7935 28.9395,4.1085 C29.3145,4.4235 29.595,4.842 29.781,5.364 C29.925,5.058 30.105,4.7955 30.321,4.5765 C30.537,4.3575 30.774,4.179 31.032,4.041 C31.29,3.903 31.5645,3.801 31.8555,3.735 C32.1465,3.669 32.439,3.636 32.733,3.636 C33.243,3.636 33.696,3.714 34.092,3.87 C34.488,4.026 34.821,4.254 35.091,4.554 C35.361,4.854 35.5665,5.22 35.7075,5.652 C35.8485,6.084 35.919,6.579 35.919,7.137 L35.919,13.014 L33.696,13.014 L33.696,7.137 C33.696,6.549 33.567,6.1065 33.309,5.8095 C33.051,5.5125 32.673,5.364 32.175,5.364 C31.947,5.364 31.7355,5.403 31.5405,5.481 C31.3455,5.559 31.1745,5.6715 31.0275,5.8185 C30.8805,5.9655 30.765,6.15 30.681,6.372 C30.597,6.594 30.555,6.849 30.555,7.137 L30.555,13.014 L28.323,13.014 L28.323,7.137 C28.323,6.519 28.1985,6.069 27.9495,5.787 C27.7005,5.505 27.333,5.364 26.847,5.364 C26.529,5.364 26.2305,5.4435 25.9515,5.6025 C25.6725,5.7615 25.413,5.979 25.173,6.255 L25.173,13.014 L22.95,13.014 Z" id="m"></path>
            <path d="M42.048,3.636 C42.738,3.636 43.3635,3.747 43.9245,3.969 C44.4855,4.191 44.964,4.506 45.36,4.914 C45.756,5.322 46.062,5.82 46.278,6.408 C46.494,6.996 46.602,7.653 46.602,8.379 C46.602,9.111 46.494,9.771 46.278,10.359 C46.062,10.947 45.756,11.448 45.36,11.862 C44.964,12.276 44.4855,12.594 43.9245,12.816 C43.3635,13.038 42.738,13.149 42.048,13.149 C41.358,13.149 40.731,13.038 40.167,12.816 C39.603,12.594 39.1215,12.276 38.7225,11.862 C38.3235,11.448 38.0145,10.947 37.7955,10.359 C37.5765,9.771 37.467,9.111 37.467,8.379 C37.467,7.653 37.5765,6.996 37.7955,6.408 C38.0145,5.82 38.3235,5.322 38.7225,4.914 C39.1215,4.506 39.603,4.191 40.167,3.969 C40.731,3.747 41.358,3.636 42.048,3.636 Z M42.048,11.439 C42.816,11.439 43.3845,11.181 43.7535,10.665 C44.1225,10.149 44.307,9.393 44.307,8.397 C44.307,7.401 44.1225,6.642 43.7535,6.12 C43.3845,5.598 42.816,5.337 42.048,5.337 C41.268,5.337 40.692,5.5995 40.32,6.1245 C39.948,6.6495 39.762,7.407 39.762,8.397 C39.762,9.387 39.948,10.1415 40.32,10.6605 C40.692,11.1795 41.268,11.439 42.048,11.439 Z" id="o"></path>
            <path d="M54.828,5.733 C54.762,5.817 54.6975,5.883 54.6345,5.931 C54.5715,5.979 54.48,6.003 54.36,6.003 C54.246,6.003 54.135,5.9685 54.027,5.8995 C53.919,5.8305 53.79,5.7525 53.64,5.6655 C53.49,5.5785 53.3115,5.5005 53.1045,5.4315 C52.8975,5.3625 52.641,5.328 52.335,5.328 C51.945,5.328 51.603,5.3985 51.309,5.5395 C51.015,5.6805 50.7705,5.883 50.5755,6.147 C50.3805,6.411 50.235,6.7305 50.139,7.1055 C50.043,7.4805 49.995,7.905 49.995,8.379 C49.995,8.871 50.0475,9.309 50.1525,9.693 C50.2575,10.077 50.409,10.3995 50.607,10.6605 C50.805,10.9215 51.045,11.1195 51.327,11.2545 C51.609,11.3895 51.927,11.457 52.281,11.457 C52.635,11.457 52.9215,11.4135 53.1405,11.3265 C53.3595,11.2395 53.544,11.1435 53.694,11.0385 C53.844,10.9335 53.9745,10.8375 54.0855,10.7505 C54.1965,10.6635 54.321,10.62 54.459,10.62 C54.639,10.62 54.774,10.689 54.864,10.827 L55.503,11.637 C55.257,11.925 54.99,12.1665 54.702,12.3615 C54.414,12.5565 54.1155,12.7125 53.8065,12.8295 C53.4975,12.9465 53.178,13.029 52.848,13.077 C52.518,13.125 52.191,13.149 51.867,13.149 C51.297,13.149 50.76,13.0425 50.256,12.8295 C49.752,12.6165 49.3125,12.306 48.9375,11.898 C48.5625,11.49 48.2655,10.9905 48.0465,10.3995 C47.8275,9.8085 47.718,9.135 47.718,8.379 C47.718,7.701 47.8155,7.0725 48.0105,6.4935 C48.2055,5.9145 48.492,5.4135 48.87,4.9905 C49.248,4.5675 49.716,4.236 50.274,3.996 C50.832,3.756 51.474,3.636 52.2,3.636 C52.89,3.636 53.4945,3.747 54.0135,3.969 C54.5325,4.191 54.999,4.509 55.413,4.923 L54.828,5.733 Z" id="c"></path>
            <path d="M56.925,13.014 L56.925,3.78 L58.23,3.78 C58.458,3.78 58.617,3.822 58.707,3.906 C58.797,3.99 58.857,4.134 58.887,4.338 L59.022,5.454 C59.352,4.884 59.739,4.434 60.183,4.104 C60.627,3.774 61.125,3.609 61.677,3.609 C62.133,3.609 62.511,3.714 62.811,3.924 L62.523,5.589 C62.505,5.697 62.466,5.7735 62.406,5.8185 C62.346,5.8635 62.265,5.886 62.163,5.886 C62.073,5.886 61.95,5.865 61.794,5.823 C61.638,5.781 61.431,5.76 61.173,5.76 C60.711,5.76 60.315,5.8875 59.985,6.1425 C59.655,6.3975 59.376,6.771 59.148,7.263 L59.148,13.014 L56.925,13.014 Z" id="r"></path>
            <path d="M71.253,13.014 L70.254,13.014 C70.044,13.014 69.879,12.9825 69.759,12.9195 C69.639,12.8565 69.549,12.729 69.489,12.537 L69.291,11.88 C69.057,12.09 68.8275,12.2745 68.6025,12.4335 C68.3775,12.5925 68.145,12.726 67.905,12.834 C67.665,12.942 67.41,13.023 67.14,13.077 C66.87,13.131 66.57,13.158 66.24,13.158 C65.85,13.158 65.49,13.1055 65.16,13.0005 C64.83,12.8955 64.5465,12.738 64.3095,12.528 C64.0725,12.318 63.888,12.057 63.756,11.745 C63.624,11.433 63.558,11.07 63.558,10.656 C63.558,10.308 63.6495,9.9645 63.8325,9.6255 C64.0155,9.2865 64.32,8.9805 64.746,8.7075 C65.172,8.4345 65.739,8.208 66.447,8.028 C67.155,7.848 68.034,7.746 69.084,7.722 L69.084,7.182 C69.084,6.564 68.9535,6.1065 68.6925,5.8095 C68.4315,5.5125 68.052,5.364 67.554,5.364 C67.194,5.364 66.894,5.406 66.654,5.49 C66.414,5.574 66.2055,5.6685 66.0285,5.7735 C65.8515,5.8785 65.688,5.973 65.538,6.057 C65.388,6.141 65.223,6.183 65.043,6.183 C64.893,6.183 64.764,6.144 64.656,6.066 C64.548,5.988 64.461,5.892 64.395,5.778 L63.99,5.067 C65.052,4.095 66.333,3.609 67.833,3.609 C68.373,3.609 68.8545,3.6975 69.2775,3.8745 C69.7005,4.0515 70.059,4.2975 70.353,4.6125 C70.647,4.9275 70.8705,5.304 71.0235,5.742 C71.1765,6.18 71.253,6.66 71.253,7.182 L71.253,13.014 Z M66.933,11.628 C67.161,11.628 67.371,11.607 67.563,11.565 C67.755,11.523 67.9365,11.46 68.1075,11.376 C68.2785,11.292 68.4435,11.1885 68.6025,11.0655 C68.7615,10.9425 68.922,10.797 69.084,10.629 L69.084,9.072 C68.436,9.102 67.8945,9.1575 67.4595,9.2385 C67.0245,9.3195 66.675,9.423 66.411,9.549 C66.147,9.675 65.9595,9.822 65.8485,9.99 C65.7375,10.158 65.682,10.341 65.682,10.539 C65.682,10.929 65.7975,11.208 66.0285,11.376 C66.2595,11.544 66.561,11.628 66.933,11.628 Z" id="a"></path>
            <path d="M76.473,13.158 C75.675,13.158 75.06,12.9315 74.628,12.4785 C74.196,12.0255 73.98,11.4 73.98,10.602 L73.98,5.445 L73.044,5.445 C72.924,5.445 72.8205,5.406 72.7335,5.328 C72.6465,5.25 72.603,5.133 72.603,4.977 L72.603,4.095 L74.088,3.852 L74.556,1.332 C74.58,1.212 74.6355,1.119 74.7225,1.053 C74.8095,0.987 74.919,0.954 75.051,0.954 L76.203,0.954 L76.203,3.861 L78.633,3.861 L78.633,5.445 L76.203,5.445 L76.203,10.449 C76.203,10.737 76.275,10.962 76.419,11.124 C76.563,11.286 76.755,11.367 76.995,11.367 C77.133,11.367 77.2485,11.3505 77.3415,11.3175 C77.4345,11.2845 77.5155,11.25 77.5845,11.214 C77.6535,11.178 77.715,11.1435 77.769,11.1105 C77.823,11.0775 77.877,11.061 77.931,11.061 C77.997,11.061 78.051,11.0775 78.093,11.1105 C78.135,11.1435 78.18,11.193 78.228,11.259 L78.894,12.339 C78.57,12.609 78.198,12.813 77.778,12.951 C77.358,13.089 76.923,13.158 76.473,13.158 Z" id="t"></path>
        </g>
        <g id="MEDIAN" transform="translate(174.080000, 78.402000)" fill="#03161F" fill-rule="nonzero">
            <path d="M4.23,5.49 C4.286,5.586 4.335,5.687 4.377,5.793 C4.419,5.899 4.46,6.006 4.5,6.114 C4.54,6.002 4.582,5.895 4.626,5.793 C4.67,5.691 4.72,5.588 4.776,5.484 L7.686,0.198 C7.738,0.106 7.792,0.05 7.848,0.03 C7.904,0.01 7.984,0 8.088,0 L8.946,0 L8.946,8.598 L7.926,8.598 L7.926,2.28 C7.926,2.196 7.928,2.106 7.932,2.01 C7.936,1.914 7.942,1.816 7.95,1.716 L5.004,7.092 C4.904,7.272 4.764,7.362 4.584,7.362 L4.416,7.362 C4.236,7.362 4.096,7.272 3.996,7.092 L0.984,1.698 C0.996,1.802 1.005,1.904 1.011,2.004 C1.017,2.104 1.02,2.196 1.02,2.28 L1.02,8.598 L0,8.598 L0,0 L0.858,0 C0.962,0 1.042,0.01 1.098,0.03 C1.154,0.05 1.208,0.106 1.26,0.198 L4.23,5.49 Z" id="M"></path>
            <polygon id="E" points="16.338 0 16.338 0.948 12.21 0.948 12.21 3.804 15.552 3.804 15.552 4.716 12.21 4.716 12.21 7.65 16.338 7.65 16.338 8.598 11.04 8.598 11.04 0"></polygon>
            <path d="M25.464,4.302 C25.464,4.946 25.362,5.532 25.158,6.06 C24.954,6.588 24.666,7.04 24.294,7.416 C23.922,7.792 23.476,8.083 22.956,8.289 C22.436,8.495 21.86,8.598 21.228,8.598 L18.012,8.598 L18.012,0 L21.228,0 C21.86,0 22.436,0.103 22.956,0.309 C23.476,0.515 23.922,0.807 24.294,1.185 C24.666,1.563 24.954,2.016 25.158,2.544 C25.362,3.072 25.464,3.658 25.464,4.302 Z M24.27,4.302 C24.27,3.774 24.198,3.302 24.054,2.886 C23.91,2.47 23.706,2.118 23.442,1.83 C23.178,1.542 22.858,1.322 22.482,1.17 C22.106,1.018 21.688,0.942 21.228,0.942 L19.182,0.942 L19.182,7.656 L21.228,7.656 C21.688,7.656 22.106,7.58 22.482,7.428 C22.858,7.276 23.178,7.057 23.442,6.771 C23.706,6.485 23.91,6.134 24.054,5.718 C24.198,5.302 24.27,4.83 24.27,4.302 Z" id="D"></path>
            <polygon id="I" points="28.428 8.598 27.264 8.598 27.264 0 28.428 0"></polygon>
            <path d="M37.806,8.598 L36.906,8.598 C36.802,8.598 36.718,8.572 36.654,8.52 C36.59,8.468 36.542,8.402 36.51,8.322 L35.706,6.246 L31.848,6.246 L31.044,8.322 C31.016,8.394 30.968,8.458 30.9,8.514 C30.832,8.57 30.748,8.598 30.648,8.598 L29.748,8.598 L33.186,0 L34.368,0 L37.806,8.598 Z M32.172,5.406 L35.382,5.406 L34.032,1.908 C33.944,1.692 33.858,1.422 33.774,1.098 C33.73,1.262 33.687,1.413 33.645,1.551 C33.603,1.689 33.562,1.81 33.522,1.914 L32.172,5.406 Z" id="A"></path>
            <path d="M39.492,0 C39.596,0 39.673,0.013 39.723,0.039 C39.773,0.065 39.83,0.118 39.894,0.198 L44.874,6.678 C44.862,6.574 44.854,6.473 44.85,6.375 C44.846,6.277 44.844,6.182 44.844,6.09 L44.844,0 L45.864,0 L45.864,8.598 L45.276,8.598 C45.184,8.598 45.107,8.582 45.045,8.55 C44.983,8.518 44.922,8.464 44.862,8.388 L39.888,1.914 C39.896,2.014 39.902,2.112 39.906,2.208 C39.91,2.304 39.912,2.392 39.912,2.472 L39.912,8.598 L38.892,8.598 L38.892,0 L39.492,0 Z" id="N"></path>
        </g>
        <g id="Republican" transform="translate(175.314000, 93.626000)" fill="#C13B28" fill-rule="nonzero">
            <path d="M2.421,8.289 L2.421,13.374 L0,13.374 L0,0.36 L3.969,0.36 C4.857,0.36 5.6175,0.4515 6.2505,0.6345 C6.8835,0.8175 7.4025,1.074 7.8075,1.404 C8.2125,1.734 8.5095,2.1285 8.6985,2.5875 C8.8875,3.0465 8.982,3.552 8.982,4.104 C8.982,4.542 8.9175,4.956 8.7885,5.346 C8.6595,5.736 8.4735,6.09 8.2305,6.408 C7.9875,6.726 7.6875,7.005 7.3305,7.245 C6.9735,7.485 6.567,7.677 6.111,7.821 C6.417,7.995 6.681,8.244 6.903,8.568 L10.161,13.374 L7.983,13.374 C7.773,13.374 7.5945,13.332 7.4475,13.248 C7.3005,13.164 7.176,13.044 7.074,12.888 L4.338,8.721 C4.236,8.565 4.1235,8.454 4.0005,8.388 C3.8775,8.322 3.696,8.289 3.456,8.289 L2.421,8.289 Z M2.421,6.552 L3.933,6.552 C4.389,6.552 4.7865,6.495 5.1255,6.381 C5.4645,6.267 5.7435,6.1095 5.9625,5.9085 C6.1815,5.7075 6.345,5.469 6.453,5.193 C6.561,4.917 6.615,4.614 6.615,4.284 C6.615,3.624 6.3975,3.117 5.9625,2.763 C5.5275,2.409 4.863,2.232 3.969,2.232 L2.421,2.232 L2.421,6.552 Z" id="R"></path>
            <path d="M15.399,3.996 C15.981,3.996 16.5165,4.089 17.0055,4.275 C17.4945,4.461 17.916,4.7325 18.27,5.0895 C18.624,5.4465 18.9,5.8845 19.098,6.4035 C19.296,6.9225 19.395,7.515 19.395,8.181 C19.395,8.349 19.3875,8.4885 19.3725,8.5995 C19.3575,8.7105 19.3305,8.7975 19.2915,8.8605 C19.2525,8.9235 19.2,8.9685 19.134,8.9955 C19.068,9.0225 18.984,9.036 18.882,9.036 L13.176,9.036 C13.242,9.984 13.497,10.68 13.941,11.124 C14.385,11.568 14.973,11.79 15.705,11.79 C16.065,11.79 16.3755,11.748 16.6365,11.664 C16.8975,11.58 17.1255,11.487 17.3205,11.385 C17.5155,11.283 17.6865,11.19 17.8335,11.106 C17.9805,11.022 18.123,10.98 18.261,10.98 C18.351,10.98 18.429,10.998 18.495,11.034 C18.561,11.07 18.618,11.121 18.666,11.187 L19.314,11.997 C19.068,12.285 18.792,12.5265 18.486,12.7215 C18.18,12.9165 17.8605,13.0725 17.5275,13.1895 C17.1945,13.3065 16.8555,13.389 16.5105,13.437 C16.1655,13.485 15.831,13.509 15.507,13.509 C14.865,13.509 14.268,13.4025 13.716,13.1895 C13.164,12.9765 12.684,12.6615 12.276,12.2445 C11.868,11.8275 11.547,11.3115 11.313,10.6965 C11.079,10.0815 10.962,9.369 10.962,8.559 C10.962,7.929 11.064,7.3365 11.268,6.7815 C11.472,6.2265 11.7645,5.7435 12.1455,5.3325 C12.5265,4.9215 12.9915,4.596 13.5405,4.356 C14.0895,4.116 14.709,3.996 15.399,3.996 Z M15.444,5.589 C14.796,5.589 14.289,5.772 13.923,6.138 C13.557,6.504 13.323,7.023 13.221,7.695 L17.397,7.695 C17.397,7.407 17.358,7.1355 17.28,6.8805 C17.202,6.6255 17.082,6.402 16.92,6.21 C16.758,6.018 16.554,5.8665 16.308,5.7555 C16.062,5.6445 15.774,5.589 15.444,5.589 Z" id="e"></path>
            <path d="M21.204,16.389 L21.204,4.14 L22.563,4.14 C22.707,4.14 22.83,4.173 22.932,4.239 C23.034,4.305 23.1,4.407 23.13,4.545 L23.31,5.4 C23.682,4.974 24.1095,4.629 24.5925,4.365 C25.0755,4.101 25.641,3.969 26.289,3.969 C26.793,3.969 27.2535,4.074 27.6705,4.284 C28.0875,4.494 28.4475,4.7985 28.7505,5.1975 C29.0535,5.5965 29.2875,6.0885 29.4525,6.6735 C29.6175,7.2585 29.7,7.929 29.7,8.685 C29.7,9.375 29.607,10.014 29.421,10.602 C29.235,11.19 28.9695,11.7 28.6245,12.132 C28.2795,12.564 27.8625,12.9015 27.3735,13.1445 C26.8845,13.3875 26.337,13.509 25.731,13.509 C25.209,13.509 24.7665,13.4295 24.4035,13.2705 C24.0405,13.1115 23.715,12.891 23.427,12.609 L23.427,16.389 L21.204,16.389 Z M25.524,5.724 C25.062,5.724 24.6675,5.8215 24.3405,6.0165 C24.0135,6.2115 23.709,6.486 23.427,6.84 L23.427,10.98 C23.679,11.292 23.9535,11.5095 24.2505,11.6325 C24.5475,11.7555 24.867,11.817 25.209,11.817 C25.545,11.817 25.8495,11.754 26.1225,11.628 C26.3955,11.502 26.6265,11.31 26.8155,11.052 C27.0045,10.794 27.15,10.4685 27.252,10.0755 C27.354,9.6825 27.405,9.219 27.405,8.685 C27.405,8.145 27.3615,7.6875 27.2745,7.3125 C27.1875,6.9375 27.063,6.633 26.901,6.399 C26.739,6.165 26.5425,5.994 26.3115,5.886 C26.0805,5.778 25.818,5.724 25.524,5.724 Z" id="p"></path>
            <path d="M33.417,4.14 L33.417,10.008 C33.417,10.572 33.5475,11.0085 33.8085,11.3175 C34.0695,11.6265 34.461,11.781 34.983,11.781 C35.367,11.781 35.727,11.6955 36.063,11.5245 C36.399,11.3535 36.717,11.118 37.017,10.818 L37.017,4.14 L39.24,4.14 L39.24,13.374 L37.881,13.374 C37.593,13.374 37.404,13.239 37.314,12.969 L37.161,12.231 C36.969,12.423 36.771,12.5985 36.567,12.7575 C36.363,12.9165 36.1455,13.0515 35.9145,13.1625 C35.6835,13.2735 35.4345,13.3605 35.1675,13.4235 C34.9005,13.4865 34.614,13.518 34.308,13.518 C33.804,13.518 33.3585,13.4325 32.9715,13.2615 C32.5845,13.0905 32.259,12.849 31.995,12.537 C31.731,12.225 31.5315,11.8545 31.3965,11.4255 C31.2615,10.9965 31.194,10.524 31.194,10.008 L31.194,4.14 L33.417,4.14 Z" id="u"></path>
            <path d="M41.643,13.374 L41.643,0 L43.866,0 L43.866,5.274 C44.232,4.884 44.646,4.5735 45.108,4.3425 C45.57,4.1115 46.11,3.996 46.728,3.996 C47.232,3.996 47.6925,4.0995 48.1095,4.3065 C48.5265,4.5135 48.8865,4.815 49.1895,5.211 C49.4925,5.607 49.7265,6.096 49.8915,6.678 C50.0565,7.26 50.139,7.929 50.139,8.685 C50.139,9.375 50.046,10.014 49.86,10.602 C49.674,11.19 49.4085,11.7 49.0635,12.132 C48.7185,12.564 48.3015,12.9015 47.8125,13.1445 C47.3235,13.3875 46.776,13.509 46.17,13.509 C45.888,13.509 45.63,13.4805 45.396,13.4235 C45.162,13.3665 44.949,13.287 44.757,13.185 C44.565,13.083 44.3865,12.9585 44.2215,12.8115 C44.0565,12.6645 43.899,12.501 43.749,12.321 L43.65,12.942 C43.614,13.098 43.5525,13.209 43.4655,13.275 C43.3785,13.341 43.26,13.374 43.11,13.374 L41.643,13.374 Z M45.963,5.724 C45.501,5.724 45.1065,5.8215 44.7795,6.0165 C44.4525,6.2115 44.148,6.486 43.866,6.84 L43.866,10.98 C44.118,11.292 44.3925,11.5095 44.6895,11.6325 C44.9865,11.7555 45.309,11.817 45.657,11.817 C45.993,11.817 46.296,11.754 46.566,11.628 C46.836,11.502 47.0655,11.31 47.2545,11.052 C47.4435,10.794 47.589,10.4685 47.691,10.0755 C47.793,9.6825 47.844,9.219 47.844,8.685 C47.844,8.145 47.8005,7.6875 47.7135,7.3125 C47.6265,6.9375 47.502,6.633 47.34,6.399 C47.178,6.165 46.9815,5.994 46.7505,5.886 C46.5195,5.778 46.257,5.724 45.963,5.724 Z" id="b"></path>
            <polygon id="l" points="54.243 0 54.243 13.374 52.02 13.374 52.02 0"></polygon>
            <path d="M59.121,4.14 L59.121,13.374 L56.898,13.374 L56.898,4.14 L59.121,4.14 Z M59.454,1.449 C59.454,1.641 59.415,1.821 59.337,1.989 C59.259,2.157 59.1555,2.304 59.0265,2.43 C58.8975,2.556 58.746,2.6565 58.572,2.7315 C58.398,2.8065 58.212,2.844 58.014,2.844 C57.822,2.844 57.6405,2.8065 57.4695,2.7315 C57.2985,2.6565 57.15,2.556 57.024,2.43 C56.898,2.304 56.7975,2.157 56.7225,1.989 C56.6475,1.821 56.61,1.641 56.61,1.449 C56.61,1.251 56.6475,1.065 56.7225,0.891 C56.7975,0.717 56.898,0.567 57.024,0.441 C57.15,0.315 57.2985,0.2145 57.4695,0.1395 C57.6405,0.0645 57.822,0.027 58.014,0.027 C58.212,0.027 58.398,0.0645 58.572,0.1395 C58.746,0.2145 58.8975,0.315 59.0265,0.441 C59.1555,0.567 59.259,0.717 59.337,0.891 C59.415,1.065 59.454,1.251 59.454,1.449 Z" id="i"></path>
            <path d="M68.121,6.093 C68.055,6.177 67.9905,6.243 67.9275,6.291 C67.8645,6.339 67.773,6.363 67.653,6.363 C67.539,6.363 67.428,6.3285 67.32,6.2595 C67.212,6.1905 67.083,6.1125 66.933,6.0255 C66.783,5.9385 66.6045,5.8605 66.3975,5.7915 C66.1905,5.7225 65.934,5.688 65.628,5.688 C65.238,5.688 64.896,5.7585 64.602,5.8995 C64.308,6.0405 64.0635,6.243 63.8685,6.507 C63.6735,6.771 63.528,7.0905 63.432,7.4655 C63.336,7.8405 63.288,8.265 63.288,8.739 C63.288,9.231 63.3405,9.669 63.4455,10.053 C63.5505,10.437 63.702,10.7595 63.9,11.0205 C64.098,11.2815 64.338,11.4795 64.62,11.6145 C64.902,11.7495 65.22,11.817 65.574,11.817 C65.928,11.817 66.2145,11.7735 66.4335,11.6865 C66.6525,11.5995 66.837,11.5035 66.987,11.3985 C67.137,11.2935 67.2675,11.1975 67.3785,11.1105 C67.4895,11.0235 67.614,10.98 67.752,10.98 C67.932,10.98 68.067,11.049 68.157,11.187 L68.796,11.997 C68.55,12.285 68.283,12.5265 67.995,12.7215 C67.707,12.9165 67.4085,13.0725 67.0995,13.1895 C66.7905,13.3065 66.471,13.389 66.141,13.437 C65.811,13.485 65.484,13.509 65.16,13.509 C64.59,13.509 64.053,13.4025 63.549,13.1895 C63.045,12.9765 62.6055,12.666 62.2305,12.258 C61.8555,11.85 61.5585,11.3505 61.3395,10.7595 C61.1205,10.1685 61.011,9.495 61.011,8.739 C61.011,8.061 61.1085,7.4325 61.3035,6.8535 C61.4985,6.2745 61.785,5.7735 62.163,5.3505 C62.541,4.9275 63.009,4.596 63.567,4.356 C64.125,4.116 64.767,3.996 65.493,3.996 C66.183,3.996 66.7875,4.107 67.3065,4.329 C67.8255,4.551 68.292,4.869 68.706,5.283 L68.121,6.093 Z" id="c"></path>
            <path d="M77.454,13.374 L76.455,13.374 C76.245,13.374 76.08,13.3425 75.96,13.2795 C75.84,13.2165 75.75,13.089 75.69,12.897 L75.492,12.24 C75.258,12.45 75.0285,12.6345 74.8035,12.7935 C74.5785,12.9525 74.346,13.086 74.106,13.194 C73.866,13.302 73.611,13.383 73.341,13.437 C73.071,13.491 72.771,13.518 72.441,13.518 C72.051,13.518 71.691,13.4655 71.361,13.3605 C71.031,13.2555 70.7475,13.098 70.5105,12.888 C70.2735,12.678 70.089,12.417 69.957,12.105 C69.825,11.793 69.759,11.43 69.759,11.016 C69.759,10.668 69.8505,10.3245 70.0335,9.9855 C70.2165,9.6465 70.521,9.3405 70.947,9.0675 C71.373,8.7945 71.94,8.568 72.648,8.388 C73.356,8.208 74.235,8.106 75.285,8.082 L75.285,7.542 C75.285,6.924 75.1545,6.4665 74.8935,6.1695 C74.6325,5.8725 74.253,5.724 73.755,5.724 C73.395,5.724 73.095,5.766 72.855,5.85 C72.615,5.934 72.4065,6.0285 72.2295,6.1335 C72.0525,6.2385 71.889,6.333 71.739,6.417 C71.589,6.501 71.424,6.543 71.244,6.543 C71.094,6.543 70.965,6.504 70.857,6.426 C70.749,6.348 70.662,6.252 70.596,6.138 L70.191,5.427 C71.253,4.455 72.534,3.969 74.034,3.969 C74.574,3.969 75.0555,4.0575 75.4785,4.2345 C75.9015,4.4115 76.26,4.6575 76.554,4.9725 C76.848,5.2875 77.0715,5.664 77.2245,6.102 C77.3775,6.54 77.454,7.02 77.454,7.542 L77.454,13.374 Z M73.134,11.988 C73.362,11.988 73.572,11.967 73.764,11.925 C73.956,11.883 74.1375,11.82 74.3085,11.736 C74.4795,11.652 74.6445,11.5485 74.8035,11.4255 C74.9625,11.3025 75.123,11.157 75.285,10.989 L75.285,9.432 C74.637,9.462 74.0955,9.5175 73.6605,9.5985 C73.2255,9.6795 72.876,9.783 72.612,9.909 C72.348,10.035 72.1605,10.182 72.0495,10.35 C71.9385,10.518 71.883,10.701 71.883,10.899 C71.883,11.289 71.9985,11.568 72.2295,11.736 C72.4605,11.904 72.762,11.988 73.134,11.988 Z" id="a"></path>
            <path d="M79.641,13.374 L79.641,4.14 L81,4.14 C81.288,4.14 81.477,4.275 81.567,4.545 L81.72,5.274 C81.906,5.082 82.1025,4.908 82.3095,4.752 C82.5165,4.596 82.7355,4.461 82.9665,4.347 C83.1975,4.233 83.445,4.146 83.709,4.086 C83.973,4.026 84.261,3.996 84.573,3.996 C85.077,3.996 85.524,4.0815 85.914,4.2525 C86.304,4.4235 86.6295,4.6635 86.8905,4.9725 C87.1515,5.2815 87.3495,5.6505 87.4845,6.0795 C87.6195,6.5085 87.687,6.981 87.687,7.497 L87.687,13.374 L85.464,13.374 L85.464,7.497 C85.464,6.933 85.3335,6.4965 85.0725,6.1875 C84.8115,5.8785 84.42,5.724 83.898,5.724 C83.514,5.724 83.154,5.811 82.818,5.985 C82.482,6.159 82.164,6.396 81.864,6.696 L81.864,13.374 L79.641,13.374 Z" id="n"></path>
        </g>
        <polygon id="Rectangle" fill="#C13B28" points="12.47063 373.172039 29.5419021 370.839269 43.096105 343.252987 57.6880412 338.879145 72.0837284 313.908441 86.5439606 302.200609 101.801066 261.758556 116.369241 252.770127 130.623522 208.392897 147.110499 196.677328 160.055048 186.706259 173.958845 170.371394 189.972061 170.371394 202.526036 176.443955 217.506672 192.058124 232.258926 233.447299 247.016632 242.802842 259.857986 261.758556 276.071319 281.169859 289.880632 346.72266 289.880632 377 -2.84217094e-14 377"></polygon>
        <polygon id="Rectangle" fill="#456B84" points="-2.84217094e-14 364 13.9473957 341.852533 28.2882521 334.79941 44.4624049 295.906122 57.6880412 285.311123 73.15276 223.054002 87.8169533 207.932946 101.801066 177.135457 116.369241 164.374146 130.623522 156.154432 159.007504 163.444526 175.618617 200.372951 188.785976 219.254538 203.386095 268.733454 217.210089 276.908787 231.680635 326.733396 247.391912 332.629993 259.896474 356.825309 276.071319 364.927073 289.880632 377 -2.84217094e-14 377"></polygon>
        <path d="M166.215,179.468432 L175.618617,200.372951 L188.785976,219.254538 L203.386095,268.733454 L217.210089,276.908787 L231.680635,326.733396 L247.391912,332.629993 L259.896474,356.825309 L276.071319,364.927073 L289.880632,377 L-2.84217094e-14,377 L12.47063,373.172039 L29.5419021,370.839269 L43.096105,343.252987 L57.6880412,338.879145 L72.0837284,313.908441 L86.5439606,302.200609 L101.801066,261.758556 L116.369241,252.770127 L130.623522,208.392897 L147.110499,196.677328 L160.055048,186.706259 L166.215,179.468432 Z" id="Combined-Shape" fill="#4C4556"></path>
        <g id="Consistently-Liberal" transform="translate(0.630000, 390.689000)" fill="#03161F" fill-rule="nonzero">
            <path d="M7.658,8.239 C7.73266667,8.239 7.80033333,8.26933333 7.861,8.33 L8.393,8.911 C7.98233333,9.387 7.48416667,9.758 6.8985,10.024 C6.31283333,10.29 5.607,10.423 4.781,10.423 C4.05766667,10.423 3.402,10.2981667 2.814,10.0485 C2.226,9.79883333 1.72433333,9.44883333 1.309,8.9985 C0.893666667,8.54816667 0.571666667,8.008 0.343,7.378 C0.114333333,6.748 0,6.055 0,5.299 C0,4.543 0.1225,3.85 0.3675,3.22 C0.6125,2.59 0.956666667,2.04866667 1.4,1.596 C1.84333333,1.14333333 2.37416667,0.792166667 2.9925,0.5425 C3.61083333,0.292833333 4.29333333,0.168 5.04,0.168 C5.77733333,0.168 6.41316667,0.282333333 6.9475,0.511 C7.48183333,0.739666667 7.95666667,1.05 8.372,1.442 L7.931,2.065 C7.89833333,2.11166667 7.861,2.15016667 7.819,2.1805 C7.777,2.21083333 7.71633333,2.226 7.637,2.226 C7.57633333,2.226 7.51216667,2.20383333 7.4445,2.1595 C7.37683333,2.11516667 7.29633333,2.06033333 7.203,1.995 C7.10966667,1.92966667 7,1.85966667 6.874,1.785 C6.748,1.71033333 6.59866667,1.64033333 6.426,1.575 C6.25333333,1.50966667 6.05266667,1.45483333 5.824,1.4105 C5.59533333,1.36616667 5.33166667,1.344 5.033,1.344 C4.49633333,1.344 4.00516667,1.43616667 3.5595,1.6205 C3.11383333,1.80483333 2.73,2.06733333 2.408,2.408 C2.086,2.74866667 1.83516667,3.164 1.6555,3.654 C1.47583333,4.144 1.386,4.69233333 1.386,5.299 C1.386,5.92433333 1.47583333,6.482 1.6555,6.972 C1.83516667,7.462 2.08016667,7.87616667 2.3905,8.2145 C2.70083333,8.55283333 3.06833333,8.81066667 3.493,8.988 C3.91766667,9.16533333 4.375,9.254 4.865,9.254 C5.16366667,9.254 5.432,9.2365 5.67,9.2015 C5.908,9.1665 6.1285,9.11166667 6.3315,9.037 C6.5345,8.96233333 6.7235,8.86783333 6.8985,8.7535 C7.0735,8.63916667 7.24966667,8.50266667 7.427,8.344 C7.50633333,8.274 7.58333333,8.239 7.658,8.239 Z" id="C"></path>
            <path d="M12.852,3.108 C13.37,3.108 13.8378333,3.19433333 14.2555,3.367 C14.6731667,3.53966667 15.0278333,3.78466667 15.3195,4.102 C15.6111667,4.41933333 15.8351667,4.80316667 15.9915,5.2535 C16.1478333,5.70383333 16.226,6.20666667 16.226,6.762 C16.226,7.322 16.1478333,7.826 15.9915,8.274 C15.8351667,8.722 15.6111667,9.10466667 15.3195,9.422 C15.0278333,9.73933333 14.6731667,9.98316667 14.2555,10.1535 C13.8378333,10.3238333 13.37,10.409 12.852,10.409 C12.334,10.409 11.8661667,10.3238333 11.4485,10.1535 C11.0308333,9.98316667 10.675,9.73933333 10.381,9.422 C10.087,9.10466667 9.86066667,8.722 9.702,8.274 C9.54333333,7.826 9.464,7.322 9.464,6.762 C9.464,6.20666667 9.54333333,5.70383333 9.702,5.2535 C9.86066667,4.80316667 10.087,4.41933333 10.381,4.102 C10.675,3.78466667 11.0308333,3.53966667 11.4485,3.367 C11.8661667,3.19433333 12.334,3.108 12.852,3.108 Z M12.852,9.436 C13.552,9.436 14.0746667,9.2015 14.42,8.7325 C14.7653333,8.2635 14.938,7.609 14.938,6.769 C14.938,5.92433333 14.7653333,5.26633333 14.42,4.795 C14.0746667,4.32366667 13.552,4.088 12.852,4.088 C12.4973333,4.088 12.1893333,4.14866667 11.928,4.27 C11.6666667,4.39133333 11.4485,4.56633333 11.2735,4.795 C11.0985,5.02366667 10.9678333,5.30483333 10.8815,5.6385 C10.7951667,5.97216667 10.752,6.349 10.752,6.769 C10.752,7.189 10.7951667,7.56466667 10.8815,7.896 C10.9678333,8.22733333 11.0985,8.50616667 11.2735,8.7325 C11.4485,8.95883333 11.6666667,9.13266667 11.928,9.254 C12.1893333,9.37533333 12.4973333,9.436 12.852,9.436 Z" id="o"></path>
            <path d="M17.766,10.311 L17.766,3.22 L18.508,3.22 C18.6853333,3.22 18.7973333,3.30633333 18.844,3.479 L18.942,4.249 C19.25,3.90833333 19.5941667,3.633 19.9745,3.423 C20.3548333,3.213 20.7946667,3.108 21.294,3.108 C21.6813333,3.108 22.0231667,3.17216667 22.3195,3.3005 C22.6158333,3.42883333 22.8631667,3.61083333 23.0615,3.8465 C23.2598333,4.08216667 23.4103333,4.36566667 23.513,4.697 C23.6156667,5.02833333 23.667,5.39466667 23.667,5.796 L23.667,10.311 L22.421,10.311 L22.421,5.796 C22.421,5.25933333 22.2985,4.84283333 22.0535,4.5465 C21.8085,4.25016667 21.434,4.102 20.93,4.102 C20.5613333,4.102 20.2171667,4.19066667 19.8975,4.368 C19.5778333,4.54533333 19.2826667,4.78566667 19.012,5.089 L19.012,10.311 L17.766,10.311 Z" id="n"></path>
            <path d="M29.61,4.389 C29.554,4.49166667 29.4676667,4.543 29.351,4.543 C29.281,4.543 29.2016667,4.51733333 29.113,4.466 C29.0243333,4.41466667 28.9158333,4.3575 28.7875,4.2945 C28.6591667,4.2315 28.5063333,4.17316667 28.329,4.1195 C28.1516667,4.06583333 27.9416667,4.039 27.699,4.039 C27.489,4.039 27.3,4.06583333 27.132,4.1195 C26.964,4.17316667 26.8205,4.24666667 26.7015,4.34 C26.5825,4.43333333 26.4915,4.54183333 26.4285,4.6655 C26.3655,4.78916667 26.334,4.92333333 26.334,5.068 C26.334,5.25 26.3865,5.40166667 26.4915,5.523 C26.5965,5.64433333 26.7353333,5.74933333 26.908,5.838 C27.0806667,5.92666667 27.2766667,6.00483333 27.496,6.0725 C27.7153333,6.14016667 27.9405,6.2125 28.1715,6.2895 C28.4025,6.3665 28.6276667,6.45166667 28.847,6.545 C29.0663333,6.63833333 29.2623333,6.755 29.435,6.895 C29.6076667,7.035 29.7465,7.2065 29.8515,7.4095 C29.9565,7.6125 30.009,7.85633333 30.009,8.141 C30.009,8.46766667 29.9506667,8.76983333 29.834,9.0475 C29.7173333,9.32516667 29.5446667,9.5655 29.316,9.7685 C29.0873333,9.9715 28.8073333,10.1313333 28.476,10.248 C28.1446667,10.3646667 27.762,10.423 27.328,10.423 C26.8333333,10.423 26.3853333,10.3425 25.984,10.1815 C25.5826667,10.0205 25.242,9.814 24.962,9.562 L25.256,9.086 C25.2933333,9.02533333 25.3376667,8.97866667 25.389,8.946 C25.4403333,8.91333333 25.508,8.897 25.592,8.897 C25.676,8.897 25.7646667,8.92966667 25.858,8.995 C25.9513333,9.06033333 26.0645,9.13266667 26.1975,9.212 C26.3305,9.29133333 26.4915,9.36366667 26.6805,9.429 C26.8695,9.49433333 27.1063333,9.527 27.391,9.527 C27.6336667,9.527 27.846,9.4955 28.028,9.4325 C28.21,9.3695 28.3616667,9.28433333 28.483,9.177 C28.6043333,9.06966667 28.6941667,8.946 28.7525,8.806 C28.8108333,8.666 28.84,8.51666667 28.84,8.358 C28.84,8.162 28.7875,7.99983333 28.6825,7.8715 C28.5775,7.74316667 28.4386667,7.6335 28.266,7.5425 C28.0933333,7.4515 27.8961667,7.37216667 27.6745,7.3045 C27.4528333,7.23683333 27.2265,7.16566667 26.9955,7.091 C26.7645,7.01633333 26.5381667,6.93116667 26.3165,6.8355 C26.0948333,6.73983333 25.8976667,6.61966667 25.725,6.475 C25.5523333,6.33033333 25.4135,6.15183333 25.3085,5.9395 C25.2035,5.72716667 25.151,5.46933333 25.151,5.166 C25.151,4.89533333 25.207,4.63516667 25.319,4.3855 C25.431,4.13583333 25.5943333,3.9165 25.809,3.7275 C26.0236667,3.5385 26.2873333,3.388 26.6,3.276 C26.9126667,3.164 27.2696667,3.108 27.671,3.108 C28.1376667,3.108 28.5565,3.1815 28.9275,3.3285 C29.2985,3.4755 29.6193333,3.67733333 29.89,3.934 L29.61,4.389 Z" id="s"></path>
            <path d="M33.012,3.22 L33.012,10.311 L31.766,10.311 L31.766,3.22 L33.012,3.22 Z M33.292,0.994 C33.292,1.11533333 33.2675,1.2285 33.2185,1.3335 C33.1695,1.4385 33.1041667,1.53183333 33.0225,1.6135 C32.9408333,1.69516667 32.8463333,1.75933333 32.739,1.806 C32.6316667,1.85266667 32.5173333,1.876 32.396,1.876 C32.2746667,1.876 32.1615,1.85266667 32.0565,1.806 C31.9515,1.75933333 31.8581667,1.69516667 31.7765,1.6135 C31.6948333,1.53183333 31.6306667,1.4385 31.584,1.3335 C31.5373333,1.2285 31.514,1.11533333 31.514,0.994 C31.514,0.872666667 31.5373333,0.757166667 31.584,0.6475 C31.6306667,0.537833333 31.6948333,0.442166667 31.7765,0.3605 C31.8581667,0.278833333 31.9515,0.214666667 32.0565,0.168 C32.1615,0.121333333 32.2746667,0.098 32.396,0.098 C32.5173333,0.098 32.6316667,0.121333333 32.739,0.168 C32.8463333,0.214666667 32.9408333,0.278833333 33.0225,0.3605 C33.1041667,0.442166667 33.1695,0.537833333 33.2185,0.6475 C33.2675,0.757166667 33.292,0.872666667 33.292,0.994 Z" id="i"></path>
            <path d="M39.27,4.389 C39.214,4.49166667 39.1276667,4.543 39.011,4.543 C38.941,4.543 38.8616667,4.51733333 38.773,4.466 C38.6843333,4.41466667 38.5758333,4.3575 38.4475,4.2945 C38.3191667,4.2315 38.1663333,4.17316667 37.989,4.1195 C37.8116667,4.06583333 37.6016667,4.039 37.359,4.039 C37.149,4.039 36.96,4.06583333 36.792,4.1195 C36.624,4.17316667 36.4805,4.24666667 36.3615,4.34 C36.2425,4.43333333 36.1515,4.54183333 36.0885,4.6655 C36.0255,4.78916667 35.994,4.92333333 35.994,5.068 C35.994,5.25 36.0465,5.40166667 36.1515,5.523 C36.2565,5.64433333 36.3953333,5.74933333 36.568,5.838 C36.7406667,5.92666667 36.9366667,6.00483333 37.156,6.0725 C37.3753333,6.14016667 37.6005,6.2125 37.8315,6.2895 C38.0625,6.3665 38.2876667,6.45166667 38.507,6.545 C38.7263333,6.63833333 38.9223333,6.755 39.095,6.895 C39.2676667,7.035 39.4065,7.2065 39.5115,7.4095 C39.6165,7.6125 39.669,7.85633333 39.669,8.141 C39.669,8.46766667 39.6106667,8.76983333 39.494,9.0475 C39.3773333,9.32516667 39.2046667,9.5655 38.976,9.7685 C38.7473333,9.9715 38.4673333,10.1313333 38.136,10.248 C37.8046667,10.3646667 37.422,10.423 36.988,10.423 C36.4933333,10.423 36.0453333,10.3425 35.644,10.1815 C35.2426667,10.0205 34.902,9.814 34.622,9.562 L34.916,9.086 C34.9533333,9.02533333 34.9976667,8.97866667 35.049,8.946 C35.1003333,8.91333333 35.168,8.897 35.252,8.897 C35.336,8.897 35.4246667,8.92966667 35.518,8.995 C35.6113333,9.06033333 35.7245,9.13266667 35.8575,9.212 C35.9905,9.29133333 36.1515,9.36366667 36.3405,9.429 C36.5295,9.49433333 36.7663333,9.527 37.051,9.527 C37.2936667,9.527 37.506,9.4955 37.688,9.4325 C37.87,9.3695 38.0216667,9.28433333 38.143,9.177 C38.2643333,9.06966667 38.3541667,8.946 38.4125,8.806 C38.4708333,8.666 38.5,8.51666667 38.5,8.358 C38.5,8.162 38.4475,7.99983333 38.3425,7.8715 C38.2375,7.74316667 38.0986667,7.6335 37.926,7.5425 C37.7533333,7.4515 37.5561667,7.37216667 37.3345,7.3045 C37.1128333,7.23683333 36.8865,7.16566667 36.6555,7.091 C36.4245,7.01633333 36.1981667,6.93116667 35.9765,6.8355 C35.7548333,6.73983333 35.5576667,6.61966667 35.385,6.475 C35.2123333,6.33033333 35.0735,6.15183333 34.9685,5.9395 C34.8635,5.72716667 34.811,5.46933333 34.811,5.166 C34.811,4.89533333 34.867,4.63516667 34.979,4.3855 C35.091,4.13583333 35.2543333,3.9165 35.469,3.7275 C35.6836667,3.5385 35.9473333,3.388 36.26,3.276 C36.5726667,3.164 36.9296667,3.108 37.331,3.108 C37.7976667,3.108 38.2165,3.1815 38.5875,3.3285 C38.9585,3.4755 39.2793333,3.67733333 39.55,3.934 L39.27,4.389 Z" id="s"></path>
            <path d="M43.435,10.423 C42.875,10.423 42.4445,10.2666667 42.1435,9.954 C41.8425,9.64133333 41.692,9.191 41.692,8.603 L41.692,4.263 L40.838,4.263 C40.7633333,4.263 40.7003333,4.24083333 40.649,4.1965 C40.5976667,4.15216667 40.572,4.08333333 40.572,3.99 L40.572,3.493 L41.734,3.346 L42.021,1.155 C42.0303333,1.085 42.0606667,1.02783333 42.112,0.9835 C42.1633333,0.939166667 42.2286667,0.917 42.308,0.917 L42.938,0.917 L42.938,3.36 L44.968,3.36 L44.968,4.263 L42.938,4.263 L42.938,8.519 C42.938,8.81766667 43.0103333,9.03933333 43.155,9.184 C43.2996667,9.32866667 43.4863333,9.401 43.715,9.401 C43.8456667,9.401 43.9588333,9.3835 44.0545,9.3485 C44.1501667,9.3135 44.233,9.275 44.303,9.233 C44.373,9.191 44.4325,9.1525 44.4815,9.1175 C44.5305,9.0825 44.5736667,9.065 44.611,9.065 C44.6763333,9.065 44.7346667,9.10466667 44.786,9.184 L45.15,9.779 C44.9353333,9.97966667 44.6763333,10.1371667 44.373,10.2515 C44.0696667,10.3658333 43.757,10.423 43.435,10.423 Z" id="t"></path>
            <path d="M49.315,3.108 C49.7396667,3.108 50.1316667,3.17916667 50.491,3.3215 C50.8503333,3.46383333 51.1606667,3.66916667 51.422,3.9375 C51.6833333,4.20583333 51.8875,4.53716667 52.0345,4.9315 C52.1815,5.32583333 52.255,5.775 52.255,6.279 C52.255,6.475 52.234,6.60566667 52.192,6.671 C52.15,6.73633333 52.0706667,6.769 51.954,6.769 L47.236,6.769 C47.2453333,7.217 47.306,7.60666667 47.418,7.938 C47.53,8.26933333 47.684,8.54583333 47.88,8.7675 C48.076,8.98916667 48.3093333,9.15483333 48.58,9.2645 C48.8506667,9.37416667 49.154,9.429 49.49,9.429 C49.8026667,9.429 50.0721667,9.39283333 50.2985,9.3205 C50.5248333,9.24816667 50.7196667,9.17 50.883,9.086 C51.0463333,9.002 51.1828333,8.92383333 51.2925,8.8515 C51.4021667,8.77916667 51.4966667,8.743 51.576,8.743 C51.6786667,8.743 51.758,8.78266667 51.814,8.862 L52.164,9.317 C52.01,9.50366667 51.8256667,9.66583333 51.611,9.8035 C51.3963333,9.94116667 51.1665,10.0543333 50.9215,10.143 C50.6765,10.2316667 50.4233333,10.2981667 50.162,10.3425 C49.9006667,10.3868333 49.6416667,10.409 49.385,10.409 C48.895,10.409 48.4435,10.3261667 48.0305,10.1605 C47.6175,9.99483333 47.2605,9.75216667 46.9595,9.4325 C46.6585,9.11283333 46.424,8.71733333 46.256,8.246 C46.088,7.77466667 46.004,7.23333333 46.004,6.622 C46.004,6.12733333 46.0798333,5.66533333 46.2315,5.236 C46.3831667,4.80666667 46.6013333,4.4345 46.886,4.1195 C47.1706667,3.8045 47.5183333,3.55716667 47.929,3.3775 C48.3396667,3.19783333 48.8016667,3.108 49.315,3.108 Z M49.343,4.025 C48.741,4.025 48.2673333,4.19883333 47.922,4.5465 C47.5766667,4.89416667 47.362,5.376 47.278,5.992 L51.135,5.992 C51.135,5.70266667 51.0953333,5.43783333 51.016,5.1975 C50.9366667,4.95716667 50.82,4.7495 50.666,4.5745 C50.512,4.3995 50.3241667,4.26416667 50.1025,4.1685 C49.8808333,4.07283333 49.6276667,4.025 49.343,4.025 Z" id="e"></path>
            <path d="M53.844,10.311 L53.844,3.22 L54.586,3.22 C54.7633333,3.22 54.8753333,3.30633333 54.922,3.479 L55.02,4.249 C55.328,3.90833333 55.6721667,3.633 56.0525,3.423 C56.4328333,3.213 56.8726667,3.108 57.372,3.108 C57.7593333,3.108 58.1011667,3.17216667 58.3975,3.3005 C58.6938333,3.42883333 58.9411667,3.61083333 59.1395,3.8465 C59.3378333,4.08216667 59.4883333,4.36566667 59.591,4.697 C59.6936667,5.02833333 59.745,5.39466667 59.745,5.796 L59.745,10.311 L58.499,10.311 L58.499,5.796 C58.499,5.25933333 58.3765,4.84283333 58.1315,4.5465 C57.8865,4.25016667 57.512,4.102 57.008,4.102 C56.6393333,4.102 56.2951667,4.19066667 55.9755,4.368 C55.6558333,4.54533333 55.3606667,4.78566667 55.09,5.089 L55.09,10.311 L53.844,10.311 Z" id="n"></path>
            <path d="M63.777,10.423 C63.217,10.423 62.7865,10.2666667 62.4855,9.954 C62.1845,9.64133333 62.034,9.191 62.034,8.603 L62.034,4.263 L61.18,4.263 C61.1053333,4.263 61.0423333,4.24083333 60.991,4.1965 C60.9396667,4.15216667 60.914,4.08333333 60.914,3.99 L60.914,3.493 L62.076,3.346 L62.363,1.155 C62.3723333,1.085 62.4026667,1.02783333 62.454,0.9835 C62.5053333,0.939166667 62.5706667,0.917 62.65,0.917 L63.28,0.917 L63.28,3.36 L65.31,3.36 L65.31,4.263 L63.28,4.263 L63.28,8.519 C63.28,8.81766667 63.3523333,9.03933333 63.497,9.184 C63.6416667,9.32866667 63.8283333,9.401 64.057,9.401 C64.1876667,9.401 64.3008333,9.3835 64.3965,9.3485 C64.4921667,9.3135 64.575,9.275 64.645,9.233 C64.715,9.191 64.7745,9.1525 64.8235,9.1175 C64.8725,9.0825 64.9156667,9.065 64.953,9.065 C65.0183333,9.065 65.0766667,9.10466667 65.128,9.184 L65.492,9.779 C65.2773333,9.97966667 65.0183333,10.1371667 64.715,10.2515 C64.4116667,10.3658333 64.099,10.423 63.777,10.423 Z" id="t"></path>
            <polygon id="l" points="68.236 0 68.236 10.311 66.99 10.311 66.99 0"></polygon>
            <path d="M72.513,12.404 C72.471,12.4973333 72.4185,12.572 72.3555,12.628 C72.2925,12.684 72.1956667,12.712 72.065,12.712 L71.141,12.712 L72.436,9.898 L69.51,3.22 L70.588,3.22 C70.6953333,3.22 70.7793333,3.24683333 70.84,3.3005 C70.9006667,3.35416667 70.945,3.41366667 70.973,3.479 L72.87,7.945 C72.912,8.04766667 72.9481667,8.15033333 72.9785,8.253 C73.0088333,8.35566667 73.0356667,8.46066667 73.059,8.568 C73.0916667,8.46066667 73.1243333,8.35566667 73.157,8.253 C73.1896667,8.15033333 73.227,8.04533333 73.269,7.938 L75.11,3.479 C75.138,3.40433333 75.1858333,3.3425 75.2535,3.2935 C75.3211667,3.2445 75.3946667,3.22 75.474,3.22 L76.468,3.22 L72.513,12.404 Z" id="y"></path>
            <polygon id="L" points="1.946 26.17 6.286 26.17 6.286 27.311 0.588 27.311 0.588 17.28 1.946 17.28"></polygon>
            <path d="M8.974,20.22 L8.974,27.311 L7.728,27.311 L7.728,20.22 L8.974,20.22 Z M9.254,17.994 C9.254,18.1153333 9.2295,18.2285 9.1805,18.3335 C9.1315,18.4385 9.06616667,18.5318333 8.9845,18.6135 C8.90283333,18.6951667 8.80833333,18.7593333 8.701,18.806 C8.59366667,18.8526667 8.47933333,18.876 8.358,18.876 C8.23666667,18.876 8.1235,18.8526667 8.0185,18.806 C7.9135,18.7593333 7.82016667,18.6951667 7.7385,18.6135 C7.65683333,18.5318333 7.59266667,18.4385 7.546,18.3335 C7.49933333,18.2285 7.476,18.1153333 7.476,17.994 C7.476,17.8726667 7.49933333,17.7571667 7.546,17.6475 C7.59266667,17.5378333 7.65683333,17.4421667 7.7385,17.3605 C7.82016667,17.2788333 7.9135,17.2146667 8.0185,17.168 C8.1235,17.1213333 8.23666667,17.098 8.358,17.098 C8.47933333,17.098 8.59366667,17.1213333 8.701,17.168 C8.80833333,17.2146667 8.90283333,17.2788333 8.9845,17.3605 C9.06616667,17.4421667 9.1315,17.5378333 9.1805,17.6475 C9.2295,17.7571667 9.254,17.8726667 9.254,17.994 Z" id="i"></path>
            <path d="M11.214,27.311 L11.214,17 L12.467,17 L12.467,21.242 C12.761,20.9013333 13.0981667,20.6271667 13.4785,20.4195 C13.8588333,20.2118333 14.294,20.108 14.784,20.108 C15.1946667,20.108 15.5656667,20.185 15.897,20.339 C16.2283333,20.493 16.5106667,20.7228333 16.744,21.0285 C16.9773333,21.3341667 17.157,21.7121667 17.283,22.1625 C17.409,22.6128333 17.472,23.132 17.472,23.72 C17.472,24.2426667 17.402,24.7291667 17.262,25.1795 C17.122,25.6298333 16.9201667,26.0195 16.6565,26.3485 C16.3928333,26.6775 16.0708333,26.9365 15.6905,27.1255 C15.3101667,27.3145 14.882,27.409 14.406,27.409 C13.9486667,27.409 13.5601667,27.3203333 13.2405,27.143 C12.9208333,26.9656667 12.642,26.7183333 12.404,26.401 L12.341,27.045 C12.3036667,27.2223333 12.1963333,27.311 12.019,27.311 L11.214,27.311 Z M14.378,21.102 C13.972,21.102 13.6161667,21.1953333 13.3105,21.382 C13.0048333,21.5686667 12.7236667,21.8323333 12.467,22.173 L12.467,25.603 C12.691,25.911 12.9395,26.128 13.2125,26.254 C13.4855,26.38 13.79,26.443 14.126,26.443 C14.7886667,26.443 15.2973333,26.2073333 15.652,25.736 C16.0066667,25.2646667 16.184,24.5926667 16.184,23.72 C16.184,23.258 16.1431667,22.8613333 16.0615,22.53 C15.9798333,22.1986667 15.862,21.9268333 15.708,21.7145 C15.554,21.5021667 15.365,21.347 15.141,21.249 C14.917,21.151 14.6626667,21.102 14.378,21.102 Z" id="b"></path>
            <path d="M21.805,20.108 C22.2296667,20.108 22.6216667,20.1791667 22.981,20.3215 C23.3403333,20.4638333 23.6506667,20.6691667 23.912,20.9375 C24.1733333,21.2058333 24.3775,21.5371667 24.5245,21.9315 C24.6715,22.3258333 24.745,22.775 24.745,23.279 C24.745,23.475 24.724,23.6056667 24.682,23.671 C24.64,23.7363333 24.5606667,23.769 24.444,23.769 L19.726,23.769 C19.7353333,24.217 19.796,24.6066667 19.908,24.938 C20.02,25.2693333 20.174,25.5458333 20.37,25.7675 C20.566,25.9891667 20.7993333,26.1548333 21.07,26.2645 C21.3406667,26.3741667 21.644,26.429 21.98,26.429 C22.2926667,26.429 22.5621667,26.3928333 22.7885,26.3205 C23.0148333,26.2481667 23.2096667,26.17 23.373,26.086 C23.5363333,26.002 23.6728333,25.9238333 23.7825,25.8515 C23.8921667,25.7791667 23.9866667,25.743 24.066,25.743 C24.1686667,25.743 24.248,25.7826667 24.304,25.862 L24.654,26.317 C24.5,26.5036667 24.3156667,26.6658333 24.101,26.8035 C23.8863333,26.9411667 23.6565,27.0543333 23.4115,27.143 C23.1665,27.2316667 22.9133333,27.2981667 22.652,27.3425 C22.3906667,27.3868333 22.1316667,27.409 21.875,27.409 C21.385,27.409 20.9335,27.3261667 20.5205,27.1605 C20.1075,26.9948333 19.7505,26.7521667 19.4495,26.4325 C19.1485,26.1128333 18.914,25.7173333 18.746,25.246 C18.578,24.7746667 18.494,24.2333333 18.494,23.622 C18.494,23.1273333 18.5698333,22.6653333 18.7215,22.236 C18.8731667,21.8066667 19.0913333,21.4345 19.376,21.1195 C19.6606667,20.8045 20.0083333,20.5571667 20.419,20.3775 C20.8296667,20.1978333 21.2916667,20.108 21.805,20.108 Z M21.833,21.025 C21.231,21.025 20.7573333,21.1988333 20.412,21.5465 C20.0666667,21.8941667 19.852,22.376 19.768,22.992 L23.625,22.992 C23.625,22.7026667 23.5853333,22.4378333 23.506,22.1975 C23.4266667,21.9571667 23.31,21.7495 23.156,21.5745 C23.002,21.3995 22.8141667,21.2641667 22.5925,21.1685 C22.3708333,21.0728333 22.1176667,21.025 21.833,21.025 Z" id="e"></path>
            <path d="M26.334,27.311 L26.334,20.22 L27.048,20.22 C27.1833333,20.22 27.2766667,20.2456667 27.328,20.297 C27.3793333,20.3483333 27.4143333,20.437 27.433,20.563 L27.517,21.669 C27.7596667,21.1743333 28.0595,20.7881667 28.4165,20.5105 C28.7735,20.2328333 29.1923333,20.094 29.673,20.094 C29.869,20.094 30.0463333,20.1161667 30.205,20.1605 C30.3636667,20.2048333 30.5106667,20.2666667 30.646,20.346 L30.485,21.277 C30.4523333,21.3936667 30.38,21.452 30.268,21.452 C30.2026667,21.452 30.1023333,21.4298333 29.967,21.3855 C29.8316667,21.3411667 29.6426667,21.319 29.4,21.319 C28.966,21.319 28.6031667,21.445 28.3115,21.697 C28.0198333,21.949 27.776,22.3153333 27.58,22.796 L27.58,27.311 L26.334,27.311 Z" id="r"></path>
            <path d="M36.918,27.311 L36.365,27.311 C36.2436667,27.311 36.1456667,27.2923333 36.071,27.255 C35.9963333,27.2176667 35.9473333,27.1383333 35.924,27.017 L35.784,26.359 C35.5973333,26.527 35.4153333,26.6775 35.238,26.8105 C35.0606667,26.9435 34.874,27.0555 34.678,27.1465 C34.482,27.2375 34.2731667,27.3063333 34.0515,27.353 C33.8298333,27.3996667 33.5836667,27.423 33.313,27.423 C33.0376667,27.423 32.7798333,27.3845 32.5395,27.3075 C32.2991667,27.2305 32.0903333,27.115 31.913,26.961 C31.7356667,26.807 31.5945,26.6121667 31.4895,26.3765 C31.3845,26.1408333 31.332,25.862 31.332,25.54 C31.332,25.26 31.409,24.9905 31.563,24.7315 C31.717,24.4725 31.9655,24.2426667 32.3085,24.042 C32.6515,23.8413333 33.1006667,23.6768333 33.656,23.5485 C34.2113333,23.4201667 34.8903333,23.3466667 35.693,23.328 L35.693,22.775 C35.693,22.2243333 35.5751667,21.8078333 35.3395,21.5255 C35.1038333,21.2431667 34.755,21.102 34.293,21.102 C33.9896667,21.102 33.7341667,21.1405 33.5265,21.2175 C33.3188333,21.2945 33.1391667,21.3808333 32.9875,21.4765 C32.8358333,21.5721667 32.7051667,21.6585 32.5955,21.7355 C32.4858333,21.8125 32.3773333,21.851 32.27,21.851 C32.186,21.851 32.1125,21.8288333 32.0495,21.7845 C31.9865,21.7401667 31.9363333,21.6853333 31.899,21.62 L31.675,21.221 C32.067,20.843 32.4893333,20.5606667 32.942,20.374 C33.3946667,20.1873333 33.8963333,20.094 34.447,20.094 C34.8436667,20.094 35.196,20.1593333 35.504,20.29 C35.812,20.4206667 36.071,20.6026667 36.281,20.836 C36.491,21.0693333 36.6496667,21.3516667 36.757,21.683 C36.8643333,22.0143333 36.918,22.3783333 36.918,22.775 L36.918,27.311 Z M33.684,26.548 C33.9033333,26.548 34.104,26.5258333 34.286,26.4815 C34.468,26.4371667 34.6395,26.3741667 34.8005,26.2925 C34.9615,26.2108333 35.1155,26.1116667 35.2625,25.995 C35.4095,25.8783333 35.553,25.7453333 35.693,25.596 L35.693,24.119 C35.119,24.1376667 34.6313333,24.1831667 34.23,24.2555 C33.8286667,24.3278333 33.502,24.4223333 33.25,24.539 C32.998,24.6556667 32.8148333,24.7933333 32.7005,24.952 C32.5861667,25.1106667 32.529,25.288 32.529,25.484 C32.529,25.6706667 32.5593333,25.8316667 32.62,25.967 C32.6806667,26.1023333 32.7623333,26.2131667 32.865,26.2995 C32.9676667,26.3858333 33.089,26.4488333 33.229,26.4885 C33.369,26.5281667 33.5206667,26.548 33.684,26.548 Z" id="a"></path>
            <polygon id="l" points="40.194 17 40.194 27.311 38.948 27.311 38.948 17"></polygon>
        </g>
        <g id="Consistently-Conserv" transform="translate(209.024000, 390.689000)" fill="#03161F" fill-rule="nonzero">
            <path d="M12.054,8.239 C12.1286667,8.239 12.1963333,8.26933333 12.257,8.33 L12.789,8.911 C12.3783333,9.387 11.8801667,9.758 11.2945,10.024 C10.7088333,10.29 10.003,10.423 9.177,10.423 C8.45366667,10.423 7.798,10.2981667 7.21,10.0485 C6.622,9.79883333 6.12033333,9.44883333 5.705,8.9985 C5.28966667,8.54816667 4.96766667,8.008 4.739,7.378 C4.51033333,6.748 4.396,6.055 4.396,5.299 C4.396,4.543 4.5185,3.85 4.7635,3.22 C5.0085,2.59 5.35266667,2.04866667 5.796,1.596 C6.23933333,1.14333333 6.77016667,0.792166667 7.3885,0.5425 C8.00683333,0.292833333 8.68933333,0.168 9.436,0.168 C10.1733333,0.168 10.8091667,0.282333333 11.3435,0.511 C11.8778333,0.739666667 12.3526667,1.05 12.768,1.442 L12.327,2.065 C12.2943333,2.11166667 12.257,2.15016667 12.215,2.1805 C12.173,2.21083333 12.1123333,2.226 12.033,2.226 C11.9723333,2.226 11.9081667,2.20383333 11.8405,2.1595 C11.7728333,2.11516667 11.6923333,2.06033333 11.599,1.995 C11.5056667,1.92966667 11.396,1.85966667 11.27,1.785 C11.144,1.71033333 10.9946667,1.64033333 10.822,1.575 C10.6493333,1.50966667 10.4486667,1.45483333 10.22,1.4105 C9.99133333,1.36616667 9.72766667,1.344 9.429,1.344 C8.89233333,1.344 8.40116667,1.43616667 7.9555,1.6205 C7.50983333,1.80483333 7.126,2.06733333 6.804,2.408 C6.482,2.74866667 6.23116667,3.164 6.0515,3.654 C5.87183333,4.144 5.782,4.69233333 5.782,5.299 C5.782,5.92433333 5.87183333,6.482 6.0515,6.972 C6.23116667,7.462 6.47616667,7.87616667 6.7865,8.2145 C7.09683333,8.55283333 7.46433333,8.81066667 7.889,8.988 C8.31366667,9.16533333 8.771,9.254 9.261,9.254 C9.55966667,9.254 9.828,9.2365 10.066,9.2015 C10.304,9.1665 10.5245,9.11166667 10.7275,9.037 C10.9305,8.96233333 11.1195,8.86783333 11.2945,8.7535 C11.4695,8.63916667 11.6456667,8.50266667 11.823,8.344 C11.9023333,8.274 11.9793333,8.239 12.054,8.239 Z" id="C"></path>
            <path d="M17.248,3.108 C17.766,3.108 18.2338333,3.19433333 18.6515,3.367 C19.0691667,3.53966667 19.4238333,3.78466667 19.7155,4.102 C20.0071667,4.41933333 20.2311667,4.80316667 20.3875,5.2535 C20.5438333,5.70383333 20.622,6.20666667 20.622,6.762 C20.622,7.322 20.5438333,7.826 20.3875,8.274 C20.2311667,8.722 20.0071667,9.10466667 19.7155,9.422 C19.4238333,9.73933333 19.0691667,9.98316667 18.6515,10.1535 C18.2338333,10.3238333 17.766,10.409 17.248,10.409 C16.73,10.409 16.2621667,10.3238333 15.8445,10.1535 C15.4268333,9.98316667 15.071,9.73933333 14.777,9.422 C14.483,9.10466667 14.2566667,8.722 14.098,8.274 C13.9393333,7.826 13.86,7.322 13.86,6.762 C13.86,6.20666667 13.9393333,5.70383333 14.098,5.2535 C14.2566667,4.80316667 14.483,4.41933333 14.777,4.102 C15.071,3.78466667 15.4268333,3.53966667 15.8445,3.367 C16.2621667,3.19433333 16.73,3.108 17.248,3.108 Z M17.248,9.436 C17.948,9.436 18.4706667,9.2015 18.816,8.7325 C19.1613333,8.2635 19.334,7.609 19.334,6.769 C19.334,5.92433333 19.1613333,5.26633333 18.816,4.795 C18.4706667,4.32366667 17.948,4.088 17.248,4.088 C16.8933333,4.088 16.5853333,4.14866667 16.324,4.27 C16.0626667,4.39133333 15.8445,4.56633333 15.6695,4.795 C15.4945,5.02366667 15.3638333,5.30483333 15.2775,5.6385 C15.1911667,5.97216667 15.148,6.349 15.148,6.769 C15.148,7.189 15.1911667,7.56466667 15.2775,7.896 C15.3638333,8.22733333 15.4945,8.50616667 15.6695,8.7325 C15.8445,8.95883333 16.0626667,9.13266667 16.324,9.254 C16.5853333,9.37533333 16.8933333,9.436 17.248,9.436 Z" id="o"></path>
            <path d="M22.162,10.311 L22.162,3.22 L22.904,3.22 C23.0813333,3.22 23.1933333,3.30633333 23.24,3.479 L23.338,4.249 C23.646,3.90833333 23.9901667,3.633 24.3705,3.423 C24.7508333,3.213 25.1906667,3.108 25.69,3.108 C26.0773333,3.108 26.4191667,3.17216667 26.7155,3.3005 C27.0118333,3.42883333 27.2591667,3.61083333 27.4575,3.8465 C27.6558333,4.08216667 27.8063333,4.36566667 27.909,4.697 C28.0116667,5.02833333 28.063,5.39466667 28.063,5.796 L28.063,10.311 L26.817,10.311 L26.817,5.796 C26.817,5.25933333 26.6945,4.84283333 26.4495,4.5465 C26.2045,4.25016667 25.83,4.102 25.326,4.102 C24.9573333,4.102 24.6131667,4.19066667 24.2935,4.368 C23.9738333,4.54533333 23.6786667,4.78566667 23.408,5.089 L23.408,10.311 L22.162,10.311 Z" id="n"></path>
            <path d="M34.006,4.389 C33.95,4.49166667 33.8636667,4.543 33.747,4.543 C33.677,4.543 33.5976667,4.51733333 33.509,4.466 C33.4203333,4.41466667 33.3118333,4.3575 33.1835,4.2945 C33.0551667,4.2315 32.9023333,4.17316667 32.725,4.1195 C32.5476667,4.06583333 32.3376667,4.039 32.095,4.039 C31.885,4.039 31.696,4.06583333 31.528,4.1195 C31.36,4.17316667 31.2165,4.24666667 31.0975,4.34 C30.9785,4.43333333 30.8875,4.54183333 30.8245,4.6655 C30.7615,4.78916667 30.73,4.92333333 30.73,5.068 C30.73,5.25 30.7825,5.40166667 30.8875,5.523 C30.9925,5.64433333 31.1313333,5.74933333 31.304,5.838 C31.4766667,5.92666667 31.6726667,6.00483333 31.892,6.0725 C32.1113333,6.14016667 32.3365,6.2125 32.5675,6.2895 C32.7985,6.3665 33.0236667,6.45166667 33.243,6.545 C33.4623333,6.63833333 33.6583333,6.755 33.831,6.895 C34.0036667,7.035 34.1425,7.2065 34.2475,7.4095 C34.3525,7.6125 34.405,7.85633333 34.405,8.141 C34.405,8.46766667 34.3466667,8.76983333 34.23,9.0475 C34.1133333,9.32516667 33.9406667,9.5655 33.712,9.7685 C33.4833333,9.9715 33.2033333,10.1313333 32.872,10.248 C32.5406667,10.3646667 32.158,10.423 31.724,10.423 C31.2293333,10.423 30.7813333,10.3425 30.38,10.1815 C29.9786667,10.0205 29.638,9.814 29.358,9.562 L29.652,9.086 C29.6893333,9.02533333 29.7336667,8.97866667 29.785,8.946 C29.8363333,8.91333333 29.904,8.897 29.988,8.897 C30.072,8.897 30.1606667,8.92966667 30.254,8.995 C30.3473333,9.06033333 30.4605,9.13266667 30.5935,9.212 C30.7265,9.29133333 30.8875,9.36366667 31.0765,9.429 C31.2655,9.49433333 31.5023333,9.527 31.787,9.527 C32.0296667,9.527 32.242,9.4955 32.424,9.4325 C32.606,9.3695 32.7576667,9.28433333 32.879,9.177 C33.0003333,9.06966667 33.0901667,8.946 33.1485,8.806 C33.2068333,8.666 33.236,8.51666667 33.236,8.358 C33.236,8.162 33.1835,7.99983333 33.0785,7.8715 C32.9735,7.74316667 32.8346667,7.6335 32.662,7.5425 C32.4893333,7.4515 32.2921667,7.37216667 32.0705,7.3045 C31.8488333,7.23683333 31.6225,7.16566667 31.3915,7.091 C31.1605,7.01633333 30.9341667,6.93116667 30.7125,6.8355 C30.4908333,6.73983333 30.2936667,6.61966667 30.121,6.475 C29.9483333,6.33033333 29.8095,6.15183333 29.7045,5.9395 C29.5995,5.72716667 29.547,5.46933333 29.547,5.166 C29.547,4.89533333 29.603,4.63516667 29.715,4.3855 C29.827,4.13583333 29.9903333,3.9165 30.205,3.7275 C30.4196667,3.5385 30.6833333,3.388 30.996,3.276 C31.3086667,3.164 31.6656667,3.108 32.067,3.108 C32.5336667,3.108 32.9525,3.1815 33.3235,3.3285 C33.6945,3.4755 34.0153333,3.67733333 34.286,3.934 L34.006,4.389 Z" id="s"></path>
            <path d="M37.408,3.22 L37.408,10.311 L36.162,10.311 L36.162,3.22 L37.408,3.22 Z M37.688,0.994 C37.688,1.11533333 37.6635,1.2285 37.6145,1.3335 C37.5655,1.4385 37.5001667,1.53183333 37.4185,1.6135 C37.3368333,1.69516667 37.2423333,1.75933333 37.135,1.806 C37.0276667,1.85266667 36.9133333,1.876 36.792,1.876 C36.6706667,1.876 36.5575,1.85266667 36.4525,1.806 C36.3475,1.75933333 36.2541667,1.69516667 36.1725,1.6135 C36.0908333,1.53183333 36.0266667,1.4385 35.98,1.3335 C35.9333333,1.2285 35.91,1.11533333 35.91,0.994 C35.91,0.872666667 35.9333333,0.757166667 35.98,0.6475 C36.0266667,0.537833333 36.0908333,0.442166667 36.1725,0.3605 C36.2541667,0.278833333 36.3475,0.214666667 36.4525,0.168 C36.5575,0.121333333 36.6706667,0.098 36.792,0.098 C36.9133333,0.098 37.0276667,0.121333333 37.135,0.168 C37.2423333,0.214666667 37.3368333,0.278833333 37.4185,0.3605 C37.5001667,0.442166667 37.5655,0.537833333 37.6145,0.6475 C37.6635,0.757166667 37.688,0.872666667 37.688,0.994 Z" id="i"></path>
            <path d="M43.666,4.389 C43.61,4.49166667 43.5236667,4.543 43.407,4.543 C43.337,4.543 43.2576667,4.51733333 43.169,4.466 C43.0803333,4.41466667 42.9718333,4.3575 42.8435,4.2945 C42.7151667,4.2315 42.5623333,4.17316667 42.385,4.1195 C42.2076667,4.06583333 41.9976667,4.039 41.755,4.039 C41.545,4.039 41.356,4.06583333 41.188,4.1195 C41.02,4.17316667 40.8765,4.24666667 40.7575,4.34 C40.6385,4.43333333 40.5475,4.54183333 40.4845,4.6655 C40.4215,4.78916667 40.39,4.92333333 40.39,5.068 C40.39,5.25 40.4425,5.40166667 40.5475,5.523 C40.6525,5.64433333 40.7913333,5.74933333 40.964,5.838 C41.1366667,5.92666667 41.3326667,6.00483333 41.552,6.0725 C41.7713333,6.14016667 41.9965,6.2125 42.2275,6.2895 C42.4585,6.3665 42.6836667,6.45166667 42.903,6.545 C43.1223333,6.63833333 43.3183333,6.755 43.491,6.895 C43.6636667,7.035 43.8025,7.2065 43.9075,7.4095 C44.0125,7.6125 44.065,7.85633333 44.065,8.141 C44.065,8.46766667 44.0066667,8.76983333 43.89,9.0475 C43.7733333,9.32516667 43.6006667,9.5655 43.372,9.7685 C43.1433333,9.9715 42.8633333,10.1313333 42.532,10.248 C42.2006667,10.3646667 41.818,10.423 41.384,10.423 C40.8893333,10.423 40.4413333,10.3425 40.04,10.1815 C39.6386667,10.0205 39.298,9.814 39.018,9.562 L39.312,9.086 C39.3493333,9.02533333 39.3936667,8.97866667 39.445,8.946 C39.4963333,8.91333333 39.564,8.897 39.648,8.897 C39.732,8.897 39.8206667,8.92966667 39.914,8.995 C40.0073333,9.06033333 40.1205,9.13266667 40.2535,9.212 C40.3865,9.29133333 40.5475,9.36366667 40.7365,9.429 C40.9255,9.49433333 41.1623333,9.527 41.447,9.527 C41.6896667,9.527 41.902,9.4955 42.084,9.4325 C42.266,9.3695 42.4176667,9.28433333 42.539,9.177 C42.6603333,9.06966667 42.7501667,8.946 42.8085,8.806 C42.8668333,8.666 42.896,8.51666667 42.896,8.358 C42.896,8.162 42.8435,7.99983333 42.7385,7.8715 C42.6335,7.74316667 42.4946667,7.6335 42.322,7.5425 C42.1493333,7.4515 41.9521667,7.37216667 41.7305,7.3045 C41.5088333,7.23683333 41.2825,7.16566667 41.0515,7.091 C40.8205,7.01633333 40.5941667,6.93116667 40.3725,6.8355 C40.1508333,6.73983333 39.9536667,6.61966667 39.781,6.475 C39.6083333,6.33033333 39.4695,6.15183333 39.3645,5.9395 C39.2595,5.72716667 39.207,5.46933333 39.207,5.166 C39.207,4.89533333 39.263,4.63516667 39.375,4.3855 C39.487,4.13583333 39.6503333,3.9165 39.865,3.7275 C40.0796667,3.5385 40.3433333,3.388 40.656,3.276 C40.9686667,3.164 41.3256667,3.108 41.727,3.108 C42.1936667,3.108 42.6125,3.1815 42.9835,3.3285 C43.3545,3.4755 43.6753333,3.67733333 43.946,3.934 L43.666,4.389 Z" id="s"></path>
            <path d="M47.831,10.423 C47.271,10.423 46.8405,10.2666667 46.5395,9.954 C46.2385,9.64133333 46.088,9.191 46.088,8.603 L46.088,4.263 L45.234,4.263 C45.1593333,4.263 45.0963333,4.24083333 45.045,4.1965 C44.9936667,4.15216667 44.968,4.08333333 44.968,3.99 L44.968,3.493 L46.13,3.346 L46.417,1.155 C46.4263333,1.085 46.4566667,1.02783333 46.508,0.9835 C46.5593333,0.939166667 46.6246667,0.917 46.704,0.917 L47.334,0.917 L47.334,3.36 L49.364,3.36 L49.364,4.263 L47.334,4.263 L47.334,8.519 C47.334,8.81766667 47.4063333,9.03933333 47.551,9.184 C47.6956667,9.32866667 47.8823333,9.401 48.111,9.401 C48.2416667,9.401 48.3548333,9.3835 48.4505,9.3485 C48.5461667,9.3135 48.629,9.275 48.699,9.233 C48.769,9.191 48.8285,9.1525 48.8775,9.1175 C48.9265,9.0825 48.9696667,9.065 49.007,9.065 C49.0723333,9.065 49.1306667,9.10466667 49.182,9.184 L49.546,9.779 C49.3313333,9.97966667 49.0723333,10.1371667 48.769,10.2515 C48.4656667,10.3658333 48.153,10.423 47.831,10.423 Z" id="t"></path>
            <path d="M53.711,3.108 C54.1356667,3.108 54.5276667,3.17916667 54.887,3.3215 C55.2463333,3.46383333 55.5566667,3.66916667 55.818,3.9375 C56.0793333,4.20583333 56.2835,4.53716667 56.4305,4.9315 C56.5775,5.32583333 56.651,5.775 56.651,6.279 C56.651,6.475 56.63,6.60566667 56.588,6.671 C56.546,6.73633333 56.4666667,6.769 56.35,6.769 L51.632,6.769 C51.6413333,7.217 51.702,7.60666667 51.814,7.938 C51.926,8.26933333 52.08,8.54583333 52.276,8.7675 C52.472,8.98916667 52.7053333,9.15483333 52.976,9.2645 C53.2466667,9.37416667 53.55,9.429 53.886,9.429 C54.1986667,9.429 54.4681667,9.39283333 54.6945,9.3205 C54.9208333,9.24816667 55.1156667,9.17 55.279,9.086 C55.4423333,9.002 55.5788333,8.92383333 55.6885,8.8515 C55.7981667,8.77916667 55.8926667,8.743 55.972,8.743 C56.0746667,8.743 56.154,8.78266667 56.21,8.862 L56.56,9.317 C56.406,9.50366667 56.2216667,9.66583333 56.007,9.8035 C55.7923333,9.94116667 55.5625,10.0543333 55.3175,10.143 C55.0725,10.2316667 54.8193333,10.2981667 54.558,10.3425 C54.2966667,10.3868333 54.0376667,10.409 53.781,10.409 C53.291,10.409 52.8395,10.3261667 52.4265,10.1605 C52.0135,9.99483333 51.6565,9.75216667 51.3555,9.4325 C51.0545,9.11283333 50.82,8.71733333 50.652,8.246 C50.484,7.77466667 50.4,7.23333333 50.4,6.622 C50.4,6.12733333 50.4758333,5.66533333 50.6275,5.236 C50.7791667,4.80666667 50.9973333,4.4345 51.282,4.1195 C51.5666667,3.8045 51.9143333,3.55716667 52.325,3.3775 C52.7356667,3.19783333 53.1976667,3.108 53.711,3.108 Z M53.739,4.025 C53.137,4.025 52.6633333,4.19883333 52.318,4.5465 C51.9726667,4.89416667 51.758,5.376 51.674,5.992 L55.531,5.992 C55.531,5.70266667 55.4913333,5.43783333 55.412,5.1975 C55.3326667,4.95716667 55.216,4.7495 55.062,4.5745 C54.908,4.3995 54.7201667,4.26416667 54.4985,4.1685 C54.2768333,4.07283333 54.0236667,4.025 53.739,4.025 Z" id="e"></path>
            <path d="M58.24,10.311 L58.24,3.22 L58.982,3.22 C59.1593333,3.22 59.2713333,3.30633333 59.318,3.479 L59.416,4.249 C59.724,3.90833333 60.0681667,3.633 60.4485,3.423 C60.8288333,3.213 61.2686667,3.108 61.768,3.108 C62.1553333,3.108 62.4971667,3.17216667 62.7935,3.3005 C63.0898333,3.42883333 63.3371667,3.61083333 63.5355,3.8465 C63.7338333,4.08216667 63.8843333,4.36566667 63.987,4.697 C64.0896667,5.02833333 64.141,5.39466667 64.141,5.796 L64.141,10.311 L62.895,10.311 L62.895,5.796 C62.895,5.25933333 62.7725,4.84283333 62.5275,4.5465 C62.2825,4.25016667 61.908,4.102 61.404,4.102 C61.0353333,4.102 60.6911667,4.19066667 60.3715,4.368 C60.0518333,4.54533333 59.7566667,4.78566667 59.486,5.089 L59.486,10.311 L58.24,10.311 Z" id="n"></path>
            <path d="M68.173,10.423 C67.613,10.423 67.1825,10.2666667 66.8815,9.954 C66.5805,9.64133333 66.43,9.191 66.43,8.603 L66.43,4.263 L65.576,4.263 C65.5013333,4.263 65.4383333,4.24083333 65.387,4.1965 C65.3356667,4.15216667 65.31,4.08333333 65.31,3.99 L65.31,3.493 L66.472,3.346 L66.759,1.155 C66.7683333,1.085 66.7986667,1.02783333 66.85,0.9835 C66.9013333,0.939166667 66.9666667,0.917 67.046,0.917 L67.676,0.917 L67.676,3.36 L69.706,3.36 L69.706,4.263 L67.676,4.263 L67.676,8.519 C67.676,8.81766667 67.7483333,9.03933333 67.893,9.184 C68.0376667,9.32866667 68.2243333,9.401 68.453,9.401 C68.5836667,9.401 68.6968333,9.3835 68.7925,9.3485 C68.8881667,9.3135 68.971,9.275 69.041,9.233 C69.111,9.191 69.1705,9.1525 69.2195,9.1175 C69.2685,9.0825 69.3116667,9.065 69.349,9.065 C69.4143333,9.065 69.4726667,9.10466667 69.524,9.184 L69.888,9.779 C69.6733333,9.97966667 69.4143333,10.1371667 69.111,10.2515 C68.8076667,10.3658333 68.495,10.423 68.173,10.423 Z" id="t"></path>
            <polygon id="l" points="72.632 0 72.632 10.311 71.386 10.311 71.386 0"></polygon>
            <path d="M76.909,12.404 C76.867,12.4973333 76.8145,12.572 76.7515,12.628 C76.6885,12.684 76.5916667,12.712 76.461,12.712 L75.537,12.712 L76.832,9.898 L73.906,3.22 L74.984,3.22 C75.0913333,3.22 75.1753333,3.24683333 75.236,3.3005 C75.2966667,3.35416667 75.341,3.41366667 75.369,3.479 L77.266,7.945 C77.308,8.04766667 77.3441667,8.15033333 77.3745,8.253 C77.4048333,8.35566667 77.4316667,8.46066667 77.455,8.568 C77.4876667,8.46066667 77.5203333,8.35566667 77.553,8.253 C77.5856667,8.15033333 77.623,8.04533333 77.665,7.938 L79.506,3.479 C79.534,3.40433333 79.5818333,3.3425 79.6495,3.2935 C79.7171667,3.2445 79.7906667,3.22 79.87,3.22 L80.864,3.22 L76.909,12.404 Z" id="y"></path>
            <path d="M7.658,25.239 C7.73266667,25.239 7.80033333,25.2693333 7.861,25.33 L8.393,25.911 C7.98233333,26.387 7.48416667,26.758 6.8985,27.024 C6.31283333,27.29 5.607,27.423 4.781,27.423 C4.05766667,27.423 3.402,27.2981667 2.814,27.0485 C2.226,26.7988333 1.72433333,26.4488333 1.309,25.9985 C0.893666667,25.5481667 0.571666667,25.008 0.343,24.378 C0.114333333,23.748 0,23.055 0,22.299 C0,21.543 0.1225,20.85 0.3675,20.22 C0.6125,19.59 0.956666667,19.0486667 1.4,18.596 C1.84333333,18.1433333 2.37416667,17.7921667 2.9925,17.5425 C3.61083333,17.2928333 4.29333333,17.168 5.04,17.168 C5.77733333,17.168 6.41316667,17.2823333 6.9475,17.511 C7.48183333,17.7396667 7.95666667,18.05 8.372,18.442 L7.931,19.065 C7.89833333,19.1116667 7.861,19.1501667 7.819,19.1805 C7.777,19.2108333 7.71633333,19.226 7.637,19.226 C7.57633333,19.226 7.51216667,19.2038333 7.4445,19.1595 C7.37683333,19.1151667 7.29633333,19.0603333 7.203,18.995 C7.10966667,18.9296667 7,18.8596667 6.874,18.785 C6.748,18.7103333 6.59866667,18.6403333 6.426,18.575 C6.25333333,18.5096667 6.05266667,18.4548333 5.824,18.4105 C5.59533333,18.3661667 5.33166667,18.344 5.033,18.344 C4.49633333,18.344 4.00516667,18.4361667 3.5595,18.6205 C3.11383333,18.8048333 2.73,19.0673333 2.408,19.408 C2.086,19.7486667 1.83516667,20.164 1.6555,20.654 C1.47583333,21.144 1.386,21.6923333 1.386,22.299 C1.386,22.9243333 1.47583333,23.482 1.6555,23.972 C1.83516667,24.462 2.08016667,24.8761667 2.3905,25.2145 C2.70083333,25.5528333 3.06833333,25.8106667 3.493,25.988 C3.91766667,26.1653333 4.375,26.254 4.865,26.254 C5.16366667,26.254 5.432,26.2365 5.67,26.2015 C5.908,26.1665 6.1285,26.1116667 6.3315,26.037 C6.5345,25.9623333 6.7235,25.8678333 6.8985,25.7535 C7.0735,25.6391667 7.24966667,25.5026667 7.427,25.344 C7.50633333,25.274 7.58333333,25.239 7.658,25.239 Z" id="C"></path>
            <path d="M12.852,20.108 C13.37,20.108 13.8378333,20.1943333 14.2555,20.367 C14.6731667,20.5396667 15.0278333,20.7846667 15.3195,21.102 C15.6111667,21.4193333 15.8351667,21.8031667 15.9915,22.2535 C16.1478333,22.7038333 16.226,23.2066667 16.226,23.762 C16.226,24.322 16.1478333,24.826 15.9915,25.274 C15.8351667,25.722 15.6111667,26.1046667 15.3195,26.422 C15.0278333,26.7393333 14.6731667,26.9831667 14.2555,27.1535 C13.8378333,27.3238333 13.37,27.409 12.852,27.409 C12.334,27.409 11.8661667,27.3238333 11.4485,27.1535 C11.0308333,26.9831667 10.675,26.7393333 10.381,26.422 C10.087,26.1046667 9.86066667,25.722 9.702,25.274 C9.54333333,24.826 9.464,24.322 9.464,23.762 C9.464,23.2066667 9.54333333,22.7038333 9.702,22.2535 C9.86066667,21.8031667 10.087,21.4193333 10.381,21.102 C10.675,20.7846667 11.0308333,20.5396667 11.4485,20.367 C11.8661667,20.1943333 12.334,20.108 12.852,20.108 Z M12.852,26.436 C13.552,26.436 14.0746667,26.2015 14.42,25.7325 C14.7653333,25.2635 14.938,24.609 14.938,23.769 C14.938,22.9243333 14.7653333,22.2663333 14.42,21.795 C14.0746667,21.3236667 13.552,21.088 12.852,21.088 C12.4973333,21.088 12.1893333,21.1486667 11.928,21.27 C11.6666667,21.3913333 11.4485,21.5663333 11.2735,21.795 C11.0985,22.0236667 10.9678333,22.3048333 10.8815,22.6385 C10.7951667,22.9721667 10.752,23.349 10.752,23.769 C10.752,24.189 10.7951667,24.5646667 10.8815,24.896 C10.9678333,25.2273333 11.0985,25.5061667 11.2735,25.7325 C11.4485,25.9588333 11.6666667,26.1326667 11.928,26.254 C12.1893333,26.3753333 12.4973333,26.436 12.852,26.436 Z" id="o"></path>
            <path d="M17.766,27.311 L17.766,20.22 L18.508,20.22 C18.6853333,20.22 18.7973333,20.3063333 18.844,20.479 L18.942,21.249 C19.25,20.9083333 19.5941667,20.633 19.9745,20.423 C20.3548333,20.213 20.7946667,20.108 21.294,20.108 C21.6813333,20.108 22.0231667,20.1721667 22.3195,20.3005 C22.6158333,20.4288333 22.8631667,20.6108333 23.0615,20.8465 C23.2598333,21.0821667 23.4103333,21.3656667 23.513,21.697 C23.6156667,22.0283333 23.667,22.3946667 23.667,22.796 L23.667,27.311 L22.421,27.311 L22.421,22.796 C22.421,22.2593333 22.2985,21.8428333 22.0535,21.5465 C21.8085,21.2501667 21.434,21.102 20.93,21.102 C20.5613333,21.102 20.2171667,21.1906667 19.8975,21.368 C19.5778333,21.5453333 19.2826667,21.7856667 19.012,22.089 L19.012,27.311 L17.766,27.311 Z" id="n"></path>
            <path d="M29.61,21.389 C29.554,21.4916667 29.4676667,21.543 29.351,21.543 C29.281,21.543 29.2016667,21.5173333 29.113,21.466 C29.0243333,21.4146667 28.9158333,21.3575 28.7875,21.2945 C28.6591667,21.2315 28.5063333,21.1731667 28.329,21.1195 C28.1516667,21.0658333 27.9416667,21.039 27.699,21.039 C27.489,21.039 27.3,21.0658333 27.132,21.1195 C26.964,21.1731667 26.8205,21.2466667 26.7015,21.34 C26.5825,21.4333333 26.4915,21.5418333 26.4285,21.6655 C26.3655,21.7891667 26.334,21.9233333 26.334,22.068 C26.334,22.25 26.3865,22.4016667 26.4915,22.523 C26.5965,22.6443333 26.7353333,22.7493333 26.908,22.838 C27.0806667,22.9266667 27.2766667,23.0048333 27.496,23.0725 C27.7153333,23.1401667 27.9405,23.2125 28.1715,23.2895 C28.4025,23.3665 28.6276667,23.4516667 28.847,23.545 C29.0663333,23.6383333 29.2623333,23.755 29.435,23.895 C29.6076667,24.035 29.7465,24.2065 29.8515,24.4095 C29.9565,24.6125 30.009,24.8563333 30.009,25.141 C30.009,25.4676667 29.9506667,25.7698333 29.834,26.0475 C29.7173333,26.3251667 29.5446667,26.5655 29.316,26.7685 C29.0873333,26.9715 28.8073333,27.1313333 28.476,27.248 C28.1446667,27.3646667 27.762,27.423 27.328,27.423 C26.8333333,27.423 26.3853333,27.3425 25.984,27.1815 C25.5826667,27.0205 25.242,26.814 24.962,26.562 L25.256,26.086 C25.2933333,26.0253333 25.3376667,25.9786667 25.389,25.946 C25.4403333,25.9133333 25.508,25.897 25.592,25.897 C25.676,25.897 25.7646667,25.9296667 25.858,25.995 C25.9513333,26.0603333 26.0645,26.1326667 26.1975,26.212 C26.3305,26.2913333 26.4915,26.3636667 26.6805,26.429 C26.8695,26.4943333 27.1063333,26.527 27.391,26.527 C27.6336667,26.527 27.846,26.4955 28.028,26.4325 C28.21,26.3695 28.3616667,26.2843333 28.483,26.177 C28.6043333,26.0696667 28.6941667,25.946 28.7525,25.806 C28.8108333,25.666 28.84,25.5166667 28.84,25.358 C28.84,25.162 28.7875,24.9998333 28.6825,24.8715 C28.5775,24.7431667 28.4386667,24.6335 28.266,24.5425 C28.0933333,24.4515 27.8961667,24.3721667 27.6745,24.3045 C27.4528333,24.2368333 27.2265,24.1656667 26.9955,24.091 C26.7645,24.0163333 26.5381667,23.9311667 26.3165,23.8355 C26.0948333,23.7398333 25.8976667,23.6196667 25.725,23.475 C25.5523333,23.3303333 25.4135,23.1518333 25.3085,22.9395 C25.2035,22.7271667 25.151,22.4693333 25.151,22.166 C25.151,21.8953333 25.207,21.6351667 25.319,21.3855 C25.431,21.1358333 25.5943333,20.9165 25.809,20.7275 C26.0236667,20.5385 26.2873333,20.388 26.6,20.276 C26.9126667,20.164 27.2696667,20.108 27.671,20.108 C28.1376667,20.108 28.5565,20.1815 28.9275,20.3285 C29.2985,20.4755 29.6193333,20.6773333 29.89,20.934 L29.61,21.389 Z" id="s"></path>
            <path d="M34.433,20.108 C34.8576667,20.108 35.2496667,20.1791667 35.609,20.3215 C35.9683333,20.4638333 36.2786667,20.6691667 36.54,20.9375 C36.8013333,21.2058333 37.0055,21.5371667 37.1525,21.9315 C37.2995,22.3258333 37.373,22.775 37.373,23.279 C37.373,23.475 37.352,23.6056667 37.31,23.671 C37.268,23.7363333 37.1886667,23.769 37.072,23.769 L32.354,23.769 C32.3633333,24.217 32.424,24.6066667 32.536,24.938 C32.648,25.2693333 32.802,25.5458333 32.998,25.7675 C33.194,25.9891667 33.4273333,26.1548333 33.698,26.2645 C33.9686667,26.3741667 34.272,26.429 34.608,26.429 C34.9206667,26.429 35.1901667,26.3928333 35.4165,26.3205 C35.6428333,26.2481667 35.8376667,26.17 36.001,26.086 C36.1643333,26.002 36.3008333,25.9238333 36.4105,25.8515 C36.5201667,25.7791667 36.6146667,25.743 36.694,25.743 C36.7966667,25.743 36.876,25.7826667 36.932,25.862 L37.282,26.317 C37.128,26.5036667 36.9436667,26.6658333 36.729,26.8035 C36.5143333,26.9411667 36.2845,27.0543333 36.0395,27.143 C35.7945,27.2316667 35.5413333,27.2981667 35.28,27.3425 C35.0186667,27.3868333 34.7596667,27.409 34.503,27.409 C34.013,27.409 33.5615,27.3261667 33.1485,27.1605 C32.7355,26.9948333 32.3785,26.7521667 32.0775,26.4325 C31.7765,26.1128333 31.542,25.7173333 31.374,25.246 C31.206,24.7746667 31.122,24.2333333 31.122,23.622 C31.122,23.1273333 31.1978333,22.6653333 31.3495,22.236 C31.5011667,21.8066667 31.7193333,21.4345 32.004,21.1195 C32.2886667,20.8045 32.6363333,20.5571667 33.047,20.3775 C33.4576667,20.1978333 33.9196667,20.108 34.433,20.108 Z M34.461,21.025 C33.859,21.025 33.3853333,21.1988333 33.04,21.5465 C32.6946667,21.8941667 32.48,22.376 32.396,22.992 L36.253,22.992 C36.253,22.7026667 36.2133333,22.4378333 36.134,22.1975 C36.0546667,21.9571667 35.938,21.7495 35.784,21.5745 C35.63,21.3995 35.4421667,21.2641667 35.2205,21.1685 C34.9988333,21.0728333 34.7456667,21.025 34.461,21.025 Z" id="e"></path>
            <path d="M38.962,27.311 L38.962,20.22 L39.676,20.22 C39.8113333,20.22 39.9046667,20.2456667 39.956,20.297 C40.0073333,20.3483333 40.0423333,20.437 40.061,20.563 L40.145,21.669 C40.3876667,21.1743333 40.6875,20.7881667 41.0445,20.5105 C41.4015,20.2328333 41.8203333,20.094 42.301,20.094 C42.497,20.094 42.6743333,20.1161667 42.833,20.1605 C42.9916667,20.2048333 43.1386667,20.2666667 43.274,20.346 L43.113,21.277 C43.0803333,21.3936667 43.008,21.452 42.896,21.452 C42.8306667,21.452 42.7303333,21.4298333 42.595,21.3855 C42.4596667,21.3411667 42.2706667,21.319 42.028,21.319 C41.594,21.319 41.2311667,21.445 40.9395,21.697 C40.6478333,21.949 40.404,22.3153333 40.208,22.796 L40.208,27.311 L38.962,27.311 Z" id="r"></path>
            <path d="M43.708,20.22 L44.73,20.22 C44.828,20.22 44.9096667,20.2456667 44.975,20.297 C45.0403333,20.3483333 45.087,20.409 45.115,20.479 L46.914,25.043 C46.9793333,25.211 47.0306667,25.379 47.068,25.547 C47.1053333,25.715 47.1403333,25.8806667 47.173,26.044 C47.2103333,25.8806667 47.25,25.715 47.292,25.547 C47.334,25.379 47.3876667,25.211 47.453,25.043 L49.273,20.479 C49.301,20.4043333 49.3465,20.3425 49.4095,20.2935 C49.4725,20.2445 49.5506667,20.22 49.644,20.22 L50.617,20.22 L47.726,27.311 L46.599,27.311 L43.708,20.22 Z" id="v"></path>
            <path d="M56.98,27.311 L56.427,27.311 C56.3056667,27.311 56.2076667,27.2923333 56.133,27.255 C56.0583333,27.2176667 56.0093333,27.1383333 55.986,27.017 L55.846,26.359 C55.6593333,26.527 55.4773333,26.6775 55.3,26.8105 C55.1226667,26.9435 54.936,27.0555 54.74,27.1465 C54.544,27.2375 54.3351667,27.3063333 54.1135,27.353 C53.8918333,27.3996667 53.6456667,27.423 53.375,27.423 C53.0996667,27.423 52.8418333,27.3845 52.6015,27.3075 C52.3611667,27.2305 52.1523333,27.115 51.975,26.961 C51.7976667,26.807 51.6565,26.6121667 51.5515,26.3765 C51.4465,26.1408333 51.394,25.862 51.394,25.54 C51.394,25.26 51.471,24.9905 51.625,24.7315 C51.779,24.4725 52.0275,24.2426667 52.3705,24.042 C52.7135,23.8413333 53.1626667,23.6768333 53.718,23.5485 C54.2733333,23.4201667 54.9523333,23.3466667 55.755,23.328 L55.755,22.775 C55.755,22.2243333 55.6371667,21.8078333 55.4015,21.5255 C55.1658333,21.2431667 54.817,21.102 54.355,21.102 C54.0516667,21.102 53.7961667,21.1405 53.5885,21.2175 C53.3808333,21.2945 53.2011667,21.3808333 53.0495,21.4765 C52.8978333,21.5721667 52.7671667,21.6585 52.6575,21.7355 C52.5478333,21.8125 52.4393333,21.851 52.332,21.851 C52.248,21.851 52.1745,21.8288333 52.1115,21.7845 C52.0485,21.7401667 51.9983333,21.6853333 51.961,21.62 L51.737,21.221 C52.129,20.843 52.5513333,20.5606667 53.004,20.374 C53.4566667,20.1873333 53.9583333,20.094 54.509,20.094 C54.9056667,20.094 55.258,20.1593333 55.566,20.29 C55.874,20.4206667 56.133,20.6026667 56.343,20.836 C56.553,21.0693333 56.7116667,21.3516667 56.819,21.683 C56.9263333,22.0143333 56.98,22.3783333 56.98,22.775 L56.98,27.311 Z M53.746,26.548 C53.9653333,26.548 54.166,26.5258333 54.348,26.4815 C54.53,26.4371667 54.7015,26.3741667 54.8625,26.2925 C55.0235,26.2108333 55.1775,26.1116667 55.3245,25.995 C55.4715,25.8783333 55.615,25.7453333 55.755,25.596 L55.755,24.119 C55.181,24.1376667 54.6933333,24.1831667 54.292,24.2555 C53.8906667,24.3278333 53.564,24.4223333 53.312,24.539 C53.06,24.6556667 52.8768333,24.7933333 52.7625,24.952 C52.6481667,25.1106667 52.591,25.288 52.591,25.484 C52.591,25.6706667 52.6213333,25.8316667 52.682,25.967 C52.7426667,26.1023333 52.8243333,26.2131667 52.927,26.2995 C53.0296667,26.3858333 53.151,26.4488333 53.291,26.4885 C53.431,26.5281667 53.5826667,26.548 53.746,26.548 Z" id="a"></path>
            <path d="M61.019,27.423 C60.459,27.423 60.0285,27.2666667 59.7275,26.954 C59.4265,26.6413333 59.276,26.191 59.276,25.603 L59.276,21.263 L58.422,21.263 C58.3473333,21.263 58.2843333,21.2408333 58.233,21.1965 C58.1816667,21.1521667 58.156,21.0833333 58.156,20.99 L58.156,20.493 L59.318,20.346 L59.605,18.155 C59.6143333,18.085 59.6446667,18.0278333 59.696,17.9835 C59.7473333,17.9391667 59.8126667,17.917 59.892,17.917 L60.522,17.917 L60.522,20.36 L62.552,20.36 L62.552,21.263 L60.522,21.263 L60.522,25.519 C60.522,25.8176667 60.5943333,26.0393333 60.739,26.184 C60.8836667,26.3286667 61.0703333,26.401 61.299,26.401 C61.4296667,26.401 61.5428333,26.3835 61.6385,26.3485 C61.7341667,26.3135 61.817,26.275 61.887,26.233 C61.957,26.191 62.0165,26.1525 62.0655,26.1175 C62.1145,26.0825 62.1576667,26.065 62.195,26.065 C62.2603333,26.065 62.3186667,26.1046667 62.37,26.184 L62.734,26.779 C62.5193333,26.9796667 62.2603333,27.1371667 61.957,27.2515 C61.6536667,27.3658333 61.341,27.423 61.019,27.423 Z" id="t"></path>
            <path d="M65.478,20.22 L65.478,27.311 L64.232,27.311 L64.232,20.22 L65.478,20.22 Z M65.758,17.994 C65.758,18.1153333 65.7335,18.2285 65.6845,18.3335 C65.6355,18.4385 65.5701667,18.5318333 65.4885,18.6135 C65.4068333,18.6951667 65.3123333,18.7593333 65.205,18.806 C65.0976667,18.8526667 64.9833333,18.876 64.862,18.876 C64.7406667,18.876 64.6275,18.8526667 64.5225,18.806 C64.4175,18.7593333 64.3241667,18.6951667 64.2425,18.6135 C64.1608333,18.5318333 64.0966667,18.4385 64.05,18.3335 C64.0033333,18.2285 63.98,18.1153333 63.98,17.994 C63.98,17.8726667 64.0033333,17.7571667 64.05,17.6475 C64.0966667,17.5378333 64.1608333,17.4421667 64.2425,17.3605 C64.3241667,17.2788333 64.4175,17.2146667 64.5225,17.168 C64.6275,17.1213333 64.7406667,17.098 64.862,17.098 C64.9833333,17.098 65.0976667,17.1213333 65.205,17.168 C65.3123333,17.2146667 65.4068333,17.2788333 65.4885,17.3605 C65.5701667,17.4421667 65.6355,17.5378333 65.6845,17.6475 C65.7335,17.7571667 65.758,17.8726667 65.758,17.994 Z" id="i"></path>
            <path d="M66.78,20.22 L67.802,20.22 C67.9,20.22 67.9816667,20.2456667 68.047,20.297 C68.1123333,20.3483333 68.159,20.409 68.187,20.479 L69.986,25.043 C70.0513333,25.211 70.1026667,25.379 70.14,25.547 C70.1773333,25.715 70.2123333,25.8806667 70.245,26.044 C70.2823333,25.8806667 70.322,25.715 70.364,25.547 C70.406,25.379 70.4596667,25.211 70.525,25.043 L72.345,20.479 C72.373,20.4043333 72.4185,20.3425 72.4815,20.2935 C72.5445,20.2445 72.6226667,20.22 72.716,20.22 L73.689,20.22 L70.798,27.311 L69.671,27.311 L66.78,20.22 Z" id="v"></path>
            <path d="M77.469,20.108 C77.8936667,20.108 78.2856667,20.1791667 78.645,20.3215 C79.0043333,20.4638333 79.3146667,20.6691667 79.576,20.9375 C79.8373333,21.2058333 80.0415,21.5371667 80.1885,21.9315 C80.3355,22.3258333 80.409,22.775 80.409,23.279 C80.409,23.475 80.388,23.6056667 80.346,23.671 C80.304,23.7363333 80.2246667,23.769 80.108,23.769 L75.39,23.769 C75.3993333,24.217 75.46,24.6066667 75.572,24.938 C75.684,25.2693333 75.838,25.5458333 76.034,25.7675 C76.23,25.9891667 76.4633333,26.1548333 76.734,26.2645 C77.0046667,26.3741667 77.308,26.429 77.644,26.429 C77.9566667,26.429 78.2261667,26.3928333 78.4525,26.3205 C78.6788333,26.2481667 78.8736667,26.17 79.037,26.086 C79.2003333,26.002 79.3368333,25.9238333 79.4465,25.8515 C79.5561667,25.7791667 79.6506667,25.743 79.73,25.743 C79.8326667,25.743 79.912,25.7826667 79.968,25.862 L80.318,26.317 C80.164,26.5036667 79.9796667,26.6658333 79.765,26.8035 C79.5503333,26.9411667 79.3205,27.0543333 79.0755,27.143 C78.8305,27.2316667 78.5773333,27.2981667 78.316,27.3425 C78.0546667,27.3868333 77.7956667,27.409 77.539,27.409 C77.049,27.409 76.5975,27.3261667 76.1845,27.1605 C75.7715,26.9948333 75.4145,26.7521667 75.1135,26.4325 C74.8125,26.1128333 74.578,25.7173333 74.41,25.246 C74.242,24.7746667 74.158,24.2333333 74.158,23.622 C74.158,23.1273333 74.2338333,22.6653333 74.3855,22.236 C74.5371667,21.8066667 74.7553333,21.4345 75.04,21.1195 C75.3246667,20.8045 75.6723333,20.5571667 76.083,20.3775 C76.4936667,20.1978333 76.9556667,20.108 77.469,20.108 Z M77.497,21.025 C76.895,21.025 76.4213333,21.1988333 76.076,21.5465 C75.7306667,21.8941667 75.516,22.376 75.432,22.992 L79.289,22.992 C79.289,22.7026667 79.2493333,22.4378333 79.17,22.1975 C79.0906667,21.9571667 78.974,21.7495 78.82,21.5745 C78.666,21.3995 78.4781667,21.2641667 78.2565,21.1685 C78.0348333,21.0728333 77.7816667,21.025 77.497,21.025 Z" id="e"></path>
        </g>
        <rect id="Rectangle" fill="#D8D8D8" x="145" y="115" width="2" height="262"></rect>
        <rect id="Rectangle" fill="#D8D8D8" x="173" y="115" width="2" height="262"></rect>
    </g>
</svg>