<?xml version="1.0" encoding="UTF-8"?>
<svg width="119px" height="75px" viewBox="0 0 119 75" version="1.1" xmlns="http://www.w3.org/2000/svg" xmlns:xlink="http://www.w3.org/1999/xlink">
    <title>02</title>
    <g id="Page-1" stroke="none" stroke-width="1" fill="none" fill-rule="evenodd">
        <g id="02" transform="translate(0.142578, 0.603516)" fill="#03161F" fill-rule="nonzero">
            <path d="M28.9980469,73.6293945 C47.0478516,73.6293945 57.9960938,59.4755859 57.9960938,36.8393555 L57.9960938,36.7407227 C57.9960938,14.1044922 47.0478516,0 28.9980469,0 C10.9482422,0 0,14.1044922 0,36.7407227 L0,36.8393555 C0,59.4755859 10.9482422,73.6293945 28.9980469,73.6293945 Z M28.9980469,61.6948242 C20.1210938,61.6948242 15.0415039,52.4726562 15.0415039,36.8393555 L15.0415039,36.7407227 C15.0415039,21.1074219 20.1210938,11.9345703 28.9980469,11.9345703 C37.875,11.9345703 42.9545898,21.1074219 42.9545898,36.7407227 L42.9545898,36.8393555 C42.9545898,52.4726562 37.875,61.6948242 28.9980469,61.6948242 Z" id="0"></path>
            <path d="M66.6264648,72.3964844 L118.359375,72.3964844 L118.359375,60.5605469 L86.1064453,60.5605469 L86.1064453,59.96875 L101,46.3574219 C113.279785,35.0639648 117.373047,29.4418945 117.373047,20.8115234 L117.373047,20.7128906 C117.373047,8.58105469 107.016602,0 91.9750977,0 C76.9335938,0 65.7880859,9.41943359 65.7880859,22.8334961 L65.7880859,23.2280273 L79.5966797,23.2280273 L79.6459961,22.7841797 C79.8432617,16.3730469 84.7749023,11.5893555 92.0737305,11.5893555 C98.3862305,11.5893555 102.824707,15.7319336 102.874023,21.5512695 L102.874023,21.6499023 C102.874023,26.581543 100.950684,30.0830078 91.777832,38.6640625 L66.6264648,62.1879883 L66.6264648,72.3964844 Z" id="2"></path>
        </g>
    </g>
</svg>