<?xml version="1.0" encoding="UTF-8"?>
<svg width="122px" height="75px" viewBox="0 0 122 75" version="1.1" xmlns="http://www.w3.org/2000/svg" xmlns:xlink="http://www.w3.org/1999/xlink">
    <title>03</title>
    <g id="Page-1" stroke="none" stroke-width="1" fill="none" fill-rule="evenodd">
        <g id="03" transform="translate(0.142578, 0.603516)" fill="#03161F" fill-rule="nonzero">
            <path d="M28.9980469,73.6293945 C47.0478516,73.6293945 57.9960938,59.4755859 57.9960938,36.8393555 L57.9960938,36.7407227 C57.9960938,14.1044922 47.0478516,0 28.9980469,0 C10.9482422,0 0,14.1044922 0,36.7407227 L0,36.8393555 C0,59.4755859 10.9482422,73.6293945 28.9980469,73.6293945 Z M28.9980469,61.6948242 C20.1210938,61.6948242 15.0415039,52.4726562 15.0415039,36.8393555 L15.0415039,36.7407227 C15.0415039,21.1074219 20.1210938,11.9345703 28.9980469,11.9345703 C37.875,11.9345703 42.9545898,21.1074219 42.9545898,36.7407227 L42.9545898,36.8393555 C42.9545898,52.4726562 37.875,61.6948242 28.9980469,61.6948242 Z" id="0"></path>
            <path d="M93.6025391,73.6293945 C110.222168,73.6293945 121.269043,65.0483398 121.269043,52.324707 L121.269043,52.2260742 C121.269043,42.5600586 114.364746,36.4448242 103.811035,35.4584961 L103.811035,35.1625977 C112.145508,33.4365234 118.655273,27.6665039 118.655273,18.7895508 L118.655273,18.690918 C118.655273,7.49609375 108.791992,0 93.4545898,0 C78.5117188,0 68.5004883,8.08789062 67.5141602,20.4169922 L67.4648438,21.0087891 L81.1254883,21.0087891 L81.1748047,20.5649414 C81.7666016,15.0415039 86.5009766,11.4414062 93.4545898,11.4414062 C100.45752,11.4414062 104.550781,14.8935547 104.550781,20.6635742 L104.550781,20.762207 C104.550781,26.5322266 99.7177734,30.4775391 92.2709961,30.4775391 L84.3310547,30.4775391 L84.3310547,41.0805664 L92.4682617,41.0805664 C101.049316,41.0805664 106.128906,44.8286133 106.128906,51.6342773 L106.128906,51.7329102 C106.128906,57.5522461 101.197266,61.6455078 93.5532227,61.6455078 C85.8598633,61.6455078 80.8295898,57.8481445 80.1884766,52.7685547 L80.0898438,52.2260742 L65.8867188,52.2260742 L65.9360352,52.8671875 C66.9223633,65.1469727 77.4760742,73.6293945 93.6025391,73.6293945 Z" id="3"></path>
        </g>
    </g>
</svg>