<?xml version="1.0" encoding="UTF-8"?>
<svg width="122px" height="75px" viewBox="0 0 122 75" version="1.1" xmlns="http://www.w3.org/2000/svg" xmlns:xlink="http://www.w3.org/1999/xlink">
    <title>05</title>
    <g id="Page-1" stroke="none" stroke-width="1" fill="none" fill-rule="evenodd">
        <g id="05" transform="translate(0.142578, 0.603516)" fill="#03161F" fill-rule="nonzero">
            <path d="M28.9980469,73.6293945 C47.0478516,73.6293945 57.9960938,59.4755859 57.9960938,36.8393555 L57.9960938,36.7407227 C57.9960938,14.1044922 47.0478516,0 28.9980469,0 C10.9482422,0 0,14.1044922 0,36.7407227 L0,36.8393555 C0,59.4755859 10.9482422,73.6293945 28.9980469,73.6293945 Z M28.9980469,61.6948242 C20.1210938,61.6948242 15.0415039,52.4726562 15.0415039,36.8393555 L15.0415039,36.7407227 C15.0415039,21.1074219 20.1210938,11.9345703 28.9980469,11.9345703 C37.875,11.9345703 42.9545898,21.1074219 42.9545898,36.7407227 L42.9545898,36.8393555 C42.9545898,52.4726562 37.875,61.6948242 28.9980469,61.6948242 Z" id="0"></path>
            <path d="M93.9477539,73.6293945 C110.222168,73.6293945 121.466309,63.5195312 121.466309,48.6259766 L121.466309,48.5273438 C121.466309,35.1132812 111.70166,25.3979492 98.1889648,25.3979492 C90.9887695,25.3979492 85.1201172,28.3076172 82.1611328,33.0913086 L81.8652344,33.0913086 L83.5913086,13.0688477 L117.175781,13.0688477 L117.175781,1.23291016 L71.7553711,1.23291016 L68.5004883,43.0039063 L81.4707031,43.0039063 C82.309082,41.5244141 83.4433594,40.1435547 84.8735352,39.0585938 C87.2900391,37.1352539 90.3969727,36.050293 94.0463867,36.050293 C101.739746,36.050293 107.213867,41.3271484 107.263184,48.8232422 L107.263184,48.921875 C107.263184,56.5166016 101.789062,61.8427734 93.9970703,61.8427734 C87.1420898,61.8427734 82.1611328,57.7001953 81.1254883,52.324707 L81.0268555,51.9794922 L67.2675781,51.9794922 L67.3168945,52.7192383 C68.2045898,64.6044922 78.4624023,73.6293945 93.9477539,73.6293945 Z" id="5"></path>
        </g>
    </g>
</svg>