<?xml version="1.0" encoding="UTF-8"?>
<svg width="124px" height="75px" viewBox="0 0 124 75" version="1.1" xmlns="http://www.w3.org/2000/svg" xmlns:xlink="http://www.w3.org/1999/xlink">
    <title>06</title>
    <g id="Page-1" stroke="none" stroke-width="1" fill="none" fill-rule="evenodd">
        <g id="06" transform="translate(0.142578, 0.603516)" fill="#03161F" fill-rule="nonzero">
            <path d="M28.9980469,73.6293945 C47.0478516,73.6293945 57.9960938,59.4755859 57.9960938,36.8393555 L57.9960938,36.7407227 C57.9960938,14.1044922 47.0478516,0 28.9980469,0 C10.9482422,0 0,14.1044922 0,36.7407227 L0,36.8393555 C0,59.4755859 10.9482422,73.6293945 28.9980469,73.6293945 Z M28.9980469,61.6948242 C20.1210938,61.6948242 15.0415039,52.4726562 15.0415039,36.8393555 L15.0415039,36.7407227 C15.0415039,21.1074219 20.1210938,11.9345703 28.9980469,11.9345703 C37.875,11.9345703 42.9545898,21.1074219 42.9545898,36.7407227 L42.9545898,36.8393555 C42.9545898,52.4726562 37.875,61.6948242 28.9980469,61.6948242 Z" id="0"></path>
            <path d="M95.8217773,73.6293945 C111.652344,73.6293945 123.241699,63.2729492 123.241699,48.7246094 L123.241699,48.6259766 C123.241699,35.3105469 113.822266,25.5458984 100.062988,25.5458984 C90.4462891,25.5458984 83.4433594,30.3789062 80.6323242,36.9873047 L80.3364258,36.9873047 C80.3364258,36.2475586 80.3857422,35.2612305 80.4350586,34.2749023 C80.9775391,21.6992188 85.5146484,11.7866211 95.9204102,11.7866211 C101.739746,11.7866211 105.685059,14.6962891 107.460449,18.9868164 L107.608398,19.4306641 L122.304688,19.4306641 L122.206055,18.9375 C120.085449,7.93994141 109.729004,0 95.9697266,0 C77.4267578,0 66.1333008,14.0058594 66.1333008,37.3325195 L66.1333008,37.4311523 C66.1333008,61.546875 78.659668,73.6293945 95.8217773,73.6293945 Z M82.6049805,49.0698242 L82.6049805,48.9711914 C82.6049805,41.7216797 88.3256836,36.543457 95.7724609,36.543457 C103.169922,36.543457 108.742676,41.7709961 108.742676,49.168457 L108.742676,49.2670898 C108.742676,56.2700195 102.874023,61.793457 95.6245117,61.793457 C88.3256836,61.793457 82.6049805,56.2207031 82.6049805,49.0698242 Z" id="6"></path>
        </g>
    </g>
</svg>