<?xml version="1.0" encoding="UTF-8"?>
<svg width="115px" height="75px" viewBox="0 0 115 75" version="1.1" xmlns="http://www.w3.org/2000/svg" xmlns:xlink="http://www.w3.org/1999/xlink">
    <title>07</title>
    <g id="Page-1" stroke="none" stroke-width="1" fill="none" fill-rule="evenodd">
        <g id="07" transform="translate(0.142578, 0.603516)" fill="#03161F" fill-rule="nonzero">
            <path d="M28.9980469,73.6293945 C47.0478516,73.6293945 57.9960938,59.4755859 57.9960938,36.8393555 L57.9960938,36.7407227 C57.9960938,14.1044922 47.0478516,0 28.9980469,0 C10.9482422,0 0,14.1044922 0,36.7407227 L0,36.8393555 C0,59.4755859 10.9482422,73.6293945 28.9980469,73.6293945 Z M28.9980469,61.6948242 C20.1210938,61.6948242 15.0415039,52.4726562 15.0415039,36.8393555 L15.0415039,36.7407227 C15.0415039,21.1074219 20.1210938,11.9345703 28.9980469,11.9345703 C37.875,11.9345703 42.9545898,21.1074219 42.9545898,36.7407227 L42.9545898,36.8393555 C42.9545898,52.4726562 37.875,61.6948242 28.9980469,61.6948242 Z" id="0"></path>
            <polygon id="7" points="69.0922852 72.3964844 84.7255859 72.3964844 114.414062 13.2167969 114.414062 1.23291016 63.5195312 1.23291016 63.5195312 13.0688477 99.7177734 13.0688477 99.7177734 13.3647461"></polygon>
        </g>
    </g>
</svg>