<?xml version="1.0" encoding="UTF-8"?>
<svg width="124px" height="75px" viewBox="0 0 124 75" version="1.1" xmlns="http://www.w3.org/2000/svg" xmlns:xlink="http://www.w3.org/1999/xlink">
    <title>08</title>
    <g id="Page-1" stroke="none" stroke-width="1" fill="none" fill-rule="evenodd">
        <g id="08" transform="translate(0.142578, 0.603516)" fill="#03161F" fill-rule="nonzero">
            <path d="M28.9980469,73.6293945 C47.0478516,73.6293945 57.9960938,59.4755859 57.9960938,36.8393555 L57.9960938,36.7407227 C57.9960938,14.1044922 47.0478516,0 28.9980469,0 C10.9482422,0 0,14.1044922 0,36.7407227 L0,36.8393555 C0,59.4755859 10.9482422,73.6293945 28.9980469,73.6293945 Z M28.9980469,61.6948242 C20.1210938,61.6948242 15.0415039,52.4726562 15.0415039,36.8393555 L15.0415039,36.7407227 C15.0415039,21.1074219 20.1210938,11.9345703 28.9980469,11.9345703 C37.875,11.9345703 42.9545898,21.1074219 42.9545898,36.7407227 L42.9545898,36.8393555 C42.9545898,52.4726562 37.875,61.6948242 28.9980469,61.6948242 Z" id="0"></path>
            <path d="M94.8847656,73.6293945 C111.849609,73.6293945 123.537598,65.1962891 123.537598,52.9658203 L123.537598,52.8671875 C123.537598,43.6450195 116.682617,36.8393555 107.164551,34.965332 L107.164551,34.6694336 C115.351074,32.6474609 120.973145,26.6801758 120.973145,19.0854492 L120.973145,18.9868164 C120.973145,7.98925781 110.222168,0 94.8847656,0 C79.4980469,0 68.7963867,7.98925781 68.7963867,18.9868164 L68.7963867,19.0854492 C68.7963867,26.6801758 74.3691406,32.6474609 82.6049805,34.6694336 L82.6049805,34.965332 C73.0375977,36.8393555 66.1826172,43.6450195 66.1826172,52.8671875 L66.1826172,52.9658203 C66.1826172,65.1962891 77.9199219,73.6293945 94.8847656,73.6293945 Z M94.8847656,30.1816406 C88.1777344,30.1816406 83.4926758,26.1870117 83.4926758,20.4663086 L83.4926758,20.3676758 C83.4926758,14.6962891 88.2270508,10.7509766 94.8847656,10.7509766 C101.54248,10.7509766 106.227539,14.6962891 106.227539,20.3676758 L106.227539,20.4663086 C106.227539,26.1870117 101.591797,30.1816406 94.8847656,30.1816406 Z M94.8847656,62.7797852 C87.0927734,62.7797852 81.6186523,58.2426758 81.6186523,51.9794922 L81.6186523,51.8808594 C81.6186523,45.5683594 87.043457,40.9819336 94.8847656,40.9819336 C102.726074,40.9819336 108.101562,45.5683594 108.101562,51.8808594 L108.101562,51.9794922 C108.101562,58.2426758 102.627441,62.7797852 94.8847656,62.7797852 Z" id="8"></path>
        </g>
    </g>
</svg>