<?xml version="1.0" encoding="UTF-8"?>
<svg width="125px" height="75px" viewBox="0 0 125 75" version="1.1" xmlns="http://www.w3.org/2000/svg" xmlns:xlink="http://www.w3.org/1999/xlink">
    <title>09</title>
    <g id="Page-1" stroke="none" stroke-width="1" fill="none" fill-rule="evenodd">
        <g id="09" transform="translate(0.142578, 0.603516)" fill="#03161F" fill-rule="nonzero">
            <path d="M28.9980469,73.6293945 C47.0478516,73.6293945 57.9960938,59.4755859 57.9960938,36.8393555 L57.9960938,36.7407227 C57.9960938,14.1044922 47.0478516,0 28.9980469,0 C10.9482422,0 0,14.1044922 0,36.7407227 L0,36.8393555 C0,59.4755859 10.9482422,73.6293945 28.9980469,73.6293945 Z M28.9980469,61.6948242 C20.1210938,61.6948242 15.0415039,52.4726562 15.0415039,36.8393555 L15.0415039,36.7407227 C15.0415039,21.1074219 20.1210938,11.9345703 28.9980469,11.9345703 C37.875,11.9345703 42.9545898,21.1074219 42.9545898,36.7407227 L42.9545898,36.8393555 C42.9545898,52.4726562 37.875,61.6948242 28.9980469,61.6948242 Z" id="0"></path>
            <path d="M94.2436523,0 C78.4130859,0 66.8237305,10.3071289 66.8237305,24.8554688 L66.8237305,24.9541016 C66.8237305,38.3188477 76.2431641,48.0341797 90.0024414,48.0341797 C99.6191406,48.0341797 106.62207,43.2011719 109.433105,36.5927734 L109.679688,36.5927734 C109.729004,37.3818359 109.679688,38.3681641 109.630371,39.3051758 C109.087891,51.8808594 104.550781,61.793457 94.1450195,61.793457 C88.3256836,61.793457 84.3803711,58.8837891 82.6049805,54.5932617 L82.4570312,54.1987305 L67.7607422,54.1987305 L67.859375,54.6425781 C69.9799805,65.6401367 80.3364258,73.6293945 94.0957031,73.6293945 C112.638672,73.6293945 123.932129,59.5742188 123.932129,36.2475586 L123.932129,36.1489258 C123.932129,12.0332031 111.405762,0 94.2436523,0 Z M94.2929688,37.0366211 C86.8955078,37.0366211 81.3227539,31.8583984 81.3227539,24.4609375 L81.3227539,24.3623047 C81.3227539,17.3100586 87.1914062,11.8359375 94.440918,11.8359375 C101.739746,11.8359375 107.460449,17.359375 107.460449,24.5595703 L107.460449,24.6088867 C107.460449,31.8583984 101.739746,37.0366211 94.2929688,37.0366211 Z" id="9"></path>
        </g>
    </g>
</svg>