<?xml version="1.0" encoding="UTF-8"?>
<svg width="107px" height="75px" viewBox="0 0 107 75" version="1.1" xmlns="http://www.w3.org/2000/svg" xmlns:xlink="http://www.w3.org/1999/xlink">
    <title>10</title>
    <g id="Page-1" stroke="none" stroke-width="1" fill="none" fill-rule="evenodd">
        <g id="10" transform="translate(0.389160, 0.603516)" fill="#03161F" fill-rule="nonzero">
            <polygon id="1" points="18.4443359 72.3964844 33.1899414 72.3964844 33.1899414 1.23291016 18.3950195 1.23291016 0 14.0058594 0 27.2226562 18.1484375 14.8935547 18.4443359 14.8935547"></polygon>
            <path d="M77.2294922,73.6293945 C95.2792969,73.6293945 106.227539,59.4755859 106.227539,36.8393555 L106.227539,36.7407227 C106.227539,14.1044922 95.2792969,0 77.2294922,0 C59.1796875,0 48.2314453,14.1044922 48.2314453,36.7407227 L48.2314453,36.8393555 C48.2314453,59.4755859 59.1796875,73.6293945 77.2294922,73.6293945 Z M77.2294922,61.6948242 C68.3525391,61.6948242 63.2729492,52.4726562 63.2729492,36.8393555 L63.2729492,36.7407227 C63.2729492,21.1074219 68.3525391,11.9345703 77.2294922,11.9345703 C86.1064453,11.9345703 91.1860352,21.1074219 91.1860352,36.7407227 L91.1860352,36.8393555 C91.1860352,52.4726562 86.1064453,61.6948242 77.2294922,61.6948242 Z" id="0"></path>
        </g>
    </g>
</svg>