<?xml version="1.0" encoding="UTF-8"?>
<svg width="22px" height="16px" viewBox="0 0 22 16" version="1.1" xmlns="http://www.w3.org/2000/svg" xmlns:xlink="http://www.w3.org/1999/xlink">
    <title>Combined Shape</title>
    <g id="Page-1" stroke="none" stroke-width="1" fill="none" fill-rule="evenodd" stroke-linecap="round" stroke-linejoin="round">
        <g id="Group-15" transform="translate(-290.000000, -146.000000)" fill="#101A1D" fill-rule="nonzero">
            <g id="Group" transform="translate(291.666667, 147.333333)">
                <path d="M7.37377345,-0.707106781 C7.73425741,-0.34662282 7.76198694,0.220608236 7.45696205,0.612899443 L7.37377345,0.707106781 L2.414,5.666 L18.6666667,5.66666667 C19.2189514,5.66666667 19.6666667,6.11438192 19.6666667,6.66666667 C19.6666667,7.17950251 19.2806265,7.60217383 18.7832878,7.65993894 L18.6666667,7.66666667 L2.414,7.666 L7.37377345,12.6262266 C7.76429774,13.0167508 7.76429774,13.6499158 7.37377345,14.0404401 C7.01328949,14.4009241 6.44605843,14.4286536 6.05376722,14.1236287 L5.95955989,14.0404401 L-0.707106781,7.37377345 C-0.745177695,7.33570253 -0.779537201,7.29532565 -0.810185302,7.25309239 L-0.878573924,7.14482008 L-0.918770978,7.06212073 L-0.957761205,6.95492278 L-0.979273797,6.87019361 L-0.993251078,6.78341087 L-1,6.66666667 L-0.997212137,6.59142812 L-0.979597998,6.4651484 L-0.965106006,6.40385216 L-0.940059815,6.32488382 L-0.890293196,6.21080473 L-0.833193806,6.11349102 L-0.783390811,6.04507418 L-0.707106781,5.95955989 L5.95955989,-0.707106781 C6.35008418,-1.09763107 6.98324916,-1.09763107 7.37377345,-0.707106781 Z" id="Combined-Shape"></path>
            </g>
        </g>
    </g>
</svg>