<svg width="161" height="160" viewBox="0 0 161 160" fill="none" xmlns="http://www.w3.org/2000/svg">
<circle cx="80.5" cy="80" r="80" fill="#2148EC"/>
<path fill-rule="evenodd" clip-rule="evenodd" d="M51.5 47.7241C51.5 44.0105 54.5105 41 58.2241 41H85.8953H86.2326L86.2326 41.0027C97.6237 41.1823 106.802 50.4449 106.802 61.8448C106.802 68.9958 103.191 75.3058 97.6868 79.0604L71.406 95.1278C70.1152 95.9169 69.7113 97.6014 70.5039 98.8901C71.2965 100.179 72.9854 100.584 74.2762 99.7946L102.466 82.5601C106.781 86.3786 109.5 91.9503 109.5 98.1552C109.5 109.667 100.14 119 88.5933 119C88.4806 119 88.368 118.999 88.2557 118.997L88.2558 119H58.2241C54.5105 119 51.5 115.989 51.5 112.276V47.7241Z" fill="white"/>
</svg>
