<svg width="34" height="38" viewBox="0 0 34 38" fill="none" xmlns="http://www.w3.org/2000/svg">
<g clip-path="url(#clip0_2_14)">
<path d="M17.0074 10.4648C12.1806 10.4648 8.28733 14.2723 8.28733 18.9926C8.28733 23.7129 12.1806 27.5203 17.0074 27.5203C21.8342 27.5203 25.7275 23.7129 25.7275 18.9926C25.7275 14.2723 21.8342 10.4648 17.0074 10.4648ZM17.0074 24.5367C13.8882 24.5367 11.3382 22.0504 11.3382 18.9926C11.3382 15.9348 13.8806 13.4484 17.0074 13.4484C20.1342 13.4484 22.6766 15.9348 22.6766 18.9926C22.6766 22.0504 20.1266 24.5367 17.0074 24.5367ZM28.1181 10.116C28.1181 11.2219 27.2074 12.1051 26.0842 12.1051C24.9534 12.1051 24.0503 11.2145 24.0503 10.116C24.0503 9.01758 24.961 8.12696 26.0842 8.12696C27.2074 8.12696 28.1181 9.01758 28.1181 10.116ZM33.8936 12.1348C33.7646 9.47032 33.1422 7.11016 31.1463 5.16563C29.1579 3.2211 26.7445 2.6125 24.0199 2.47891C21.2119 2.32305 12.7954 2.32305 9.98733 2.47891C7.27037 2.60508 4.85698 3.21367 2.86099 5.15821C0.865011 7.10274 0.250279 9.46289 0.113672 12.1273C-0.0457031 14.8734 -0.0457031 23.1043 0.113672 25.8504C0.24269 28.5148 0.865011 30.875 2.86099 32.8195C4.85698 34.7641 7.26278 35.3727 9.98733 35.5063C12.7954 35.6621 21.2119 35.6621 24.0199 35.5063C26.7445 35.3801 29.1579 34.7715 31.1463 32.8195C33.1347 30.875 33.757 28.5148 33.8936 25.8504C34.053 23.1043 34.053 14.8809 33.8936 12.1348ZM30.2659 28.7969C29.6739 30.2516 28.528 31.3723 27.0329 31.9586C24.794 32.827 19.4815 32.6266 17.0074 32.6266C14.5333 32.6266 9.21323 32.8195 6.98198 31.9586C5.49448 31.3797 4.34849 30.259 3.74894 28.7969C2.86099 26.6074 3.0659 21.4121 3.0659 18.9926C3.0659 16.573 2.86858 11.3703 3.74894 9.18828C4.3409 7.7336 5.48689 6.61289 6.98198 6.02657C9.22081 5.15821 14.5333 5.3586 17.0074 5.3586C19.4815 5.3586 24.8016 5.16563 27.0329 6.02657C28.5204 6.60547 29.6664 7.72617 30.2659 9.18828C31.1539 11.3777 30.9489 16.573 30.9489 18.9926C30.9489 21.4121 31.1539 26.6148 30.2659 28.7969Z" fill="white"/>
</g>
<defs>
<clipPath id="clip0_2_14">
<rect width="34" height="38" fill="white"/>
</clipPath>
</defs>
</svg>
