<?xml version="1.0" encoding="UTF-8"?>
<svg width="242px" height="274px" viewBox="0 0 242 274" version="1.1" xmlns="http://www.w3.org/2000/svg" xmlns:xlink="http://www.w3.org/1999/xlink">
    <title>shutterstock_473333437</title>
    <g id="Page-1" stroke="none" stroke-width="1" fill="none" fill-rule="evenodd">
        <g id="https://www.istockphoto.com/vector/monitoring-icon-in-vector-logotype-gm1277475087-376669277" transform="translate(-1235.000000, -669.000000)" fill="#03161F">
            <g id="shutterstock_473333437" transform="translate(316.000000, 651.000000)">
                <g transform="translate(919.000000, 18.000000)">
                    <path d="M75.2542336,21.4523508 C123.335909,-14.1883989 191.451295,-4.42093183 227.365233,43.3336854 C233.619437,51.6497774 238.484268,60.5678993 241.999971,69.8146111 L242.000567,145.896498 C236.603098,160.17592 228.11258,173.450138 216.687282,184.643737 L216.687282,184.643737 L222.046338,191.791057 C223.242645,193.39443 222.915958,195.630412 221.300286,196.840418 L221.300286,196.840418 L218.824262,198.682266 L224.010321,205.59878 L228.212457,211.157295 L234.244967,206.700668 C236.558806,204.974607 239.842666,205.459223 241.57264,207.749647 L241.57264,207.749647 L241.999556,208.316 L241.999556,273.049 L210.320362,230.932237 C208.643699,228.697981 209.045345,225.554114 211.182503,223.780199 L211.36993,223.631558 L217.415569,219.174164 L212.742324,212.976906 L208.021196,206.700668 L205.538221,208.543283 C203.930272,209.737953 201.63883,209.406697 200.443295,207.826327 L200.443295,207.826327 L200.061774,207.294936 L195.287356,200.965789 C148.144809,228.503789 86.6913658,216.985723 53.2163806,172.477727 C42.9037312,158.778122 36.4997404,143.404598 33.5240317,127.669913 L33.5240317,127.669913 L55.1896315,127.669913 C57.8533272,138.97941 62.7914744,149.934646 70.2458062,159.8179 C84.6964902,179.030779 105.624534,190.60252 127.745797,193.787031 C149.891773,196.963106 173.218611,191.774954 192.569599,177.43584 C211.933716,163.086758 223.567015,142.332615 226.78214,120.330894 C230.004215,98.3644444 224.763323,75.1895224 210.320362,55.9766432 C195.854231,36.7944359 174.973298,25.2004571 152.835817,22.008279 C130.681345,18.8391047 107.316665,24.0433596 87.9811227,38.3832404 C69.0425479,52.4141018 57.5652557,72.5839443 54.0628319,94.0473742 L54.0628319,94.0473742 L32.5555556,94.0473742 C36.2193921,66.1305762 50.7256823,39.6254525 75.2542336,21.4523508 Z" id="Combined-Shape"></path>
                    <path d="M188.155263,60.8480637 C187.124821,58.3612205 184.645889,56.7567568 181.702902,56.7567568 C178.879696,56.8111966 176.342064,58.5668822 175.40126,61.0915309 L155.948985,113.439996 L146.257751,93.5596168 C145.166228,91.2859964 142.707921,89.8115834 139.80539,89.8115834 C139.80539,89.8115834 139.80539,89.8115834 139.789525,89.8115834 C137.078169,89.9257559 134.692842,91.567269 133.744105,93.9777452 L117.379191,134.854522 L110.703131,111.713799 C109.847999,108.923756 107.169959,106.94653 104.098464,106.94653 L0,106.94653 L0,119.916072 L98.9311811,119.916072 L109.759947,157.418333 C110.567484,160.117643 113.0718,162.010184 115.310374,162.063112 L116.332883,162.162162 C119.140224,162.162162 121.684202,160.466965 122.666256,157.996 L140.714464,112.945501 L150.612738,133.312059 C151.736785,135.584923 154.144323,137.066897 157.097623,137.066897 C157.119834,137.066897 157.119834,137.066897 157.127767,137.066897 C159.904963,136.915675 162.272839,135.228796 163.196984,132.741953 L182.189962,81.7000437 L204.792265,136.094541 L211.611111,134.854522 L211.611111,117.879114 L188.155263,60.8480637" id="Fill-5"></path>
                </g>
            </g>
        </g>
    </g>
</svg>