<?xml version="1.0" encoding="UTF-8"?>
<svg width="252px" height="42px" viewBox="0 0 252 42" version="1.1" xmlns="http://www.w3.org/2000/svg" xmlns:xlink="http://www.w3.org/1999/xlink">
    <title>Logo</title>
    <g id="Page-1" stroke="none" stroke-width="1" fill="none" fill-rule="evenodd">
        <g id="https://www.istockphoto.com/vector/monitoring-icon-in-vector-logotype-gm1277475087-376669277" transform="translate(-316.000000, -75.000000)" fill="#03161F">
            <g id="Logo" transform="translate(316.000000, 75.964000)">
                <g id="Analysis-Bureau" transform="translate(54.024000, 0.000000)" fill-rule="nonzero">
                    <path d="M17.688,18.036 L14.544,18.036 C14.192,18.036 13.902,17.954 13.674,17.79 C13.446,17.626 13.288,17.416 13.2,17.16 L12.168,14.112 L5.52,14.112 L4.488,17.16 C4.408,17.384 4.252,17.586 4.02,17.766 C3.788,17.946 3.504,18.036 3.168,18.036 L0,18.036 L6.768,0.552 L10.92,0.552 L17.688,18.036 Z M6.456,11.352 L11.232,11.352 L9.624,6.564 C9.52,6.26 9.398,5.902 9.258,5.49 C9.118,5.078 8.98,4.632 8.844,4.152 C8.716,4.64 8.584,5.092 8.448,5.508 C8.312,5.924 8.184,6.284 8.064,6.588 L6.456,11.352 Z" id="A"></path>
                    <path d="M19.104,18.036 L19.104,5.592 L21.408,5.592 C21.64,5.592 21.834,5.644 21.99,5.748 C22.146,5.852 22.256,6.008 22.32,6.216 L22.536,6.936 C22.776,6.712 23.024,6.504 23.28,6.312 C23.536,6.12 23.81,5.958 24.102,5.826 C24.394,5.694 24.71,5.59 25.05,5.514 C25.39,5.438 25.76,5.4 26.16,5.4 C26.84,5.4 27.442,5.518 27.966,5.754 C28.49,5.99 28.932,6.318 29.292,6.738 C29.652,7.158 29.924,7.658 30.108,8.238 C30.292,8.818 30.384,9.448 30.384,10.128 L30.384,18.036 L26.664,18.036 L26.664,10.128 C26.664,9.52 26.524,9.046 26.244,8.706 C25.964,8.366 25.552,8.196 25.008,8.196 C24.6,8.196 24.216,8.284 23.856,8.46 C23.496,8.636 23.152,8.872 22.824,9.168 L22.824,18.036 L19.104,18.036 Z" id="n"></path>
                    <path d="M41.616,18.036 C41.264,18.036 40.998,17.988 40.818,17.892 C40.638,17.796 40.488,17.596 40.368,17.292 L40.104,16.608 C39.792,16.872 39.492,17.104 39.204,17.304 C38.916,17.504 38.618,17.674 38.31,17.814 C38.002,17.954 37.674,18.058 37.326,18.126 C36.978,18.194 36.592,18.228 36.168,18.228 C35.6,18.228 35.084,18.154 34.62,18.006 C34.156,17.858 33.762,17.64 33.438,17.352 C33.114,17.064 32.864,16.706 32.688,16.278 C32.512,15.85 32.424,15.356 32.424,14.796 C32.424,14.356 32.536,13.904 32.76,13.44 C32.984,12.976 33.372,12.554 33.924,12.174 C34.476,11.794 35.22,11.476 36.156,11.22 C37.092,10.964 38.272,10.82 39.696,10.788 L39.696,10.26 C39.696,9.532 39.546,9.006 39.246,8.682 C38.946,8.358 38.52,8.196 37.968,8.196 C37.528,8.196 37.168,8.244 36.888,8.34 C36.608,8.436 36.358,8.544 36.138,8.664 C35.918,8.784 35.704,8.892 35.496,8.988 C35.288,9.084 35.04,9.132 34.752,9.132 C34.496,9.132 34.278,9.07 34.098,8.946 C33.918,8.822 33.776,8.668 33.672,8.484 L33,7.32 C33.752,6.656 34.586,6.162 35.502,5.838 C36.418,5.514 37.4,5.352 38.448,5.352 C39.2,5.352 39.878,5.474 40.482,5.718 C41.086,5.962 41.598,6.302 42.018,6.738 C42.438,7.174 42.76,7.692 42.984,8.292 C43.208,8.892 43.32,9.548 43.32,10.26 L43.32,18.036 L41.616,18.036 Z M37.344,15.768 C37.824,15.768 38.244,15.684 38.604,15.516 C38.964,15.348 39.328,15.076 39.696,14.7 L39.696,12.972 C38.952,13.004 38.34,13.068 37.86,13.164 C37.38,13.26 37,13.38 36.72,13.524 C36.44,13.668 36.246,13.832 36.138,14.016 C36.03,14.2 35.976,14.4 35.976,14.616 C35.976,15.04 36.092,15.338 36.324,15.51 C36.556,15.682 36.896,15.768 37.344,15.768 Z" id="a"></path>
                    <polygon id="l" points="49.8 0.072 49.8 18.036 46.08 18.036 46.08 0.072"></polygon>
                    <path d="M57.888,21.264 C57.776,21.512 57.64,21.694 57.48,21.81 C57.32,21.926 57.064,21.984 56.712,21.984 L53.928,21.984 L56.328,16.944 L51.36,5.592 L54.648,5.592 C54.936,5.592 55.16,5.656 55.32,5.784 C55.48,5.912 55.592,6.064 55.656,6.24 L57.696,11.604 C57.888,12.1 58.044,12.596 58.164,13.092 C58.244,12.836 58.332,12.584 58.428,12.336 C58.524,12.088 58.616,11.836 58.704,11.58 L60.552,6.24 C60.616,6.056 60.742,5.902 60.93,5.778 C61.118,5.654 61.32,5.592 61.536,5.592 L64.536,5.592 L57.888,21.264 Z" id="y"></path>
                    <path d="M73.68,8.316 C73.584,8.468 73.482,8.576 73.374,8.64 C73.266,8.704 73.128,8.736 72.96,8.736 C72.784,8.736 72.608,8.698 72.432,8.622 C72.256,8.546 72.066,8.464 71.862,8.376 C71.658,8.288 71.428,8.206 71.172,8.13 C70.916,8.054 70.624,8.016 70.296,8.016 C69.824,8.016 69.462,8.106 69.21,8.286 C68.958,8.466 68.832,8.716 68.832,9.036 C68.832,9.268 68.914,9.46 69.078,9.612 C69.242,9.764 69.46,9.898 69.732,10.014 C70.004,10.13 70.312,10.24 70.656,10.344 C71,10.448 71.352,10.564 71.712,10.692 C72.072,10.82 72.424,10.97 72.768,11.142 C73.112,11.314 73.42,11.526 73.692,11.778 C73.964,12.03 74.182,12.336 74.346,12.696 C74.51,13.056 74.592,13.488 74.592,13.992 C74.592,14.608 74.48,15.176 74.256,15.696 C74.032,16.216 73.698,16.664 73.254,17.04 C72.81,17.416 72.262,17.708 71.61,17.916 C70.958,18.124 70.208,18.228 69.36,18.228 C68.936,18.228 68.512,18.188 68.088,18.108 C67.664,18.028 67.254,17.92 66.858,17.784 C66.462,17.648 66.096,17.486 65.76,17.298 C65.424,17.11 65.136,16.908 64.896,16.692 L65.76,15.324 C65.864,15.164 65.988,15.038 66.132,14.946 C66.276,14.854 66.464,14.808 66.696,14.808 C66.912,14.808 67.106,14.856 67.278,14.952 C67.45,15.048 67.636,15.152 67.836,15.264 C68.036,15.376 68.27,15.48 68.538,15.576 C68.806,15.672 69.144,15.72 69.552,15.72 C69.84,15.72 70.084,15.69 70.284,15.63 C70.484,15.57 70.644,15.488 70.764,15.384 C70.884,15.28 70.972,15.164 71.028,15.036 C71.084,14.908 71.112,14.776 71.112,14.64 C71.112,14.392 71.028,14.188 70.86,14.028 C70.692,13.868 70.472,13.73 70.2,13.614 C69.928,13.498 69.618,13.39 69.27,13.29 C68.922,13.19 68.568,13.076 68.208,12.948 C67.848,12.82 67.494,12.666 67.146,12.486 C66.798,12.306 66.488,12.078 66.216,11.802 C65.944,11.526 65.724,11.188 65.556,10.788 C65.388,10.388 65.304,9.904 65.304,9.336 C65.304,8.808 65.406,8.306 65.61,7.83 C65.814,7.354 66.12,6.936 66.528,6.576 C66.936,6.216 67.448,5.93 68.064,5.718 C68.68,5.506 69.4,5.4 70.224,5.4 C70.672,5.4 71.106,5.44 71.526,5.52 C71.946,5.6 72.34,5.712 72.708,5.856 C73.076,6 73.412,6.17 73.716,6.366 C74.02,6.562 74.288,6.776 74.52,7.008 L73.68,8.316 Z" id="s"></path>
                    <path d="M80.472,5.592 L80.472,18.036 L76.752,18.036 L76.752,5.592 L80.472,5.592 Z M80.904,2.184 C80.904,2.48 80.844,2.758 80.724,3.018 C80.604,3.278 80.44,3.506 80.232,3.702 C80.024,3.898 79.782,4.054 79.506,4.17 C79.23,4.286 78.936,4.344 78.624,4.344 C78.32,4.344 78.036,4.286 77.772,4.17 C77.508,4.054 77.274,3.898 77.07,3.702 C76.866,3.506 76.706,3.278 76.59,3.018 C76.474,2.758 76.416,2.48 76.416,2.184 C76.416,1.88 76.474,1.596 76.59,1.332 C76.706,1.068 76.866,0.836 77.07,0.636 C77.274,0.436 77.508,0.28 77.772,0.168 C78.036,0.056 78.32,0 78.624,0 C78.936,0 79.23,0.056 79.506,0.168 C79.782,0.28 80.024,0.436 80.232,0.636 C80.44,0.836 80.604,1.068 80.724,1.332 C80.844,1.596 80.904,1.88 80.904,2.184 Z" id="i"></path>
                    <path d="M91.08,8.316 C90.984,8.468 90.882,8.576 90.774,8.64 C90.666,8.704 90.528,8.736 90.36,8.736 C90.184,8.736 90.008,8.698 89.832,8.622 C89.656,8.546 89.466,8.464 89.262,8.376 C89.058,8.288 88.828,8.206 88.572,8.13 C88.316,8.054 88.024,8.016 87.696,8.016 C87.224,8.016 86.862,8.106 86.61,8.286 C86.358,8.466 86.232,8.716 86.232,9.036 C86.232,9.268 86.314,9.46 86.478,9.612 C86.642,9.764 86.86,9.898 87.132,10.014 C87.404,10.13 87.712,10.24 88.056,10.344 C88.4,10.448 88.752,10.564 89.112,10.692 C89.472,10.82 89.824,10.97 90.168,11.142 C90.512,11.314 90.82,11.526 91.092,11.778 C91.364,12.03 91.582,12.336 91.746,12.696 C91.91,13.056 91.992,13.488 91.992,13.992 C91.992,14.608 91.88,15.176 91.656,15.696 C91.432,16.216 91.098,16.664 90.654,17.04 C90.21,17.416 89.662,17.708 89.01,17.916 C88.358,18.124 87.608,18.228 86.76,18.228 C86.336,18.228 85.912,18.188 85.488,18.108 C85.064,18.028 84.654,17.92 84.258,17.784 C83.862,17.648 83.496,17.486 83.16,17.298 C82.824,17.11 82.536,16.908 82.296,16.692 L83.16,15.324 C83.264,15.164 83.388,15.038 83.532,14.946 C83.676,14.854 83.864,14.808 84.096,14.808 C84.312,14.808 84.506,14.856 84.678,14.952 C84.85,15.048 85.036,15.152 85.236,15.264 C85.436,15.376 85.67,15.48 85.938,15.576 C86.206,15.672 86.544,15.72 86.952,15.72 C87.24,15.72 87.484,15.69 87.684,15.63 C87.884,15.57 88.044,15.488 88.164,15.384 C88.284,15.28 88.372,15.164 88.428,15.036 C88.484,14.908 88.512,14.776 88.512,14.64 C88.512,14.392 88.428,14.188 88.26,14.028 C88.092,13.868 87.872,13.73 87.6,13.614 C87.328,13.498 87.018,13.39 86.67,13.29 C86.322,13.19 85.968,13.076 85.608,12.948 C85.248,12.82 84.894,12.666 84.546,12.486 C84.198,12.306 83.888,12.078 83.616,11.802 C83.344,11.526 83.124,11.188 82.956,10.788 C82.788,10.388 82.704,9.904 82.704,9.336 C82.704,8.808 82.806,8.306 83.01,7.83 C83.214,7.354 83.52,6.936 83.928,6.576 C84.336,6.216 84.848,5.93 85.464,5.718 C86.08,5.506 86.8,5.4 87.624,5.4 C88.072,5.4 88.506,5.44 88.926,5.52 C89.346,5.6 89.74,5.712 90.108,5.856 C90.476,6 90.812,6.17 91.116,6.366 C91.42,6.562 91.688,6.776 91.92,7.008 L91.08,8.316 Z" id="s"></path>
                    <path d="M105.504,16.008 C106.152,16.008 106.706,15.932 107.166,15.78 C107.626,15.628 108.002,15.42 108.294,15.156 C108.586,14.892 108.8,14.578 108.936,14.214 C109.072,13.85 109.14,13.452 109.14,13.02 C109.14,12.164 108.844,11.49 108.252,10.998 C107.66,10.506 106.744,10.26 105.504,10.26 L101.904,10.26 L101.904,16.008 L105.504,16.008 Z M101.904,2.808 L101.904,8.448 L104.844,8.448 C106.1,8.448 107.034,8.194 107.646,7.686 C108.258,7.178 108.564,6.492 108.564,5.628 C108.564,4.644 108.272,3.928 107.688,3.48 C107.104,3.032 106.196,2.808 104.964,2.808 L101.904,2.808 Z M104.964,0.804 C106.044,0.804 106.97,0.908 107.742,1.116 C108.514,1.324 109.148,1.624 109.644,2.016 C110.14,2.408 110.506,2.882 110.742,3.438 C110.978,3.994 111.096,4.624 111.096,5.328 C111.096,5.744 111.032,6.144 110.904,6.528 C110.776,6.912 110.58,7.27 110.316,7.602 C110.052,7.934 109.72,8.232 109.32,8.496 C108.92,8.76 108.448,8.98 107.904,9.156 C110.408,9.652 111.66,10.96 111.66,13.08 C111.66,13.816 111.524,14.486 111.252,15.09 C110.98,15.694 110.584,16.216 110.064,16.656 C109.544,17.096 108.904,17.436 108.144,17.676 C107.384,17.916 106.52,18.036 105.552,18.036 L99.348,18.036 L99.348,0.804 L104.964,0.804 Z" id="B"></path>
                    <path d="M124.356,5.844 L124.356,18.036 L122.952,18.036 C122.632,18.036 122.424,17.88 122.328,17.568 L122.16,16.344 C121.896,16.624 121.62,16.88 121.332,17.112 C121.044,17.344 120.736,17.542 120.408,17.706 C120.08,17.87 119.732,17.998 119.364,18.09 C118.996,18.182 118.6,18.228 118.176,18.228 C117.504,18.228 116.914,18.116 116.406,17.892 C115.898,17.668 115.472,17.354 115.128,16.95 C114.784,16.546 114.524,16.06 114.348,15.492 C114.172,14.924 114.084,14.296 114.084,13.608 L114.084,5.844 L116.436,5.844 L116.436,13.608 C116.436,14.48 116.636,15.158 117.036,15.642 C117.436,16.126 118.048,16.368 118.872,16.368 C119.472,16.368 120.032,16.226 120.552,15.942 C121.072,15.658 121.56,15.268 122.016,14.772 L122.016,5.844 L124.356,5.844 Z" id="u"></path>
                    <path d="M129.84,8.184 C130.232,7.384 130.704,6.756 131.256,6.3 C131.808,5.844 132.472,5.616 133.248,5.616 C133.512,5.616 133.762,5.646 133.998,5.706 C134.234,5.766 134.44,5.856 134.616,5.976 L134.46,7.74 C134.404,7.956 134.272,8.064 134.064,8.064 C133.952,8.064 133.784,8.042 133.56,7.998 C133.336,7.954 133.096,7.932 132.84,7.932 C132.464,7.932 132.132,7.986 131.844,8.094 C131.556,8.202 131.298,8.362 131.07,8.574 C130.842,8.786 130.64,9.046 130.464,9.354 C130.288,9.662 130.124,10.012 129.972,10.404 L129.972,18.036 L127.632,18.036 L127.632,5.844 L128.976,5.844 C129.232,5.844 129.406,5.89 129.498,5.982 C129.59,6.074 129.656,6.236 129.696,6.468 L129.84,8.184 Z" id="r"></path>
                    <path d="M144.048,10.584 C144.048,10.12 143.982,9.692 143.85,9.3 C143.718,8.908 143.524,8.568 143.268,8.28 C143.012,7.992 142.7,7.768 142.332,7.608 C141.964,7.448 141.54,7.368 141.06,7.368 C140.076,7.368 139.302,7.652 138.738,8.22 C138.174,8.788 137.816,9.576 137.664,10.584 L144.048,10.584 Z M145.98,16.296 C145.692,16.632 145.36,16.922 144.984,17.166 C144.608,17.41 144.208,17.608 143.784,17.76 C143.36,17.912 142.922,18.024 142.47,18.096 C142.018,18.168 141.572,18.204 141.132,18.204 C140.292,18.204 139.514,18.062 138.798,17.778 C138.082,17.494 137.462,17.078 136.938,16.53 C136.414,15.982 136.006,15.302 135.714,14.49 C135.422,13.678 135.276,12.744 135.276,11.688 C135.276,10.84 135.408,10.05 135.672,9.318 C135.936,8.586 136.314,7.948 136.806,7.404 C137.298,6.86 137.9,6.432 138.612,6.12 C139.324,5.808 140.124,5.652 141.012,5.652 C141.756,5.652 142.442,5.774 143.07,6.018 C143.698,6.262 144.24,6.616 144.696,7.08 C145.152,7.544 145.51,8.116 145.77,8.796 C146.03,9.476 146.16,10.252 146.16,11.124 C146.16,11.484 146.12,11.726 146.04,11.85 C145.96,11.974 145.812,12.036 145.596,12.036 L137.604,12.036 C137.628,12.764 137.732,13.398 137.916,13.938 C138.1,14.478 138.354,14.928 138.678,15.288 C139.002,15.648 139.388,15.916 139.836,16.092 C140.284,16.268 140.784,16.356 141.336,16.356 C141.856,16.356 142.306,16.296 142.686,16.176 C143.066,16.056 143.394,15.926 143.67,15.786 C143.946,15.646 144.178,15.516 144.366,15.396 C144.554,15.276 144.72,15.216 144.864,15.216 C145.056,15.216 145.204,15.288 145.308,15.432 L145.98,16.296 Z" id="e"></path>
                    <path d="M155.232,12.624 C154.28,12.656 153.472,12.73 152.808,12.846 C152.144,12.962 151.604,13.116 151.188,13.308 C150.772,13.5 150.472,13.726 150.288,13.986 C150.104,14.246 150.012,14.536 150.012,14.856 C150.012,15.16 150.062,15.422 150.162,15.642 C150.262,15.862 150.398,16.042 150.57,16.182 C150.742,16.322 150.944,16.424 151.176,16.488 C151.408,16.552 151.66,16.584 151.932,16.584 C152.292,16.584 152.622,16.548 152.922,16.476 C153.222,16.404 153.504,16.302 153.768,16.17 C154.032,16.038 154.284,15.876 154.524,15.684 C154.764,15.492 155,15.272 155.232,15.024 L155.232,12.624 Z M148.368,7.548 C149.048,6.9 149.786,6.416 150.582,6.096 C151.378,5.776 152.252,5.616 153.204,5.616 C153.9,5.616 154.516,5.73 155.052,5.958 C155.588,6.186 156.04,6.504 156.408,6.912 C156.776,7.32 157.054,7.808 157.242,8.376 C157.43,8.944 157.524,9.572 157.524,10.26 L157.524,18.036 L156.48,18.036 C156.248,18.036 156.072,17.998 155.952,17.922 C155.832,17.846 155.736,17.704 155.664,17.496 L155.412,16.428 C155.1,16.716 154.792,16.97 154.488,17.19 C154.184,17.41 153.866,17.598 153.534,17.754 C153.202,17.91 152.848,18.028 152.472,18.108 C152.096,18.188 151.68,18.228 151.224,18.228 C150.744,18.228 150.294,18.162 149.874,18.03 C149.454,17.898 149.088,17.696 148.776,17.424 C148.464,17.152 148.218,16.812 148.038,16.404 C147.858,15.996 147.768,15.52 147.768,14.976 C147.768,14.496 147.898,14.034 148.158,13.59 C148.418,13.146 148.842,12.748 149.43,12.396 C150.018,12.044 150.786,11.756 151.734,11.532 C152.682,11.308 153.848,11.18 155.232,11.148 L155.232,10.26 C155.232,9.34 155.036,8.652 154.644,8.196 C154.252,7.74 153.676,7.512 152.916,7.512 C152.404,7.512 151.974,7.576 151.626,7.704 C151.278,7.832 150.978,7.974 150.726,8.13 C150.474,8.286 150.254,8.428 150.066,8.556 C149.878,8.684 149.684,8.748 149.484,8.748 C149.324,8.748 149.186,8.704 149.07,8.616 C148.954,8.528 148.86,8.424 148.788,8.304 L148.368,7.548 Z" id="a"></path>
                    <path d="M170.808,5.844 L170.808,18.036 L169.404,18.036 C169.084,18.036 168.876,17.88 168.78,17.568 L168.612,16.344 C168.348,16.624 168.072,16.88 167.784,17.112 C167.496,17.344 167.188,17.542 166.86,17.706 C166.532,17.87 166.184,17.998 165.816,18.09 C165.448,18.182 165.052,18.228 164.628,18.228 C163.956,18.228 163.366,18.116 162.858,17.892 C162.35,17.668 161.924,17.354 161.58,16.95 C161.236,16.546 160.976,16.06 160.8,15.492 C160.624,14.924 160.536,14.296 160.536,13.608 L160.536,5.844 L162.888,5.844 L162.888,13.608 C162.888,14.48 163.088,15.158 163.488,15.642 C163.888,16.126 164.5,16.368 165.324,16.368 C165.924,16.368 166.484,16.226 167.004,15.942 C167.524,15.658 168.012,15.268 168.468,14.772 L168.468,5.844 L170.808,5.844 Z" id="u"></path>
                </g>
                <g id="The-numbers-behind-t" transform="translate(54.351562, 27.123535)" fill-rule="nonzero" opacity="0.5">
                    <polygon id="T" points="3.1640625 10.8764648 5.04638672 10.8764648 5.04638672 1.89697266 8.203125 1.89697266 8.203125 0.307617188 0 0.307617188 0 1.89697266 3.1640625 1.89697266"></polygon>
                    <path d="M9.36035156,10.8764648 L11.184082,10.8764648 L11.184082,6.40136719 C11.184082,5.2734375 11.8579102,4.48974609 12.890625,4.48974609 C13.9379883,4.48974609 14.5385742,5.20751953 14.5385742,6.40136719 L14.5385742,10.8764648 L16.3623047,10.8764648 L16.3623047,6.04248047 C16.3623047,4.16748047 15.2929688,2.95166016 13.6230469,2.95166016 C12.4584961,2.95166016 11.6308594,3.48632812 11.2280273,4.41650391 L11.184082,4.41650391 L11.184082,0.307617188 L9.36035156,0.307617188 L9.36035156,10.8764648 Z" id="h"></path>
                    <path d="M21.2402344,11.0302734 C23.269043,11.0302734 24.4116211,9.82910156 24.6533203,8.63525391 L24.675293,8.5546875 L22.96875,8.5546875 L22.9541016,8.60595703 C22.7783203,9.12597656 22.1850586,9.609375 21.2768555,9.609375 C20.090332,9.609375 19.3432617,8.80371094 19.3139648,7.44140625 L24.7485352,7.44140625 L24.7485352,6.85546875 C24.7485352,4.51171875 23.371582,2.95166016 21.1523438,2.95166016 C18.9331055,2.95166016 17.5048828,4.56298828 17.5048828,7.00927734 L17.5048828,7.01660156 C17.5048828,9.48486328 18.9111328,11.0302734 21.2402344,11.0302734 Z M21.1743164,4.37988281 C22.1411133,4.37988281 22.8442383,4.99511719 22.9760742,6.22558594 L19.3359375,6.22558594 C19.4824219,5.03173828 20.2075195,4.37988281 21.1743164,4.37988281 Z" id="e"></path>
                    <path d="M28.9233398,10.8764648 L30.7470703,10.8764648 L30.7470703,6.37207031 C30.7470703,5.25146484 31.4135742,4.48974609 32.4609375,4.48974609 C33.5009766,4.48974609 34.0136719,5.11230469 34.0136719,6.21826172 L34.0136719,10.8764648 L35.8374023,10.8764648 L35.8374023,5.85205078 C35.8374023,4.05029297 34.8632812,2.95166016 33.1567383,2.95166016 C31.9775391,2.95166016 31.1865234,3.49365234 30.7836914,4.32861328 L30.7470703,4.32861328 L30.7470703,3.11279297 L28.9233398,3.11279297 L28.9233398,10.8764648 Z" id="n"></path>
                    <path d="M39.9389648,11.0302734 C41.1108398,11.0302734 41.9091797,10.4882812 42.3120117,9.66064453 L42.3486328,9.66064453 L42.3486328,10.8764648 L44.1723633,10.8764648 L44.1723633,3.11279297 L42.3486328,3.11279297 L42.3486328,7.60986328 C42.3486328,8.73779297 41.6821289,9.4921875 40.6347656,9.4921875 C39.5947266,9.4921875 39.0820312,8.86962891 39.0820312,7.77099609 L39.0820312,3.11279297 L37.2583008,3.11279297 L37.2583008,8.12988281 C37.2583008,9.93164062 38.2324219,11.0302734 39.9389648,11.0302734 Z" id="u"></path>
                    <path d="M45.6665039,10.8764648 L47.4902344,10.8764648 L47.4902344,6.12304688 C47.4902344,5.17822266 48.1054688,4.48974609 48.984375,4.48974609 C49.8339844,4.48974609 50.3613281,5.03173828 50.3613281,5.90332031 L50.3613281,10.8764648 L52.1337891,10.8764648 L52.1337891,6.07910156 C52.1337891,5.14160156 52.734375,4.48974609 53.6132812,4.48974609 C54.5068359,4.48974609 55.0048828,5.0390625 55.0048828,5.99853516 L55.0048828,10.8764648 L56.8286133,10.8764648 L56.8286133,5.54443359 C56.8286133,3.99169922 55.8251953,2.95166016 54.2944336,2.95166016 C53.1738281,2.95166016 52.2509766,3.55224609 51.8774414,4.51904297 L51.8334961,4.51904297 C51.5478516,3.52294922 50.7641602,2.95166016 49.6801758,2.95166016 C48.6547852,2.95166016 47.8564453,3.50830078 47.5268555,4.35791016 L47.4902344,4.35791016 L47.4902344,3.11279297 L45.6665039,3.11279297 L45.6665039,10.8764648 Z" id="m"></path>
                    <path d="M62.6220703,11.0302734 C64.5849609,11.0302734 65.8300781,9.4921875 65.8300781,6.99462891 L65.8300781,6.98730469 C65.8300781,4.48242188 64.5776367,2.95166016 62.6293945,2.95166016 C61.5307617,2.95166016 60.6445312,3.515625 60.2050781,4.44580078 L60.1611328,4.44580078 L60.1611328,0.307617188 L58.3374023,0.307617188 L58.3374023,10.8764648 L60.1611328,10.8764648 L60.1611328,9.55810547 L60.2050781,9.55810547 C60.6445312,10.4736328 61.5014648,11.0302734 62.6220703,11.0302734 Z M62.0727539,9.4921875 C60.9448242,9.4921875 60.1611328,8.51806641 60.1611328,6.99462891 L60.1611328,6.98730469 C60.1611328,5.47119141 60.9521484,4.48974609 62.0727539,4.48974609 C63.2373047,4.48974609 63.9697266,5.44189453 63.9697266,6.98730469 L63.9697266,6.99462891 C63.9697266,8.54003906 63.2446289,9.4921875 62.0727539,9.4921875 Z" id="b"></path>
                    <path d="M70.4150391,11.0302734 C72.4438477,11.0302734 73.5864258,9.82910156 73.828125,8.63525391 L73.8500977,8.5546875 L72.1435547,8.5546875 L72.1289062,8.60595703 C71.953125,9.12597656 71.3598633,9.609375 70.4516602,9.609375 C69.2651367,9.609375 68.5180664,8.80371094 68.4887695,7.44140625 L73.9233398,7.44140625 L73.9233398,6.85546875 C73.9233398,4.51171875 72.5463867,2.95166016 70.3271484,2.95166016 C68.1079102,2.95166016 66.6796875,4.56298828 66.6796875,7.00927734 L66.6796875,7.01660156 C66.6796875,9.48486328 68.0859375,11.0302734 70.4150391,11.0302734 Z M70.3491211,4.37988281 C71.315918,4.37988281 72.019043,4.99511719 72.1508789,6.22558594 L68.5107422,6.22558594 C68.6572266,5.03173828 69.3823242,4.37988281 70.3491211,4.37988281 Z" id="e"></path>
                    <path d="M75.0952148,10.8764648 L76.9189453,10.8764648 L76.9189453,6.37207031 C76.9189453,5.22216797 77.5415039,4.5703125 78.5742188,4.5703125 C78.8818359,4.5703125 79.1601562,4.61425781 79.3139648,4.67285156 L79.3139648,3.02490234 C79.1748047,2.98828125 78.9624023,2.95166016 78.7353516,2.95166016 C77.8417969,2.95166016 77.1972656,3.515625 76.9555664,4.453125 L76.9189453,4.453125 L76.9189453,3.11279297 L75.0952148,3.11279297 L75.0952148,10.8764648 Z" id="r"></path>
                    <path d="M83.2836914,11.0302734 C85.1879883,11.0302734 86.5429688,10.0488281 86.5429688,8.58398438 L86.5429688,8.57666016 C86.5429688,7.44873047 85.9204102,6.81884766 84.3164062,6.45996094 L83.0200195,6.17431641 C82.2143555,5.99121094 81.9140625,5.69824219 81.9140625,5.25146484 L81.9140625,5.24414062 C81.9140625,4.67285156 82.4194336,4.29931641 83.2250977,4.29931641 C84.074707,4.29931641 84.5727539,4.75341797 84.6533203,5.37597656 L84.6606445,5.43457031 L86.3598633,5.43457031 L86.3525391,5.35400391 C86.2866211,4.01367188 85.1586914,2.95166016 83.2250977,2.95166016 C81.3500977,2.95166016 80.1123047,3.91113281 80.1123047,5.33203125 L80.1123047,5.33935547 C80.1123047,6.48925781 80.859375,7.21435547 82.3461914,7.54394531 L83.6352539,7.82958984 C84.440918,8.01269531 84.7119141,8.27636719 84.7119141,8.74511719 L84.7119141,8.75244141 C84.7119141,9.32373047 84.1772461,9.68261719 83.2910156,9.68261719 C82.3681641,9.68261719 81.862793,9.28710938 81.7236328,8.62060547 L81.7089844,8.5546875 L79.9145508,8.5546875 L79.921875,8.62060547 C80.0830078,10.0634766 81.2475586,11.0302734 83.2836914,11.0302734 Z" id="s"></path>
                    <path d="M95.0390625,11.0302734 C97.0019531,11.0302734 98.2470703,9.4921875 98.2470703,6.99462891 L98.2470703,6.98730469 C98.2470703,4.48242188 96.9946289,2.95166016 95.0463867,2.95166016 C93.9477539,2.95166016 93.0615234,3.515625 92.6220703,4.44580078 L92.578125,4.44580078 L92.578125,0.307617188 L90.7543945,0.307617188 L90.7543945,10.8764648 L92.578125,10.8764648 L92.578125,9.55810547 L92.6220703,9.55810547 C93.0615234,10.4736328 93.918457,11.0302734 95.0390625,11.0302734 Z M94.4897461,9.4921875 C93.3618164,9.4921875 92.578125,8.51806641 92.578125,6.99462891 L92.578125,6.98730469 C92.578125,5.47119141 93.3691406,4.48974609 94.4897461,4.48974609 C95.6542969,4.48974609 96.3867188,5.44189453 96.3867188,6.98730469 L96.3867188,6.99462891 C96.3867188,8.54003906 95.6616211,9.4921875 94.4897461,9.4921875 Z" id="b"></path>
                    <path d="M102.832031,11.0302734 C104.86084,11.0302734 106.003418,9.82910156 106.245117,8.63525391 L106.26709,8.5546875 L104.560547,8.5546875 L104.545898,8.60595703 C104.370117,9.12597656 103.776855,9.609375 102.868652,9.609375 C101.682129,9.609375 100.935059,8.80371094 100.905762,7.44140625 L106.340332,7.44140625 L106.340332,6.85546875 C106.340332,4.51171875 104.963379,2.95166016 102.744141,2.95166016 C100.524902,2.95166016 99.0966797,4.56298828 99.0966797,7.00927734 L99.0966797,7.01660156 C99.0966797,9.48486328 100.50293,11.0302734 102.832031,11.0302734 Z M102.766113,4.37988281 C103.73291,4.37988281 104.436035,4.99511719 104.567871,6.22558594 L100.927734,6.22558594 C101.074219,5.03173828 101.799316,4.37988281 102.766113,4.37988281 Z" id="e"></path>
                    <path d="M107.563477,10.8764648 L109.387207,10.8764648 L109.387207,6.40136719 C109.387207,5.2734375 110.061035,4.48974609 111.09375,4.48974609 C112.141113,4.48974609 112.741699,5.20751953 112.741699,6.40136719 L112.741699,10.8764648 L114.56543,10.8764648 L114.56543,6.04248047 C114.56543,4.16748047 113.496094,2.95166016 111.826172,2.95166016 C110.661621,2.95166016 109.833984,3.48632812 109.431152,4.41650391 L109.387207,4.41650391 L109.387207,0.307617188 L107.563477,0.307617188 L107.563477,10.8764648 Z" id="h"></path>
                    <path d="M116.99707,1.99951172 C117.568359,1.99951172 118.007812,1.54541016 118.007812,1.00341797 C118.007812,0.446777344 117.568359,0 116.99707,0 C116.425781,0 115.979004,0.446777344 115.979004,1.00341797 C115.979004,1.54541016 116.425781,1.99951172 116.99707,1.99951172 Z M116.081543,10.8764648 L117.905273,10.8764648 L117.905273,3.11279297 L116.081543,3.11279297 L116.081543,10.8764648 Z" id="i"></path>
                    <path d="M119.450684,10.8764648 L121.274414,10.8764648 L121.274414,6.37207031 C121.274414,5.25146484 121.940918,4.48974609 122.988281,4.48974609 C124.02832,4.48974609 124.541016,5.11230469 124.541016,6.21826172 L124.541016,10.8764648 L126.364746,10.8764648 L126.364746,5.85205078 C126.364746,4.05029297 125.390625,2.95166016 123.684082,2.95166016 C122.504883,2.95166016 121.713867,3.49365234 121.311035,4.32861328 L121.274414,4.32861328 L121.274414,3.11279297 L119.450684,3.11279297 L119.450684,10.8764648 Z" id="n"></path>
                    <path d="M130.708008,11.0302734 C131.828613,11.0302734 132.685547,10.4736328 133.125,9.55810547 L133.168945,9.55810547 L133.168945,10.8764648 L134.992676,10.8764648 L134.992676,0.307617188 L133.168945,0.307617188 L133.168945,4.44580078 L133.125,4.44580078 C132.685547,3.515625 131.799316,2.95166016 130.700684,2.95166016 C128.752441,2.95166016 127.5,4.48242188 127.5,6.98730469 L127.5,6.99462891 C127.5,9.4921875 128.745117,11.0302734 130.708008,11.0302734 Z M131.257324,9.4921875 C130.085449,9.4921875 129.360352,8.54003906 129.360352,6.99462891 L129.360352,6.98730469 C129.360352,5.44189453 130.092773,4.48974609 131.257324,4.48974609 C132.37793,4.48974609 133.168945,5.47119141 133.168945,6.98730469 L133.168945,6.99462891 C133.168945,8.51806641 132.385254,9.4921875 131.257324,9.4921875 Z" id="d"></path>
                    <path d="M142.412109,11.0302734 C142.77832,11.0302734 143.100586,10.9936523 143.312988,10.9643555 L143.312988,9.59472656 C143.188477,9.60205078 143.049316,9.62402344 142.873535,9.62402344 C142.207031,9.62402344 141.870117,9.38232422 141.870117,8.62060547 L141.870117,4.51904297 L143.312988,4.51904297 L143.312988,3.11279297 L141.870117,3.11279297 L141.870117,1.14257812 L140.01709,1.14257812 L140.01709,3.11279297 L138.918457,3.11279297 L138.918457,4.51904297 L140.01709,4.51904297 L140.01709,8.77441406 C140.01709,10.3710938 140.786133,11.0302734 142.412109,11.0302734 Z" id="t"></path>
                    <path d="M144.609375,10.8764648 L146.433105,10.8764648 L146.433105,6.40136719 C146.433105,5.2734375 147.106934,4.48974609 148.139648,4.48974609 C149.187012,4.48974609 149.787598,5.20751953 149.787598,6.40136719 L149.787598,10.8764648 L151.611328,10.8764648 L151.611328,6.04248047 C151.611328,4.16748047 150.541992,2.95166016 148.87207,2.95166016 C147.70752,2.95166016 146.879883,3.48632812 146.477051,4.41650391 L146.433105,4.41650391 L146.433105,0.307617188 L144.609375,0.307617188 L144.609375,10.8764648 Z" id="h"></path>
                    <path d="M156.489258,11.0302734 C158.518066,11.0302734 159.660645,9.82910156 159.902344,8.63525391 L159.924316,8.5546875 L158.217773,8.5546875 L158.203125,8.60595703 C158.027344,9.12597656 157.434082,9.609375 156.525879,9.609375 C155.339355,9.609375 154.592285,8.80371094 154.562988,7.44140625 L159.997559,7.44140625 L159.997559,6.85546875 C159.997559,4.51171875 158.620605,2.95166016 156.401367,2.95166016 C154.182129,2.95166016 152.753906,4.56298828 152.753906,7.00927734 L152.753906,7.01660156 C152.753906,9.48486328 154.160156,11.0302734 156.489258,11.0302734 Z M156.42334,4.37988281 C157.390137,4.37988281 158.093262,4.99511719 158.225098,6.22558594 L154.584961,6.22558594 C154.731445,5.03173828 155.456543,4.37988281 156.42334,4.37988281 Z" id="e"></path>
                    <path d="M167.20459,11.0302734 C169.108887,11.0302734 170.463867,10.0488281 170.463867,8.58398438 L170.463867,8.57666016 C170.463867,7.44873047 169.841309,6.81884766 168.237305,6.45996094 L166.940918,6.17431641 C166.135254,5.99121094 165.834961,5.69824219 165.834961,5.25146484 L165.834961,5.24414062 C165.834961,4.67285156 166.340332,4.29931641 167.145996,4.29931641 C167.995605,4.29931641 168.493652,4.75341797 168.574219,5.37597656 L168.581543,5.43457031 L170.280762,5.43457031 L170.273438,5.35400391 C170.20752,4.01367188 169.07959,2.95166016 167.145996,2.95166016 C165.270996,2.95166016 164.033203,3.91113281 164.033203,5.33203125 L164.033203,5.33935547 C164.033203,6.48925781 164.780273,7.21435547 166.26709,7.54394531 L167.556152,7.82958984 C168.361816,8.01269531 168.632812,8.27636719 168.632812,8.74511719 L168.632812,8.75244141 C168.632812,9.32373047 168.098145,9.68261719 167.211914,9.68261719 C166.289062,9.68261719 165.783691,9.28710938 165.644531,8.62060547 L165.629883,8.5546875 L163.835449,8.5546875 L163.842773,8.62060547 C164.003906,10.0634766 165.168457,11.0302734 167.20459,11.0302734 Z" id="s"></path>
                    <path d="M174.506836,11.0302734 C174.873047,11.0302734 175.195312,10.9936523 175.407715,10.9643555 L175.407715,9.59472656 C175.283203,9.60205078 175.144043,9.62402344 174.968262,9.62402344 C174.301758,9.62402344 173.964844,9.38232422 173.964844,8.62060547 L173.964844,4.51904297 L175.407715,4.51904297 L175.407715,3.11279297 L173.964844,3.11279297 L173.964844,1.14257812 L172.111816,1.14257812 L172.111816,3.11279297 L171.013184,3.11279297 L171.013184,4.51904297 L172.111816,4.51904297 L172.111816,8.77441406 C172.111816,10.3710938 172.880859,11.0302734 174.506836,11.0302734 Z" id="t"></path>
                    <path d="M180.087891,11.0302734 C182.365723,11.0302734 183.845215,9.51416016 183.845215,6.99462891 L183.845215,6.97998047 C183.845215,4.47509766 182.34375,2.95166016 180.080566,2.95166016 C177.824707,2.95166016 176.330566,4.48974609 176.330566,6.97998047 L176.330566,6.99462891 C176.330566,9.50683594 177.802734,11.0302734 180.087891,11.0302734 Z M180.095215,9.55810547 C178.930664,9.55810547 178.190918,8.62792969 178.190918,6.99462891 L178.190918,6.97998047 C178.190918,5.36865234 178.945312,4.43115234 180.080566,4.43115234 C181.237793,4.43115234 181.984863,5.36132812 181.984863,6.97998047 L181.984863,6.99462891 C181.984863,8.62060547 181.245117,9.55810547 180.095215,9.55810547 Z" id="o"></path>
                    <path d="M185.01709,10.8764648 L186.84082,10.8764648 L186.84082,6.37207031 C186.84082,5.22216797 187.463379,4.5703125 188.496094,4.5703125 C188.803711,4.5703125 189.082031,4.61425781 189.23584,4.67285156 L189.23584,3.02490234 C189.09668,2.98828125 188.884277,2.95166016 188.657227,2.95166016 C187.763672,2.95166016 187.119141,3.515625 186.877441,4.453125 L186.84082,4.453125 L186.84082,3.11279297 L185.01709,3.11279297 L185.01709,10.8764648 Z" id="r"></path>
                    <path d="M191.213379,13.4545898 C192.832031,13.4545898 193.740234,12.8466797 194.333496,11.1401367 L197.124023,3.11279297 L195.205078,3.11279297 L193.381348,9.32373047 L193.330078,9.32373047 L191.513672,3.11279297 L189.521484,3.11279297 L192.312012,10.8837891 L192.202148,11.1987305 C191.967773,11.8505859 191.57959,12.0483398 190.883789,12.0483398 C190.627441,12.0483398 190.415039,12.0117188 190.275879,11.9824219 L190.275879,13.3740234 C190.495605,13.4106445 190.861816,13.4545898 191.213379,13.4545898 Z" id="y"></path>
                </g>
                <g id="shutterstock_473333437" transform="translate(0.000000, 0.036000)">
                    <path d="M37.8664776,35.7140261 L31.33024,27.0074541 C31.1058748,26.709699 30.6799817,26.6466989 30.3798933,26.8710868 L29.59752,27.4504484 L29.0525331,26.7278414 L28.3799384,25.8286946 L28.701061,25.5892544 C28.9106021,25.4319536 28.952971,25.1412759 28.7978185,24.9328374 L28.1027874,24.0036858 C33.0364168,19.1586602 33.750579,11.3151495 29.4876412,5.6333791 C24.8298607,-0.574721138 15.9957835,-1.84449186 9.75993474,2.7888056 C6.57875744,5.15130882 4.69739556,8.59697491 4.22222222,12.2261587 L7.01156182,12.2261587 C7.46580108,9.43591276 8.95432362,6.81383324 11.410521,4.98982126 C13.9182022,3.12563675 16.9484339,2.44908362 19.8217101,2.86107627 C22.6927827,3.27605943 25.4008901,4.78327667 27.2770435,7.27696361 C29.150192,9.77463791 29.8298982,12.7873778 29.4120181,15.6430162 C28.9950395,18.50324 27.486284,21.2012785 24.9748968,23.0666592 C22.4652123,24.930744 19.4398887,25.6052038 16.5677143,25.192314 C13.6987451,24.7783277 10.9845277,23.2740012 9.1103776,20.776327 C8.14360419,19.491504 7.50316189,18.0673233 7.15769965,16.5970887 L4.34782664,16.5970887 C4.73375473,18.6425978 5.56430644,20.6411559 6.90178315,22.4221045 C11.2432488,28.208144 19.2133199,29.7054926 25.3273704,26.1255526 L25.9465782,26.9483417 L25.9960587,27.0174225 C26.1511111,27.2228705 26.4482947,27.2659339 26.6568341,27.1106267 L26.9788582,26.8710868 L27.5911547,27.6869978 L28.1972411,28.4926413 L27.413165,29.0721025 C27.1148796,29.2985838 27.0533795,29.7224388 27.2770435,30.0211908 L33.811979,38.7298562 C34.0374459,39.0295053 34.4635394,39.0876209 34.7637279,38.8652266 L37.7264497,36.664211 C38.0286415,36.439823 38.0881383,36.0146721 37.8664776,35.7140261" id="Fill-4"></path>
                    <path d="M24.4023891,7.91024828 C24.2687481,7.58695867 23.9472484,7.37837838 23.5655641,7.37837838 C23.1994145,7.38545556 22.8703018,7.61369469 22.7482862,7.94189902 L20.2254656,14.7471995 L18.9685821,12.1627502 C18.8270193,11.8671795 18.5081946,11.6755058 18.1317571,11.6755058 C18.1317571,11.6755058 18.1317571,11.6755058 18.1296995,11.6755058 C17.778056,11.6903483 17.4686962,11.903745 17.3456518,12.2171069 L15.2232398,17.5310878 L14.3574026,14.5227939 C14.2464981,14.1600883 13.8991756,13.903049 13.5008247,13.903049 L0,13.903049 L0,15.5890893 L12.8306651,15.5890893 L14.2350785,20.4643833 C14.3398102,20.8152936 14.664602,21.0613239 14.954929,21.0682045 L15.0875412,21.0810811 C15.4516331,21.0810811 15.7815689,20.8607055 15.9089342,20.53948 L18.2496574,14.6829151 L19.5333926,17.3305677 C19.6791734,17.62604 19.9914139,17.8186966 20.3744357,17.8186966 C20.3773164,17.8186966 20.3773164,17.8186966 20.3783452,17.8186966 C20.7385276,17.7990378 21.0456241,17.5797434 21.1654792,17.2564538 L23.6287323,10.6210057 L26.5600889,17.6922903 L27.4444444,17.5310878 L27.4444444,15.3242848 L24.4023891,7.91024828" id="Fill-5"></path>
                </g>
            </g>
        </g>
    </g>
</svg>