<?xml version="1.0" encoding="UTF-8"?>
<svg width="400px" height="400px" viewBox="0 0 400 400" version="1.1" xmlns="http://www.w3.org/2000/svg" xmlns:xlink="http://www.w3.org/1999/xlink">
    <title>logo</title>
    <g id="logo" stroke="none" stroke-width="1" fill="none" fill-rule="evenodd">
        <g id="iStock-1171091277" transform="translate(4.000000, 0.000000)">
            <path d="M0,191.897315 C0.462577839,172.864379 3.69553273,153.771028 9.60907733,135.643715 C18.4571001,108.5214 33.4668551,83.0294916 53.2935684,61.939172 C76.9225005,36.8042645 107.09695,18.1500956 140.282838,8.23502742 C158.538578,2.78053973 177.712755,0.0154598741 196.621642,0 C196.725071,0 196.828499,0 196.931928,0 C223.688757,0.0620429159 250.565711,5.63349676 275.208771,16.3652939 C300.096559,27.2034793 322.709733,43.2984288 341.045895,63.1049685 C342.057377,64.1975341 343.057457,65.3008809 344.042471,66.4176534 L344.0724,66.4516245 L328.034672,80.5860178 C313.217522,63.8033073 295.41479,50.1386094 275.614749,40.1537683 C257.036914,30.785288 236.779384,24.7591918 216.100811,22.4503817 C197.209637,20.3409225 177.968476,21.3262861 159.376186,25.3657885 C140.671509,29.4297012 122.729515,36.5113406 106.162632,46.4882483 C88.9385299,56.8608068 73.7033903,69.9990553 60.8501601,85.7229678 C47.0446956,102.612067 36.3312951,122.273162 29.6127185,143.284554 C24.6192396,158.901265 21.876552,175.060495 21.3964646,191.353575 L21.3846559,191.897315 L0,191.897315" id="Fill-2" fill="#F1F608"></path>
            <path d="M58.9440626,191.897315 L37.5480051,191.897315 C37.637996,188.6245 37.8338587,185.344362 38.1307066,182.084567 L38.1528989,181.842294 C38.5326118,177.795062 39.066653,173.744982 39.752783,169.730907 L39.7937065,169.491889 C41.1103838,161.918788 42.9517368,154.527544 45.2929263,147.335855 L45.3678509,147.105788 C46.1001979,144.878345 46.8801873,142.662701 47.705172,140.474315 L47.7904802,140.248316 C53.2023559,126.020147 60.5824269,112.688446 69.7120277,100.632592 C85.7703196,79.4265272 106.929184,62.6126936 131.011939,51.7319935 C151.362717,42.5372334 173.625701,37.6962586 196.076403,37.6096837 C196.360628,37.6096837 196.644649,37.6096837 196.92867,37.6096837 C220.133301,37.664932 243.534405,42.8732822 264.66334,52.851207 C282.991766,61.5067023 299.620747,73.6858284 313.432523,88.5806035 C314.262394,89.4754454 315.079642,90.3804583 315.888135,91.2923875 L299.880947,105.461566 C299.746368,105.309815 299.611788,105.158267 299.477006,105.00672 C288.087248,92.2622911 273.806175,81.2184487 257.981615,73.3589335 C235.86278,62.3734724 210.666336,57.5103249 186.131387,59.3720192 C159.839171,61.3669532 134.295794,70.9417008 112.948396,87.245562 C97.2345947,99.2466961 84.154962,114.681753 74.8789733,132.153852 C70.1287956,141.101051 66.4051662,150.543982 63.7559308,160.188096 C62.4494334,164.944041 61.3876626,169.874724 60.6237576,174.5849 C59.6961587,180.302816 59.1380928,186.109423 58.9440626,191.897315" id="Fill-3" fill="#F1F608"></path>
            <path d="M96.5720822,191.897315 L75.2299786,191.897315 C75.441722,186.557149 75.9193662,181.225323 76.8382103,175.87702 C79.461385,160.606123 85.0595541,145.84296 93.3607089,132.499461 C109.8262,106.032564 136.554525,86.5061325 166.518249,78.8522743 C176.247247,76.3670995 186.286529,75.111595 196.340879,75.0715214 C196.542442,75.0715214 196.744005,75.0715214 196.945569,75.0715214 C218.702812,75.1288856 240.587304,81.0998552 259.397446,92.4158728 C269.924756,98.7489288 279.551954,106.734768 287.751309,115.964516 L271.757151,130.148137 C271.648225,130.025678 271.539096,129.903626 271.429763,129.781575 C255.140386,111.621715 231.980547,99.5603688 207.276406,96.984469 C190.237987,95.2080074 172.752259,97.8402544 157.14209,104.546992 C138.503175,112.5548 122.36548,126.474789 111.683026,143.524386 C106.322254,152.080002 102.261057,161.445228 99.6895963,171.284624 C97.9201139,178.054828 96.8988593,184.953797 96.5720822,191.897315" id="Fill-4" fill="#F1F608"></path>
            <path d="M328.696166,172.087724 L392.993875,172.087724 C392.993875,182.718015 393.007924,193.346271 392.993468,203.974324 L392.993061,204.2703 C392.892279,228.913542 388.244308,253.2305 379.056682,276.301922 C370.727838,297.216894 358.710994,316.656872 343.819734,333.549632 L343.843962,333.570991 C340.325764,337.547027 336.652424,341.373549 332.836157,345.042218 C328.098195,349.614882 323.13098,353.948122 317.954466,358.014883 C307.625461,366.129486 296.49855,373.183664 284.775704,379.073062 C279.066166,381.946768 273.211868,384.54362 267.233783,386.848972 C264.141108,388.04162 261.018504,389.154527 257.870043,390.186881 C251.435487,392.303866 244.882641,394.091109 238.238989,395.534777 C229.494802,397.435121 220.623568,398.721545 211.706322,399.400762 C196.882657,400.556388 181.914232,400.046009 167.156737,397.822228 C159.279273,396.635276 151.473068,394.956862 143.795131,392.812008 C137.00448,390.934651 130.313389,388.690528 123.761561,386.082895 C113.16523,381.8654 102.972026,376.730281 93.3045155,370.767652 C87.7309819,367.342069 82.3333581,363.64065 77.1429986,359.677226 C69.4396117,353.794744 62.1546215,347.316446 55.4148705,340.378218 L55.4103914,340.373539 L55.2196187,340.177036 L55.2012948,340.158118 C53.1927867,338.084867 51.2296813,335.966254 49.3138109,333.804313 L49.1073611,333.570991 L49.1077683,333.570584 C48.055363,332.37936 47.0188384,331.176745 45.9992126,329.963348 C33.6183331,315.232732 23.531408,298.938229 15.8459378,281.019421 C6.56302669,259.376411 1.21915321,236.04624 0.155957141,212.514888 C0.0897873358,211.048234 0.041127079,209.58097 0.00956917184,208.107603 L96.5431711,208.107603 C97.2848837,224.044089 101.934483,240.095303 109.996205,253.928432 C114.703423,262.005403 120.525959,269.38139 127.261842,275.83304 C138.443521,286.493437 152.106058,294.501245 166.785779,299.100964 C176.867207,302.211247 187.435034,303.732417 197.985758,303.592464 C208.428982,303.419151 218.851032,301.62011 228.783629,298.250874 C239.145006,294.697951 248.941191,289.445459 257.633257,282.760284 C265.776826,276.462013 272.958794,268.910678 278.813702,260.446804 L196.85965,260.446804 L196.85965,172.087724 L328.696166,172.087724 L328.696166,172.087724" id="Fill-5" fill="#FFFFFF"></path>
        </g>
    </g>
</svg>