<?xml version="1.0" encoding="UTF-8"?>
<svg width="400px" height="400px" viewBox="0 0 400 400" version="1.1" xmlns="http://www.w3.org/2000/svg" xmlns:xlink="http://www.w3.org/1999/xlink">
    <title>logo</title>
    <g id="logo" stroke="none" stroke-width="1" fill="none" fill-rule="evenodd">
        <g id="Group" transform="translate(50.000000, 48.000000)" fill="#FFC53C">
            <path d="M98.7809853,0 L27.4389708,93.3531251 C27.4389708,93.3531251 89.6344525,235.776392 230.48792,242.793691 L289.024161,140.133552 C289.024161,140.133552 175.610292,137.7192 98.7809853,0" id="Fill-3"></path>
            <path d="M32.3443677,144.255196 L0,206.224093 C0,206.224093 92.3438971,293.658136 258.840602,268.091086 L300,187.660233 L250.610292,260.034361 C250.610292,260.034361 111.280201,280.942025 25.3043615,200.48452 L46.2036398,159.139521 L32.3443677,144.255196" id="Fill-4"></path>
            <path d="M38.9450894,250.593303 L32.387198,290.848708 C32.387198,290.848708 160.622843,326.424345 289.024161,280.551652 L300,232.807052 L282.52118,272.775557 C282.52118,272.775557 198.206778,306.76462 47.3765297,285.232987 L49.2502353,254.338685 L38.9450894,250.593303" id="Fill-5"></path>
        </g>
    </g>
</svg>