<?xml version="1.0" encoding="UTF-8"?>
<svg width="400px" height="400px" viewBox="0 0 400 400" version="1.1" xmlns="http://www.w3.org/2000/svg" xmlns:xlink="http://www.w3.org/1999/xlink">
    <title>logo</title>
    <g id="logo" stroke="none" stroke-width="1" fill="none" fill-rule="evenodd">
        <g id="Group" transform="translate(3.000000, 0.000000)" fill="#FFC53C">
            <path d="M129.81897,0 L36,122.654121 C36,122.654121 117.790738,309.780162 303.02138,319 L380,184.117646 C380,184.117646 230.854053,180.945495 129.81897,0" id="Fill-3"></path>
            <path d="M42.5867509,190 L0,271.487393 C0,271.487393 121.586131,386.460752 340.806793,352.840785 L395,247.076428 L329.970218,342.246414 C329.970218,342.246414 146.518931,369.739416 33.3174093,263.940012 L60.8347924,209.572477 L42.5867509,190" id="Fill-4"></path>
            <path d="M50.6258122,329.484174 L42,382.635619 C42,382.635619 210.672599,429.608108 379.563114,369.039845 L394,306 L371.009528,358.772635 C371.009528,358.772635 260.107996,403.650281 61.7159654,375.220872 L64.1805127,334.429409 L50.6258122,329.484174" id="Fill-5"></path>
        </g>
    </g>
</svg>