<?xml version="1.0" encoding="UTF-8"?>
<svg width="221px" height="39px" viewBox="0 0 221 39" version="1.1" xmlns="http://www.w3.org/2000/svg" xmlns:xlink="http://www.w3.org/1999/xlink">
    <title>Logo</title>
    <g id="Page-1" stroke="none" stroke-width="1" fill="none" fill-rule="evenodd">
        <g id="https://www.istockphoto.com/photo/man-with-alms-bowl-sleeping-under-american-flag-gm1094446910-293738764" transform="translate(-1233.000000, -102.000000)" fill="#FFFFFF">
            <g id="Group-3" transform="translate(316.000000, 92.000000)">
                <g id="Group-2" transform="translate(901.000000, 0.000000)">
                    <g id="Logo" transform="translate(16.000000, 10.000000)">
                        <g id="Analysis-Bureau" transform="translate(50.024000, 9.964000)" fill-rule="nonzero">
                            <path d="M17.688,18.036 L14.544,18.036 C14.192,18.036 13.902,17.954 13.674,17.79 C13.446,17.626 13.288,17.416 13.2,17.16 L12.168,14.112 L5.52,14.112 L4.488,17.16 C4.408,17.384 4.252,17.586 4.02,17.766 C3.788,17.946 3.504,18.036 3.168,18.036 L0,18.036 L6.768,0.552 L10.92,0.552 L17.688,18.036 Z M6.456,11.352 L11.232,11.352 L9.624,6.564 C9.52,6.26 9.398,5.902 9.258,5.49 C9.118,5.078 8.98,4.632 8.844,4.152 C8.716,4.64 8.584,5.092 8.448,5.508 C8.312,5.924 8.184,6.284 8.064,6.588 L6.456,11.352 Z" id="A"></path>
                            <path d="M19.104,18.036 L19.104,5.592 L21.408,5.592 C21.64,5.592 21.834,5.644 21.99,5.748 C22.146,5.852 22.256,6.008 22.32,6.216 L22.536,6.936 C22.776,6.712 23.024,6.504 23.28,6.312 C23.536,6.12 23.81,5.958 24.102,5.826 C24.394,5.694 24.71,5.59 25.05,5.514 C25.39,5.438 25.76,5.4 26.16,5.4 C26.84,5.4 27.442,5.518 27.966,5.754 C28.49,5.99 28.932,6.318 29.292,6.738 C29.652,7.158 29.924,7.658 30.108,8.238 C30.292,8.818 30.384,9.448 30.384,10.128 L30.384,18.036 L26.664,18.036 L26.664,10.128 C26.664,9.52 26.524,9.046 26.244,8.706 C25.964,8.366 25.552,8.196 25.008,8.196 C24.6,8.196 24.216,8.284 23.856,8.46 C23.496,8.636 23.152,8.872 22.824,9.168 L22.824,18.036 L19.104,18.036 Z" id="n"></path>
                            <path d="M41.616,18.036 C41.264,18.036 40.998,17.988 40.818,17.892 C40.638,17.796 40.488,17.596 40.368,17.292 L40.104,16.608 C39.792,16.872 39.492,17.104 39.204,17.304 C38.916,17.504 38.618,17.674 38.31,17.814 C38.002,17.954 37.674,18.058 37.326,18.126 C36.978,18.194 36.592,18.228 36.168,18.228 C35.6,18.228 35.084,18.154 34.62,18.006 C34.156,17.858 33.762,17.64 33.438,17.352 C33.114,17.064 32.864,16.706 32.688,16.278 C32.512,15.85 32.424,15.356 32.424,14.796 C32.424,14.356 32.536,13.904 32.76,13.44 C32.984,12.976 33.372,12.554 33.924,12.174 C34.476,11.794 35.22,11.476 36.156,11.22 C37.092,10.964 38.272,10.82 39.696,10.788 L39.696,10.26 C39.696,9.532 39.546,9.006 39.246,8.682 C38.946,8.358 38.52,8.196 37.968,8.196 C37.528,8.196 37.168,8.244 36.888,8.34 C36.608,8.436 36.358,8.544 36.138,8.664 C35.918,8.784 35.704,8.892 35.496,8.988 C35.288,9.084 35.04,9.132 34.752,9.132 C34.496,9.132 34.278,9.07 34.098,8.946 C33.918,8.822 33.776,8.668 33.672,8.484 L33,7.32 C33.752,6.656 34.586,6.162 35.502,5.838 C36.418,5.514 37.4,5.352 38.448,5.352 C39.2,5.352 39.878,5.474 40.482,5.718 C41.086,5.962 41.598,6.302 42.018,6.738 C42.438,7.174 42.76,7.692 42.984,8.292 C43.208,8.892 43.32,9.548 43.32,10.26 L43.32,18.036 L41.616,18.036 Z M37.344,15.768 C37.824,15.768 38.244,15.684 38.604,15.516 C38.964,15.348 39.328,15.076 39.696,14.7 L39.696,12.972 C38.952,13.004 38.34,13.068 37.86,13.164 C37.38,13.26 37,13.38 36.72,13.524 C36.44,13.668 36.246,13.832 36.138,14.016 C36.03,14.2 35.976,14.4 35.976,14.616 C35.976,15.04 36.092,15.338 36.324,15.51 C36.556,15.682 36.896,15.768 37.344,15.768 Z" id="a"></path>
                            <polygon id="l" points="49.8 0.072 49.8 18.036 46.08 18.036 46.08 0.072"></polygon>
                            <path d="M57.888,21.264 C57.776,21.512 57.64,21.694 57.48,21.81 C57.32,21.926 57.064,21.984 56.712,21.984 L53.928,21.984 L56.328,16.944 L51.36,5.592 L54.648,5.592 C54.936,5.592 55.16,5.656 55.32,5.784 C55.48,5.912 55.592,6.064 55.656,6.24 L57.696,11.604 C57.888,12.1 58.044,12.596 58.164,13.092 C58.244,12.836 58.332,12.584 58.428,12.336 C58.524,12.088 58.616,11.836 58.704,11.58 L60.552,6.24 C60.616,6.056 60.742,5.902 60.93,5.778 C61.118,5.654 61.32,5.592 61.536,5.592 L64.536,5.592 L57.888,21.264 Z" id="y"></path>
                            <path d="M73.68,8.316 C73.584,8.468 73.482,8.576 73.374,8.64 C73.266,8.704 73.128,8.736 72.96,8.736 C72.784,8.736 72.608,8.698 72.432,8.622 C72.256,8.546 72.066,8.464 71.862,8.376 C71.658,8.288 71.428,8.206 71.172,8.13 C70.916,8.054 70.624,8.016 70.296,8.016 C69.824,8.016 69.462,8.106 69.21,8.286 C68.958,8.466 68.832,8.716 68.832,9.036 C68.832,9.268 68.914,9.46 69.078,9.612 C69.242,9.764 69.46,9.898 69.732,10.014 C70.004,10.13 70.312,10.24 70.656,10.344 C71,10.448 71.352,10.564 71.712,10.692 C72.072,10.82 72.424,10.97 72.768,11.142 C73.112,11.314 73.42,11.526 73.692,11.778 C73.964,12.03 74.182,12.336 74.346,12.696 C74.51,13.056 74.592,13.488 74.592,13.992 C74.592,14.608 74.48,15.176 74.256,15.696 C74.032,16.216 73.698,16.664 73.254,17.04 C72.81,17.416 72.262,17.708 71.61,17.916 C70.958,18.124 70.208,18.228 69.36,18.228 C68.936,18.228 68.512,18.188 68.088,18.108 C67.664,18.028 67.254,17.92 66.858,17.784 C66.462,17.648 66.096,17.486 65.76,17.298 C65.424,17.11 65.136,16.908 64.896,16.692 L65.76,15.324 C65.864,15.164 65.988,15.038 66.132,14.946 C66.276,14.854 66.464,14.808 66.696,14.808 C66.912,14.808 67.106,14.856 67.278,14.952 C67.45,15.048 67.636,15.152 67.836,15.264 C68.036,15.376 68.27,15.48 68.538,15.576 C68.806,15.672 69.144,15.72 69.552,15.72 C69.84,15.72 70.084,15.69 70.284,15.63 C70.484,15.57 70.644,15.488 70.764,15.384 C70.884,15.28 70.972,15.164 71.028,15.036 C71.084,14.908 71.112,14.776 71.112,14.64 C71.112,14.392 71.028,14.188 70.86,14.028 C70.692,13.868 70.472,13.73 70.2,13.614 C69.928,13.498 69.618,13.39 69.27,13.29 C68.922,13.19 68.568,13.076 68.208,12.948 C67.848,12.82 67.494,12.666 67.146,12.486 C66.798,12.306 66.488,12.078 66.216,11.802 C65.944,11.526 65.724,11.188 65.556,10.788 C65.388,10.388 65.304,9.904 65.304,9.336 C65.304,8.808 65.406,8.306 65.61,7.83 C65.814,7.354 66.12,6.936 66.528,6.576 C66.936,6.216 67.448,5.93 68.064,5.718 C68.68,5.506 69.4,5.4 70.224,5.4 C70.672,5.4 71.106,5.44 71.526,5.52 C71.946,5.6 72.34,5.712 72.708,5.856 C73.076,6 73.412,6.17 73.716,6.366 C74.02,6.562 74.288,6.776 74.52,7.008 L73.68,8.316 Z" id="s"></path>
                            <path d="M80.472,5.592 L80.472,18.036 L76.752,18.036 L76.752,5.592 L80.472,5.592 Z M80.904,2.184 C80.904,2.48 80.844,2.758 80.724,3.018 C80.604,3.278 80.44,3.506 80.232,3.702 C80.024,3.898 79.782,4.054 79.506,4.17 C79.23,4.286 78.936,4.344 78.624,4.344 C78.32,4.344 78.036,4.286 77.772,4.17 C77.508,4.054 77.274,3.898 77.07,3.702 C76.866,3.506 76.706,3.278 76.59,3.018 C76.474,2.758 76.416,2.48 76.416,2.184 C76.416,1.88 76.474,1.596 76.59,1.332 C76.706,1.068 76.866,0.836 77.07,0.636 C77.274,0.436 77.508,0.28 77.772,0.168 C78.036,0.056 78.32,0 78.624,0 C78.936,0 79.23,0.056 79.506,0.168 C79.782,0.28 80.024,0.436 80.232,0.636 C80.44,0.836 80.604,1.068 80.724,1.332 C80.844,1.596 80.904,1.88 80.904,2.184 Z" id="i"></path>
                            <path d="M91.08,8.316 C90.984,8.468 90.882,8.576 90.774,8.64 C90.666,8.704 90.528,8.736 90.36,8.736 C90.184,8.736 90.008,8.698 89.832,8.622 C89.656,8.546 89.466,8.464 89.262,8.376 C89.058,8.288 88.828,8.206 88.572,8.13 C88.316,8.054 88.024,8.016 87.696,8.016 C87.224,8.016 86.862,8.106 86.61,8.286 C86.358,8.466 86.232,8.716 86.232,9.036 C86.232,9.268 86.314,9.46 86.478,9.612 C86.642,9.764 86.86,9.898 87.132,10.014 C87.404,10.13 87.712,10.24 88.056,10.344 C88.4,10.448 88.752,10.564 89.112,10.692 C89.472,10.82 89.824,10.97 90.168,11.142 C90.512,11.314 90.82,11.526 91.092,11.778 C91.364,12.03 91.582,12.336 91.746,12.696 C91.91,13.056 91.992,13.488 91.992,13.992 C91.992,14.608 91.88,15.176 91.656,15.696 C91.432,16.216 91.098,16.664 90.654,17.04 C90.21,17.416 89.662,17.708 89.01,17.916 C88.358,18.124 87.608,18.228 86.76,18.228 C86.336,18.228 85.912,18.188 85.488,18.108 C85.064,18.028 84.654,17.92 84.258,17.784 C83.862,17.648 83.496,17.486 83.16,17.298 C82.824,17.11 82.536,16.908 82.296,16.692 L83.16,15.324 C83.264,15.164 83.388,15.038 83.532,14.946 C83.676,14.854 83.864,14.808 84.096,14.808 C84.312,14.808 84.506,14.856 84.678,14.952 C84.85,15.048 85.036,15.152 85.236,15.264 C85.436,15.376 85.67,15.48 85.938,15.576 C86.206,15.672 86.544,15.72 86.952,15.72 C87.24,15.72 87.484,15.69 87.684,15.63 C87.884,15.57 88.044,15.488 88.164,15.384 C88.284,15.28 88.372,15.164 88.428,15.036 C88.484,14.908 88.512,14.776 88.512,14.64 C88.512,14.392 88.428,14.188 88.26,14.028 C88.092,13.868 87.872,13.73 87.6,13.614 C87.328,13.498 87.018,13.39 86.67,13.29 C86.322,13.19 85.968,13.076 85.608,12.948 C85.248,12.82 84.894,12.666 84.546,12.486 C84.198,12.306 83.888,12.078 83.616,11.802 C83.344,11.526 83.124,11.188 82.956,10.788 C82.788,10.388 82.704,9.904 82.704,9.336 C82.704,8.808 82.806,8.306 83.01,7.83 C83.214,7.354 83.52,6.936 83.928,6.576 C84.336,6.216 84.848,5.93 85.464,5.718 C86.08,5.506 86.8,5.4 87.624,5.4 C88.072,5.4 88.506,5.44 88.926,5.52 C89.346,5.6 89.74,5.712 90.108,5.856 C90.476,6 90.812,6.17 91.116,6.366 C91.42,6.562 91.688,6.776 91.92,7.008 L91.08,8.316 Z" id="s"></path>
                            <path d="M105.504,16.008 C106.152,16.008 106.706,15.932 107.166,15.78 C107.626,15.628 108.002,15.42 108.294,15.156 C108.586,14.892 108.8,14.578 108.936,14.214 C109.072,13.85 109.14,13.452 109.14,13.02 C109.14,12.164 108.844,11.49 108.252,10.998 C107.66,10.506 106.744,10.26 105.504,10.26 L101.904,10.26 L101.904,16.008 L105.504,16.008 Z M101.904,2.808 L101.904,8.448 L104.844,8.448 C106.1,8.448 107.034,8.194 107.646,7.686 C108.258,7.178 108.564,6.492 108.564,5.628 C108.564,4.644 108.272,3.928 107.688,3.48 C107.104,3.032 106.196,2.808 104.964,2.808 L101.904,2.808 Z M104.964,0.804 C106.044,0.804 106.97,0.908 107.742,1.116 C108.514,1.324 109.148,1.624 109.644,2.016 C110.14,2.408 110.506,2.882 110.742,3.438 C110.978,3.994 111.096,4.624 111.096,5.328 C111.096,5.744 111.032,6.144 110.904,6.528 C110.776,6.912 110.58,7.27 110.316,7.602 C110.052,7.934 109.72,8.232 109.32,8.496 C108.92,8.76 108.448,8.98 107.904,9.156 C110.408,9.652 111.66,10.96 111.66,13.08 C111.66,13.816 111.524,14.486 111.252,15.09 C110.98,15.694 110.584,16.216 110.064,16.656 C109.544,17.096 108.904,17.436 108.144,17.676 C107.384,17.916 106.52,18.036 105.552,18.036 L99.348,18.036 L99.348,0.804 L104.964,0.804 Z" id="B"></path>
                            <path d="M124.356,5.844 L124.356,18.036 L122.952,18.036 C122.632,18.036 122.424,17.88 122.328,17.568 L122.16,16.344 C121.896,16.624 121.62,16.88 121.332,17.112 C121.044,17.344 120.736,17.542 120.408,17.706 C120.08,17.87 119.732,17.998 119.364,18.09 C118.996,18.182 118.6,18.228 118.176,18.228 C117.504,18.228 116.914,18.116 116.406,17.892 C115.898,17.668 115.472,17.354 115.128,16.95 C114.784,16.546 114.524,16.06 114.348,15.492 C114.172,14.924 114.084,14.296 114.084,13.608 L114.084,5.844 L116.436,5.844 L116.436,13.608 C116.436,14.48 116.636,15.158 117.036,15.642 C117.436,16.126 118.048,16.368 118.872,16.368 C119.472,16.368 120.032,16.226 120.552,15.942 C121.072,15.658 121.56,15.268 122.016,14.772 L122.016,5.844 L124.356,5.844 Z" id="u"></path>
                            <path d="M129.84,8.184 C130.232,7.384 130.704,6.756 131.256,6.3 C131.808,5.844 132.472,5.616 133.248,5.616 C133.512,5.616 133.762,5.646 133.998,5.706 C134.234,5.766 134.44,5.856 134.616,5.976 L134.46,7.74 C134.404,7.956 134.272,8.064 134.064,8.064 C133.952,8.064 133.784,8.042 133.56,7.998 C133.336,7.954 133.096,7.932 132.84,7.932 C132.464,7.932 132.132,7.986 131.844,8.094 C131.556,8.202 131.298,8.362 131.07,8.574 C130.842,8.786 130.64,9.046 130.464,9.354 C130.288,9.662 130.124,10.012 129.972,10.404 L129.972,18.036 L127.632,18.036 L127.632,5.844 L128.976,5.844 C129.232,5.844 129.406,5.89 129.498,5.982 C129.59,6.074 129.656,6.236 129.696,6.468 L129.84,8.184 Z" id="r"></path>
                            <path d="M144.048,10.584 C144.048,10.12 143.982,9.692 143.85,9.3 C143.718,8.908 143.524,8.568 143.268,8.28 C143.012,7.992 142.7,7.768 142.332,7.608 C141.964,7.448 141.54,7.368 141.06,7.368 C140.076,7.368 139.302,7.652 138.738,8.22 C138.174,8.788 137.816,9.576 137.664,10.584 L144.048,10.584 Z M145.98,16.296 C145.692,16.632 145.36,16.922 144.984,17.166 C144.608,17.41 144.208,17.608 143.784,17.76 C143.36,17.912 142.922,18.024 142.47,18.096 C142.018,18.168 141.572,18.204 141.132,18.204 C140.292,18.204 139.514,18.062 138.798,17.778 C138.082,17.494 137.462,17.078 136.938,16.53 C136.414,15.982 136.006,15.302 135.714,14.49 C135.422,13.678 135.276,12.744 135.276,11.688 C135.276,10.84 135.408,10.05 135.672,9.318 C135.936,8.586 136.314,7.948 136.806,7.404 C137.298,6.86 137.9,6.432 138.612,6.12 C139.324,5.808 140.124,5.652 141.012,5.652 C141.756,5.652 142.442,5.774 143.07,6.018 C143.698,6.262 144.24,6.616 144.696,7.08 C145.152,7.544 145.51,8.116 145.77,8.796 C146.03,9.476 146.16,10.252 146.16,11.124 C146.16,11.484 146.12,11.726 146.04,11.85 C145.96,11.974 145.812,12.036 145.596,12.036 L137.604,12.036 C137.628,12.764 137.732,13.398 137.916,13.938 C138.1,14.478 138.354,14.928 138.678,15.288 C139.002,15.648 139.388,15.916 139.836,16.092 C140.284,16.268 140.784,16.356 141.336,16.356 C141.856,16.356 142.306,16.296 142.686,16.176 C143.066,16.056 143.394,15.926 143.67,15.786 C143.946,15.646 144.178,15.516 144.366,15.396 C144.554,15.276 144.72,15.216 144.864,15.216 C145.056,15.216 145.204,15.288 145.308,15.432 L145.98,16.296 Z" id="e"></path>
                            <path d="M155.232,12.624 C154.28,12.656 153.472,12.73 152.808,12.846 C152.144,12.962 151.604,13.116 151.188,13.308 C150.772,13.5 150.472,13.726 150.288,13.986 C150.104,14.246 150.012,14.536 150.012,14.856 C150.012,15.16 150.062,15.422 150.162,15.642 C150.262,15.862 150.398,16.042 150.57,16.182 C150.742,16.322 150.944,16.424 151.176,16.488 C151.408,16.552 151.66,16.584 151.932,16.584 C152.292,16.584 152.622,16.548 152.922,16.476 C153.222,16.404 153.504,16.302 153.768,16.17 C154.032,16.038 154.284,15.876 154.524,15.684 C154.764,15.492 155,15.272 155.232,15.024 L155.232,12.624 Z M148.368,7.548 C149.048,6.9 149.786,6.416 150.582,6.096 C151.378,5.776 152.252,5.616 153.204,5.616 C153.9,5.616 154.516,5.73 155.052,5.958 C155.588,6.186 156.04,6.504 156.408,6.912 C156.776,7.32 157.054,7.808 157.242,8.376 C157.43,8.944 157.524,9.572 157.524,10.26 L157.524,18.036 L156.48,18.036 C156.248,18.036 156.072,17.998 155.952,17.922 C155.832,17.846 155.736,17.704 155.664,17.496 L155.412,16.428 C155.1,16.716 154.792,16.97 154.488,17.19 C154.184,17.41 153.866,17.598 153.534,17.754 C153.202,17.91 152.848,18.028 152.472,18.108 C152.096,18.188 151.68,18.228 151.224,18.228 C150.744,18.228 150.294,18.162 149.874,18.03 C149.454,17.898 149.088,17.696 148.776,17.424 C148.464,17.152 148.218,16.812 148.038,16.404 C147.858,15.996 147.768,15.52 147.768,14.976 C147.768,14.496 147.898,14.034 148.158,13.59 C148.418,13.146 148.842,12.748 149.43,12.396 C150.018,12.044 150.786,11.756 151.734,11.532 C152.682,11.308 153.848,11.18 155.232,11.148 L155.232,10.26 C155.232,9.34 155.036,8.652 154.644,8.196 C154.252,7.74 153.676,7.512 152.916,7.512 C152.404,7.512 151.974,7.576 151.626,7.704 C151.278,7.832 150.978,7.974 150.726,8.13 C150.474,8.286 150.254,8.428 150.066,8.556 C149.878,8.684 149.684,8.748 149.484,8.748 C149.324,8.748 149.186,8.704 149.07,8.616 C148.954,8.528 148.86,8.424 148.788,8.304 L148.368,7.548 Z" id="a"></path>
                            <path d="M170.808,5.844 L170.808,18.036 L169.404,18.036 C169.084,18.036 168.876,17.88 168.78,17.568 L168.612,16.344 C168.348,16.624 168.072,16.88 167.784,17.112 C167.496,17.344 167.188,17.542 166.86,17.706 C166.532,17.87 166.184,17.998 165.816,18.09 C165.448,18.182 165.052,18.228 164.628,18.228 C163.956,18.228 163.366,18.116 162.858,17.892 C162.35,17.668 161.924,17.354 161.58,16.95 C161.236,16.546 160.976,16.06 160.8,15.492 C160.624,14.924 160.536,14.296 160.536,13.608 L160.536,5.844 L162.888,5.844 L162.888,13.608 C162.888,14.48 163.088,15.158 163.488,15.642 C163.888,16.126 164.5,16.368 165.324,16.368 C165.924,16.368 166.484,16.226 167.004,15.942 C167.524,15.658 168.012,15.268 168.468,14.772 L168.468,5.844 L170.808,5.844 Z" id="u"></path>
                        </g>
                        <g id="shutterstock_473333437">
                            <path d="M37.8664776,35.7140261 L31.33024,27.0074541 C31.1058748,26.709699 30.6799817,26.6466989 30.3798933,26.8710868 L29.59752,27.4504484 L29.0525331,26.7278414 L28.3799384,25.8286946 L28.701061,25.5892544 C28.9106021,25.4319536 28.952971,25.1412759 28.7978185,24.9328374 L28.1027874,24.0036858 C33.0364168,19.1586602 33.750579,11.3151495 29.4876412,5.6333791 C24.8298607,-0.574721138 15.9957835,-1.84449186 9.75993474,2.7888056 C6.57875744,5.15130882 4.69739556,8.59697491 4.22222222,12.2261587 L7.01156182,12.2261587 C7.46580108,9.43591276 8.95432362,6.81383324 11.410521,4.98982126 C13.9182022,3.12563675 16.9484339,2.44908362 19.8217101,2.86107627 C22.6927827,3.27605943 25.4008901,4.78327667 27.2770435,7.27696361 C29.150192,9.77463791 29.8298982,12.7873778 29.4120181,15.6430162 C28.9950395,18.50324 27.486284,21.2012785 24.9748968,23.0666592 C22.4652123,24.930744 19.4398887,25.6052038 16.5677143,25.192314 C13.6987451,24.7783277 10.9845277,23.2740012 9.1103776,20.776327 C8.14360419,19.491504 7.50316189,18.0673233 7.15769965,16.5970887 L4.34782664,16.5970887 C4.73375473,18.6425978 5.56430644,20.6411559 6.90178315,22.4221045 C11.2432488,28.208144 19.2133199,29.7054926 25.3273704,26.1255526 L25.9465782,26.9483417 L25.9960587,27.0174225 C26.1511111,27.2228705 26.4482947,27.2659339 26.6568341,27.1106267 L26.9788582,26.8710868 L27.5911547,27.6869978 L28.1972411,28.4926413 L27.413165,29.0721025 C27.1148796,29.2985838 27.0533795,29.7224388 27.2770435,30.0211908 L33.811979,38.7298562 C34.0374459,39.0295053 34.4635394,39.0876209 34.7637279,38.8652266 L37.7264497,36.664211 C38.0286415,36.439823 38.0881383,36.0146721 37.8664776,35.7140261" id="Fill-4"></path>
                            <path d="M24.4023891,7.91024828 C24.2687481,7.58695867 23.9472484,7.37837838 23.5655641,7.37837838 C23.1994145,7.38545556 22.8703018,7.61369469 22.7482862,7.94189902 L20.2254656,14.7471995 L18.9685821,12.1627502 C18.8270193,11.8671795 18.5081946,11.6755058 18.1317571,11.6755058 C18.1317571,11.6755058 18.1317571,11.6755058 18.1296995,11.6755058 C17.778056,11.6903483 17.4686962,11.903745 17.3456518,12.2171069 L15.2232398,17.5310878 L14.3574026,14.5227939 C14.2464981,14.1600883 13.8991756,13.903049 13.5008247,13.903049 L0,13.903049 L0,15.5890893 L12.8306651,15.5890893 L14.2350785,20.4643833 C14.3398102,20.8152936 14.664602,21.0613239 14.954929,21.0682045 L15.0875412,21.0810811 C15.4516331,21.0810811 15.7815689,20.8607055 15.9089342,20.53948 L18.2496574,14.6829151 L19.5333926,17.3305677 C19.6791734,17.62604 19.9914139,17.8186966 20.3744357,17.8186966 C20.3773164,17.8186966 20.3773164,17.8186966 20.3783452,17.8186966 C20.7385276,17.7990378 21.0456241,17.5797434 21.1654792,17.2564538 L23.6287323,10.6210057 L26.5600889,17.6922903 L27.4444444,17.5310878 L27.4444444,15.3242848 L24.4023891,7.91024828" id="Fill-5"></path>
                        </g>
                    </g>
                </g>
            </g>
        </g>
    </g>
</svg>