<svg width="48" height="38" viewBox="0 0 48 38" fill="none" xmlns="http://www.w3.org/2000/svg">
<g clip-path="url(#clip0_2_9)">
<path d="M13.3965 5.51445C5.99688 5.51445 0 11.5484 0 19C0 26.4516 5.99688 32.4855 13.3965 32.4855C20.7961 32.4855 26.793 26.4516 26.793 19C26.793 11.5484 20.7961 5.51445 13.3965 5.51445ZM34.7937 6.30117C31.0977 6.30117 28.0992 11.9863 28.0992 19C28.0992 26.0137 31.0977 31.6988 34.8012 31.6988C38.5047 31.6988 41.5031 26.0137 41.5031 19H41.4883C41.4883 11.9863 38.4898 6.30117 34.7937 6.30117ZM45.1473 7.62226C43.8484 7.62226 42.7945 12.7137 42.7945 19C42.7945 25.2863 43.8484 30.3777 45.1473 30.3777C46.4461 30.3777 47.5 25.2789 47.5 19C47.5 12.7211 46.4461 7.62226 45.1473 7.62226Z" fill="white"/>
</g>
<defs>
<clipPath id="clip0_2_9">
<rect width="47.5" height="38" fill="white"/>
</clipPath>
</defs>
</svg>
