<?xml version="1.0" encoding="UTF-8"?>
<svg width="230px" height="114px" viewBox="0 0 230 114" version="1.1" xmlns="http://www.w3.org/2000/svg" xmlns:xlink="http://www.w3.org/1999/xlink">
    <title>Group 2</title>
    <g id="Page-1" stroke="none" stroke-width="1" fill="none" fill-rule="evenodd">
        <g id="Artboard" transform="translate(-40.000000, -193.000000)" fill="#002134">
            <g id="Group-2" transform="translate(40.000000, 193.000000)">
                <path d="M64.3235423,101.727018 C64.5669507,102.288088 64.3043259,102.942669 63.7385082,103.182824 C61.9406056,103.955164 57.0528052,106.145074 51.9774333,108.422073 L51.1955185,108.772888 C50.8042125,108.94846 50.4126774,109.124144 50.0222341,109.299333 C46.1661333,111.029298 42.4338719,112.704005 39.7243527,113.902654 C39.1649405,114.153435 38.5073109,113.902654 38.2574971,113.345835 C38.0076832,112.789016 38.2574971,112.132309 38.8190444,111.883654 C40.8004738,111.00592 44.9063884,109.165441 49.1083852,107.280332 C49.7532038,106.990824 50.400922,106.70003 51.0455532,106.410685 L51.8172456,106.064342 C56.6903935,103.877455 61.2469177,101.837437 62.8588219,101.144696 C63.4246395,100.904541 64.080134,101.163823 64.3235423,101.727018 Z M66.5675965,90.78616 C67.184658,90.78616 67.6821505,91.285597 67.6821505,91.8976729 C67.6821505,92.4689438 67.2487793,92.9402423 66.6893026,93.0005432 L66.5670613,93.0071173 L66.5670613,93.0071173 L66.5630489,93.0079772 C66.4550219,93.039037 65.3941072,93.4110057 54.8541034,98.109819 C43.469425,103.182824 37.713031,105.737391 37.7002201,105.743767 C37.1408079,105.996673 36.4810431,105.745892 36.2290941,105.191198 C35.9771451,104.632254 36.2248238,103.975547 36.7863712,103.724766 C36.8055876,103.716265 41.983353,101.418855 53.9487951,96.0886931 C65.3191916,91.0197973 66.4796036,90.7964536 66.5621542,90.7866134 L66.5675965,90.78616 Z M55.552301,0.0203939062 L52.1381786,2.40919041 C54.809265,2.65572101 60.1749245,4.65984477 62.6623871,7.00188547 L60.3265209,7.50557298 C61.3186183,8.10779754 62.249719,8.7758564 63.0818822,9.51060788 C63.9988151,8.77961129 65.1632756,8.34166434 66.4304603,8.34166434 C69.3901718,8.34166434 71.789492,10.7307981 71.789492,13.6779439 C71.789492,15.74134 70.613376,17.5312057 68.892258,18.4191064 C69.6750475,19.860784 70.2419484,21.2035007 70.5945101,22.4483027 C76.9209921,24.2399001 82.6538993,27.429921 87.5348773,31.5848118 L88.0857488,31.3000264 C95.4648652,27.5191821 102.211974,25.2047698 105.698692,26.7732145 L117.143155,31.9163529 L120,33.2021375 L109.667956,45.3140159 L108.954812,46.1492445 C108.954812,46.1492445 107.465112,45.5484013 105.247779,44.8018365 L104.743371,44.6337195 C103.969721,44.3785009 103.121496,44.1108369 102.22692,43.8475838 C103.977752,43.800828 105.852423,43.7838259 107.86588,43.7965775 L116.175927,34.0586188 L104.729329,28.9133552 C102.036891,27.7040801 96.0755212,29.8612228 89.3518993,33.2935238 L89.0017329,33.4699207 L88.3014001,33.8333408 L87.9490985,34.0203641 L87.2423603,34.3965358 C76.5302576,40.1283722 64.5861671,48.4402789 60.9756099,51.3306377 C57.5166491,54.1019816 51.7431738,52.9862181 51.7431738,52.9862181 L49.4350648,55.2836283 C49.4350648,55.2836283 55.5629768,59.1749863 60.7898509,56.8456972 C76.5174467,49.8344519 80.8881212,45.1312432 97.9928958,44.0367323 C104.622571,55.2559999 105.278813,71.0020793 100.709568,83.5857662 C96.9559551,93.9294251 91.0920555,99.1682004 86.1939962,101.701515 L86.0552108,101.773774 L86.0039669,101.799277 L85.978345,101.812029 L85.7968563,101.903415 C85.3570131,102.109565 84.9321161,102.281712 84.5371113,102.413478 C84.0545649,102.568622 83.6147218,102.666385 83.2218521,102.698264 C81.2980721,102.855533 79.4746446,102.409228 77.9458694,101.527243 C76.760855,100.845033 75.9966736,100.326047 75.0121582,98.762275 C74.0276428,97.1985025 73.5901576,91.9689021 75.5090522,88.7013976 C77.9458694,84.5519715 81.9770533,83.3774904 83.0104712,83.5857662 C82.1994659,76.0502007 82.0053219,69.1786669 81.9973258,64.3840749 L81.9973748,63.7286836 C82.0026418,60.8413592 82.0734024,58.7988146 82.1030278,57.9508344 C68.9547065,59.7785612 38.9300728,74.7956752 25.642966,80.9546897 L25.4828289,81.0290739 L25.3824764,80.884556 C20.2687658,73.9434444 15.68244,69.5143947 8.60011106,64.7729311 L9.85772088,81.3478635 C10.6028921,81.4052456 13.1238201,81.7663809 15.4981191,85.1094208 C16.1472081,86.0254095 16.3862874,87.1641763 16.4694634,88.3249078 C16.5526395,89.4856393 16.1479051,90.8691721 15.6525478,91.8850482 C15.1571904,92.9009242 14.832646,93.3152239 13.8889048,93.9783062 C13.0305701,94.5818811 12.0163686,94.9941823 10.9018146,95.1195728 L10.748083,95.1365749 L10.6925688,95.1408255 L10.6776227,95.1408255 L10.6648117,95.1429507 L10.6498656,95.1429507 L10.4790527,95.1578276 C10.2505905,95.1620781 10.0157228,95.1557023 9.77871992,95.1344497 C7.99799567,94.9665538 6.03578273,93.8784188 4.4066549,91.3854844 C-7.17659341,73.6586591 5.90126759,43.3268942 22.4978739,31.6655718 C23.8174034,33.4890481 25.3141512,34.745079 26.0529169,35.3082739 C25.139068,33.8397166 24.1355423,31.884474 23.6316444,29.7910891 C22.9398522,26.9113567 22.7412822,23.9211105 23.2729373,21.0626307 C23.4059035,20.3477289 23.6251832,19.5518752 23.9170531,18.70675 C21.8427116,17.9704774 20.3571429,15.9969607 20.3571429,13.6779439 C20.3571429,10.7307981 22.7564631,8.34166434 25.7161746,8.34166434 C27.0047659,8.34166434 28.1871332,8.79453287 29.1115146,9.54915244 C35.9845304,2.3490331 45.7917227,-0.261356881 55.552301,0.0203939062 Z M73.3894358,80.3341126 C73.6050871,80.9058086 73.31257,81.5433877 72.7360766,81.7559141 C72.7189953,81.7622899 66.4992713,83.9980674 54.8541034,89.1879616 C43.8670364,94.0857286 36.3783256,97.4087698 35.9809296,97.5859467 L35.9643342,97.5933799 L35.9643342,97.5933799 C35.404922,97.8462863 34.7451573,97.5976304 34.4932083,97.0408113 C34.2412593,96.4818669 34.4910731,95.8251604 35.0504853,95.5743793 C35.073972,95.563753 41.8787301,92.5458784 53.9487951,87.1668357 C65.6516124,81.9535636 71.9439318,79.6901577 71.9610131,79.6837819 C72.5375066,79.4712555 73.1759197,79.7624167 73.3894358,80.3341126 Z M73.3894358,71.4143805 C73.6050871,71.9860765 73.31257,72.6236556 72.7360766,72.836182 C72.7189953,72.8425578 66.4992713,75.0783353 54.8541034,80.2682295 C43.8071149,85.1933619 35.4687794,88.8966536 34.3022128,89.4131194 L34.225905,89.4468791 C34.1848143,89.4650397 34.1633902,89.4744625 34.1622583,89.4748722 C33.600711,89.7214028 32.9430814,89.4684964 32.6954027,88.9074268 C32.447724,88.3484824 32.7039434,87.6917759 33.2654907,87.4452453 C33.295383,87.4324937 42.5086026,83.3477367 53.9487951,78.2471036 C65.6516124,73.0317062 71.9439318,70.7704256 71.9610131,70.7640498 C72.5375066,70.5515234 73.1759197,70.8405593 73.3894358,71.4143805 Z M36.4831783,30.4711735 C30.3851585,30.6496957 31.0086255,43.5457964 31.1068429,46.8633332 C31.1751681,49.2181254 39.6581627,46.2385056 40.6211203,47.2352543 C42.5513058,49.2287518 40.7833925,51.462404 39.2930501,52.9755918 C49.0101678,50.8460775 47.1312261,30.160885 36.4831783,30.4711735 Z M45.8522647,30.201265 C44.9170642,30.2288935 44.1825688,31.0024895 44.2081907,31.933355 C44.2359478,32.8620953 45.0152816,33.593186 45.9483469,33.5655576 C46.8835474,33.5400544 47.6180428,32.7643332 47.5902857,31.8334676 C47.5646638,30.9047273 46.78533,30.1736366 45.8522647,30.201265 Z M30.3171904,30.443649 C29.4840086,30.4669736 28.8304816,31.1589373 28.8565185,31.9856654 C28.8799518,32.8149851 29.5725342,33.4680744 30.405716,33.4421582 C31.2388978,33.4188336 31.8950285,32.7268699 31.8689916,31.9001418 C31.8455583,31.070822 31.1503722,30.4177328 30.3171904,30.443649 Z" id="Bear"></path>
                <g id="THE-GLOBAL-REPORT" transform="translate(136.240000, 19.516000)" fill-rule="nonzero">
                    <polygon id="T" points="13.896 0 13.896 3.216 8.976 3.216 8.976 17.484 4.92 17.484 4.92 3.216 0 3.216 0 0"></polygon>
                    <polygon id="H" points="30.84 17.484 26.76 17.484 26.76 10.092 19.656 10.092 19.656 17.484 15.576 17.484 15.576 0 19.656 0 19.656 7.308 26.76 7.308 26.76 0 30.84 0"></polygon>
                    <polygon id="E" points="44.976 0 44.976 3.12 37.8 3.12 37.8 7.2 43.296 7.2 43.296 10.2 37.8 10.2 37.8 14.364 44.976 14.364 44.976 17.484 33.72 17.484 33.72 0"></polygon>
                    <path d="M9.432,43.556 C9.992,43.556 10.488,43.508 10.92,43.412 C11.352,43.316 11.76,43.188 12.144,43.028 L12.144,40.376 L10.416,40.376 C10.16,40.376 9.96,40.308 9.816,40.172 C9.672,40.036 9.6,39.864 9.6,39.656 L9.6,37.424 L15.816,37.424 L15.816,44.804 C15.368,45.132 14.902,45.414 14.418,45.65 C13.934,45.886 13.418,46.08 12.87,46.232 C12.322,46.384 11.738,46.496 11.118,46.568 C10.498,46.64 9.832,46.676 9.12,46.676 C7.84,46.676 6.656,46.45 5.568,45.998 C4.48,45.546 3.538,44.922 2.742,44.126 C1.946,43.33 1.322,42.386 0.87,41.294 C0.418,40.202 0.192,39.016 0.192,37.736 C0.192,36.432 0.408,35.234 0.84,34.142 C1.272,33.05 1.89,32.108 2.694,31.316 C3.498,30.524 4.47,29.908 5.61,29.468 C6.75,29.028 8.024,28.808 9.432,28.808 C10.16,28.808 10.844,28.868 11.484,28.988 C12.124,29.108 12.714,29.272 13.254,29.48 C13.794,29.688 14.288,29.936 14.736,30.224 C15.184,30.512 15.584,30.824 15.936,31.16 L14.76,32.948 C14.648,33.116 14.514,33.248 14.358,33.344 C14.202,33.44 14.032,33.488 13.848,33.488 C13.608,33.488 13.36,33.408 13.104,33.248 C12.784,33.056 12.482,32.89 12.198,32.75 C11.914,32.61 11.624,32.496 11.328,32.408 C11.032,32.32 10.72,32.256 10.392,32.216 C10.064,32.176 9.696,32.156 9.288,32.156 C8.528,32.156 7.844,32.29 7.236,32.558 C6.628,32.826 6.11,33.204 5.682,33.692 C5.254,34.18 4.924,34.766 4.692,35.45 C4.46,36.134 4.344,36.896 4.344,37.736 C4.344,38.664 4.472,39.488 4.728,40.208 C4.984,40.928 5.338,41.536 5.79,42.032 C6.242,42.528 6.778,42.906 7.398,43.166 C8.018,43.426 8.696,43.556 9.432,43.556 Z" id="G"></path>
                    <polygon id="L" points="22.344 43.244 28.824 43.244 28.824 46.484 18.288 46.484 18.288 29 22.344 29"></polygon>
                    <path d="M47.04,37.736 C47.04,39 46.822,40.176 46.386,41.264 C45.95,42.352 45.336,43.298 44.544,44.102 C43.752,44.906 42.798,45.536 41.682,45.992 C40.566,46.448 39.328,46.676 37.968,46.676 C36.608,46.676 35.368,46.448 34.248,45.992 C33.128,45.536 32.17,44.906 31.374,44.102 C30.578,43.298 29.962,42.352 29.526,41.264 C29.09,40.176 28.872,39 28.872,37.736 C28.872,36.472 29.09,35.296 29.526,34.208 C29.962,33.12 30.578,32.176 31.374,31.376 C32.17,30.576 33.128,29.948 34.248,29.492 C35.368,29.036 36.608,28.808 37.968,28.808 C39.328,28.808 40.566,29.038 41.682,29.498 C42.798,29.958 43.752,30.588 44.544,31.388 C45.336,32.188 45.95,33.132 46.386,34.22 C46.822,35.308 47.04,36.48 47.04,37.736 Z M42.888,37.736 C42.888,36.872 42.776,36.094 42.552,35.402 C42.328,34.71 42.006,34.124 41.586,33.644 C41.166,33.164 40.652,32.796 40.044,32.54 C39.436,32.284 38.744,32.156 37.968,32.156 C37.184,32.156 36.486,32.284 35.874,32.54 C35.262,32.796 34.746,33.164 34.326,33.644 C33.906,34.124 33.584,34.71 33.36,35.402 C33.136,36.094 33.024,36.872 33.024,37.736 C33.024,38.608 33.136,39.39 33.36,40.082 C33.584,40.774 33.906,41.36 34.326,41.84 C34.746,42.32 35.262,42.686 35.874,42.938 C36.486,43.19 37.184,43.316 37.968,43.316 C38.744,43.316 39.436,43.19 40.044,42.938 C40.652,42.686 41.166,42.32 41.586,41.84 C42.006,41.36 42.328,40.774 42.552,40.082 C42.776,39.39 42.888,38.608 42.888,37.736 Z" id="O"></path>
                    <path d="M48.984,46.484 L48.984,29 L55.416,29 C56.624,29 57.652,29.112 58.5,29.336 C59.348,29.56 60.04,29.876 60.576,30.284 C61.112,30.692 61.502,31.188 61.746,31.772 C61.99,32.356 62.112,33.008 62.112,33.728 C62.112,34.12 62.056,34.498 61.944,34.862 C61.832,35.226 61.656,35.568 61.416,35.888 C61.176,36.208 60.868,36.498 60.492,36.758 C60.116,37.018 59.664,37.244 59.136,37.436 C60.288,37.716 61.14,38.17 61.692,38.798 C62.244,39.426 62.52,40.232 62.52,41.216 C62.52,41.96 62.376,42.652 62.088,43.292 C61.8,43.932 61.378,44.49 60.822,44.966 C60.266,45.442 59.58,45.814 58.764,46.082 C57.948,46.35 57.016,46.484 55.968,46.484 L48.984,46.484 Z M53.04,39.068 L53.04,43.424 L55.896,43.424 C56.432,43.424 56.87,43.356 57.21,43.22 C57.55,43.084 57.816,42.908 58.008,42.692 C58.2,42.476 58.332,42.232 58.404,41.96 C58.476,41.688 58.512,41.412 58.512,41.132 C58.512,40.812 58.47,40.524 58.386,40.268 C58.302,40.012 58.158,39.796 57.954,39.62 C57.75,39.444 57.48,39.308 57.144,39.212 C56.808,39.116 56.384,39.068 55.872,39.068 L53.04,39.068 Z M53.04,36.356 L55.152,36.356 C55.6,36.356 56.004,36.324 56.364,36.26 C56.724,36.196 57.03,36.084 57.282,35.924 C57.534,35.764 57.726,35.544 57.858,35.264 C57.99,34.984 58.056,34.632 58.056,34.208 C58.056,33.792 58.004,33.446 57.9,33.17 C57.796,32.894 57.636,32.672 57.42,32.504 C57.204,32.336 56.93,32.216 56.598,32.144 C56.266,32.072 55.872,32.036 55.416,32.036 L53.04,32.036 L53.04,36.356 Z" id="B"></path>
                    <path d="M81,46.484 L77.856,46.484 C77.504,46.484 77.214,46.402 76.986,46.238 C76.758,46.074 76.6,45.864 76.512,45.608 L75.48,42.56 L68.832,42.56 L67.8,45.608 C67.72,45.832 67.564,46.034 67.332,46.214 C67.1,46.394 66.816,46.484 66.48,46.484 L63.312,46.484 L70.08,29 L74.232,29 L81,46.484 Z M69.768,39.8 L74.544,39.8 L72.936,35.012 C72.832,34.708 72.71,34.35 72.57,33.938 C72.43,33.526 72.292,33.08 72.156,32.6 C72.028,33.088 71.896,33.54 71.76,33.956 C71.624,34.372 71.496,34.732 71.376,35.036 L69.768,39.8 Z" id="A"></path>
                    <polygon id="L" points="86.472 43.244 92.952 43.244 92.952 46.484 82.416 46.484 82.416 29 86.472 29"></polygon>
                    <path d="M5.256,69.016 L5.256,75.484 L1.2,75.484 L1.2,58 L6.888,58 C8.152,58 9.23,58.13 10.122,58.39 C11.014,58.65 11.742,59.012 12.306,59.476 C12.87,59.94 13.28,60.488 13.536,61.12 C13.792,61.752 13.92,62.44 13.92,63.184 C13.92,63.752 13.844,64.288 13.692,64.792 C13.54,65.296 13.314,65.762 13.014,66.19 C12.714,66.618 12.346,67 11.91,67.336 C11.474,67.672 10.972,67.948 10.404,68.164 C10.676,68.3 10.93,68.468 11.166,68.668 C11.402,68.868 11.608,69.112 11.784,69.4 L15.504,75.484 L11.832,75.484 C11.152,75.484 10.664,75.228 10.368,74.716 L7.464,69.64 C7.336,69.416 7.186,69.256 7.014,69.16 C6.842,69.064 6.6,69.016 6.288,69.016 L5.256,69.016 Z M5.256,66.22 L6.888,66.22 C7.44,66.22 7.91,66.15 8.298,66.01 C8.686,65.87 9.004,65.676 9.252,65.428 C9.5,65.18 9.68,64.89 9.792,64.558 C9.904,64.226 9.96,63.868 9.96,63.484 C9.96,62.716 9.71,62.116 9.21,61.684 C8.71,61.252 7.936,61.036 6.888,61.036 L5.256,61.036 L5.256,66.22 Z" id="R"></path>
                    <polygon id="E" points="28.416 58 28.416 61.12 21.24 61.12 21.24 65.2 26.736 65.2 26.736 68.2 21.24 68.2 21.24 72.364 28.416 72.364 28.416 75.484 17.16 75.484 17.16 58"></polygon>
                    <path d="M34.776,69.64 L34.776,75.484 L30.72,75.484 L30.72,58 L36.888,58 C38.12,58 39.178,58.146 40.062,58.438 C40.946,58.73 41.674,59.132 42.246,59.644 C42.818,60.156 43.24,60.76 43.512,61.456 C43.784,62.152 43.92,62.904 43.92,63.712 C43.92,64.584 43.78,65.384 43.5,66.112 C43.22,66.84 42.792,67.464 42.216,67.984 C41.64,68.504 40.91,68.91 40.026,69.202 C39.142,69.494 38.096,69.64 36.888,69.64 L34.776,69.64 Z M34.776,66.58 L36.888,66.58 C37.944,66.58 38.704,66.328 39.168,65.824 C39.632,65.32 39.864,64.616 39.864,63.712 C39.864,63.312 39.804,62.948 39.684,62.62 C39.564,62.292 39.382,62.01 39.138,61.774 C38.894,61.538 38.586,61.356 38.214,61.228 C37.842,61.1 37.4,61.036 36.888,61.036 L34.776,61.036 L34.776,66.58 Z" id="P"></path>
                    <path d="M63.288,66.736 C63.288,68 63.07,69.176 62.634,70.264 C62.198,71.352 61.584,72.298 60.792,73.102 C60,73.906 59.046,74.536 57.93,74.992 C56.814,75.448 55.576,75.676 54.216,75.676 C52.856,75.676 51.616,75.448 50.496,74.992 C49.376,74.536 48.418,73.906 47.622,73.102 C46.826,72.298 46.21,71.352 45.774,70.264 C45.338,69.176 45.12,68 45.12,66.736 C45.12,65.472 45.338,64.296 45.774,63.208 C46.21,62.12 46.826,61.176 47.622,60.376 C48.418,59.576 49.376,58.948 50.496,58.492 C51.616,58.036 52.856,57.808 54.216,57.808 C55.576,57.808 56.814,58.038 57.93,58.498 C59.046,58.958 60,59.588 60.792,60.388 C61.584,61.188 62.198,62.132 62.634,63.22 C63.07,64.308 63.288,65.48 63.288,66.736 Z M59.136,66.736 C59.136,65.872 59.024,65.094 58.8,64.402 C58.576,63.71 58.254,63.124 57.834,62.644 C57.414,62.164 56.9,61.796 56.292,61.54 C55.684,61.284 54.992,61.156 54.216,61.156 C53.432,61.156 52.734,61.284 52.122,61.54 C51.51,61.796 50.994,62.164 50.574,62.644 C50.154,63.124 49.832,63.71 49.608,64.402 C49.384,65.094 49.272,65.872 49.272,66.736 C49.272,67.608 49.384,68.39 49.608,69.082 C49.832,69.774 50.154,70.36 50.574,70.84 C50.994,71.32 51.51,71.686 52.122,71.938 C52.734,72.19 53.432,72.316 54.216,72.316 C54.992,72.316 55.684,72.19 56.292,71.938 C56.9,71.686 57.414,71.32 57.834,70.84 C58.254,70.36 58.576,69.774 58.8,69.082 C59.024,68.39 59.136,67.608 59.136,66.736 Z" id="O"></path>
                    <path d="M69.288,69.016 L69.288,75.484 L65.232,75.484 L65.232,58 L70.92,58 C72.184,58 73.262,58.13 74.154,58.39 C75.046,58.65 75.774,59.012 76.338,59.476 C76.902,59.94 77.312,60.488 77.568,61.12 C77.824,61.752 77.952,62.44 77.952,63.184 C77.952,63.752 77.876,64.288 77.724,64.792 C77.572,65.296 77.346,65.762 77.046,66.19 C76.746,66.618 76.378,67 75.942,67.336 C75.506,67.672 75.004,67.948 74.436,68.164 C74.708,68.3 74.962,68.468 75.198,68.668 C75.434,68.868 75.64,69.112 75.816,69.4 L79.536,75.484 L75.864,75.484 C75.184,75.484 74.696,75.228 74.4,74.716 L71.496,69.64 C71.368,69.416 71.218,69.256 71.046,69.16 C70.874,69.064 70.632,69.016 70.32,69.016 L69.288,69.016 Z M69.288,66.22 L70.92,66.22 C71.472,66.22 71.942,66.15 72.33,66.01 C72.718,65.87 73.036,65.676 73.284,65.428 C73.532,65.18 73.712,64.89 73.824,64.558 C73.936,64.226 73.992,63.868 73.992,63.484 C73.992,62.716 73.742,62.116 73.242,61.684 C72.742,61.252 71.968,61.036 70.92,61.036 L69.288,61.036 L69.288,66.22 Z" id="R"></path>
                    <polygon id="T" points="93.168 58 93.168 61.216 88.248 61.216 88.248 75.484 84.192 75.484 84.192 61.216 79.272 61.216 79.272 58"></polygon>
                </g>
            </g>
        </g>
    </g>
</svg>