<svg width="42" height="38" viewBox="0 0 42 38" fill="none" xmlns="http://www.w3.org/2000/svg">
<path d="M40.0823 9.21055C39.6229 7.45156 38.2739 6.07109 36.5604 5.60352C33.4541 4.75 21 4.75 21 4.75C21 4.75 8.5458 4.75 5.43955 5.60352C3.72601 6.07109 2.37705 7.45156 1.91768 9.21055C1.08643 12.3945 1.08643 19.0297 1.08643 19.0297C1.08643 19.0297 1.08643 25.6648 1.91768 28.8488C2.37705 30.6078 3.72601 31.9289 5.43955 32.3965C8.5458 33.25 21 33.25 21 33.25C21 33.25 33.4541 33.25 36.5604 32.3965C38.2739 31.9289 39.6229 30.6004 40.0823 28.8488C40.9135 25.6648 40.9135 19.0297 40.9135 19.0297C40.9135 19.0297 40.9135 12.3945 40.0823 9.21055ZM16.9312 25.0563V13.0031L27.3364 19.0297L16.9312 25.0563Z" fill="white"/>
</svg>
